<?xml version="1.0" encoding="UTF-8" standalone="no"?>
<!-- Created with Bouml (http://bouml.free.fr/) -->
<!DOCTYPE svg PUBLIC "-//W3C//DTD SVG 1.1//EN" "http://www.w3.org/Graphics/SVG/1.1/DTD/svg11.dtd">
<svg width="526" height="383" version="1.1" xmlns="http://www.w3.org/2000/svg">
<g>
	<rect fill="none" stroke="black" stroke-width="1" stroke-opacity="1" x="280" y="4" width="93" height="19" />
	<rect fill="none" stroke="black" stroke-width="1" stroke-opacity="1" x="280" y="23" width="234" height="231" />
	<text font-family="Helvetica" font-size="9" fill="#000000" xml:space="preserve" text-anchor="middle" x="397" y="35">module</text>
</g>
<g>
	<rect fill="#808080" stroke="none" stroke-opacity="1" x="223" y="16" width="3" height="35" />
	<rect fill="#808080" stroke="none" stroke-opacity="1" x="167" y="48" width="59" height="3" />
	<rect fill="#ffffc0" stroke="black" stroke-width="1" stroke-opacity="1" x="163" y="12" width="60" height="36" />
	<text font-family="Helvetica" font-size="9" fill="#000000" xml:space="preserve" font-weight="bold" text-anchor="middle" x="193" y="23">SynthPro</text>
	<line stroke="black" stroke-opacity="1" x1="163" y1="32" x2="223" y2="32" />
	<line stroke="black" stroke-opacity="1" x1="163" y1="40" x2="223" y2="40" />
</g>
<g>
	<rect fill="#808080" stroke="none" stroke-opacity="1" x="492" y="51" width="3" height="101" />
	<rect fill="#808080" stroke="none" stroke-opacity="1" x="330" y="149" width="165" height="3" />
	<rect fill="#ffffc0" stroke="black" stroke-width="1" stroke-opacity="1" x="326" y="47" width="166" height="102" />
	<text font-family="Helvetica" font-size="9" fill="#000000" xml:space="preserve" font-weight="bold" font-style="italic" text-anchor="middle" x="409" y="58">Module</text>
	<line stroke="black" stroke-opacity="1" x1="326" y1="67" x2="492" y2="67" />
	<line stroke="black" stroke-opacity="1" x1="326" y1="75" x2="492" y2="75" />
	<text font-family="Helvetica" font-size="9" fill="#000000" xml:space="preserve" font-weight="bold" x="330" y="86">+</text>
	<text font-family="Helvetica" font-size="9" fill="#000000" xml:space="preserve" x="344" y="86">requirements() : Module [*]</text>
	<text font-family="Helvetica" font-size="9" fill="#000000" xml:space="preserve" font-weight="bold" x="330" y="104">+</text>
	<text font-family="Helvetica" font-size="9" fill="#000000" xml:space="preserve" x="344" y="104">process()</text>
	<text font-family="Helvetica" font-size="9" fill="#000000" xml:space="preserve" font-weight="bold" x="330" y="122">#</text>
	<text font-family="Helvetica" font-size="9" fill="#000000" xml:space="preserve" x="344" y="122">fetchInput()</text>
	<text font-family="Helvetica" font-size="9" fill="#000000" xml:space="preserve" font-weight="bold" x="330" y="140">#</text>
	<text font-family="Helvetica" font-size="9" fill="#000000" xml:space="preserve" font-style="italic" x="344" y="140">ownProcess()</text>
</g>
<g>
	<rect fill="#808080" stroke="none" stroke-opacity="1" x="333" y="205" width="3" height="35" />
	<rect fill="#808080" stroke="none" stroke-opacity="1" x="297" y="237" width="39" height="3" />
	<rect fill="#ffffc0" stroke="black" stroke-width="1" stroke-opacity="1" x="293" y="201" width="40" height="36" />
	<text font-family="Helvetica" font-size="9" fill="#000000" xml:space="preserve" font-weight="bold" text-anchor="middle" x="313" y="212">VCO</text>
	<line stroke="black" stroke-opacity="1" x1="293" y1="221" x2="333" y2="221" />
	<line stroke="black" stroke-opacity="1" x1="293" y1="229" x2="333" y2="229" />
</g>
<g>
	<rect fill="#808080" stroke="none" stroke-opacity="1" x="460" y="196" width="3" height="35" />
	<rect fill="#808080" stroke="none" stroke-opacity="1" x="424" y="228" width="39" height="3" />
	<rect fill="#ffffc0" stroke="black" stroke-width="1" stroke-opacity="1" x="420" y="192" width="40" height="36" />
	<text font-family="Helvetica" font-size="9" fill="#000000" xml:space="preserve" font-weight="bold" text-anchor="middle" x="440" y="203">VCF</text>
	<line stroke="black" stroke-opacity="1" x1="420" y1="212" x2="460" y2="212" />
	<line stroke="black" stroke-opacity="1" x1="420" y1="220" x2="460" y2="220" />
</g>
<g>
	<rect fill="#808080" stroke="none" stroke-opacity="1" x="221" y="83" width="3" height="85" />
	<rect fill="#808080" stroke="none" stroke-opacity="1" x="39" y="165" width="185" height="3" />
	<rect fill="#ffffc0" stroke="black" stroke-width="1" stroke-opacity="1" x="35" y="79" width="186" height="86" />
	<text font-family="Helvetica" font-size="9" fill="#000000" xml:space="preserve" text-anchor="middle" x="128" y="90">&lt;&lt;singleton&gt;&gt;</text>
	<text font-family="Helvetica" font-size="9" fill="#000000" xml:space="preserve" font-weight="bold" text-anchor="middle" x="128" y="110">Sequencer</text>
	<line stroke="black" stroke-opacity="1" x1="35" y1="119" x2="221" y2="119" />
	<line stroke="black" stroke-opacity="1" x1="35" y1="127" x2="221" y2="127" />
	<text font-family="Helvetica" font-size="9" fill="#000000" xml:space="preserve" font-weight="bold" x="39" y="138">+</text>
	<text font-family="Helvetica" font-size="9" fill="#000000" xml:space="preserve" x="53" y="138">process()</text>
	<text font-family="Helvetica" font-size="9" fill="#000000" xml:space="preserve" font-weight="bold" x="39" y="156">+</text>
	<text font-family="Helvetica" font-size="9" fill="#000000" xml:space="preserve" x="53" y="156">scheduleModules( : SynthPro)</text>
</g>
<g>
	<rect fill="none" stroke="black" stroke-width="1" stroke-opacity="1" x="9" y="181" width="105" height="19" />
	<rect fill="none" stroke="black" stroke-width="1" stroke-opacity="1" x="9" y="200" width="264" height="171" />
	<text font-family="Helvetica" font-size="9" fill="#000000" xml:space="preserve" text-anchor="middle" x="141" y="212">wavegenerator</text>
</g>
<g>
	<line stroke="black" stroke-opacity="1" x1="227" y1="41" x2="325" y2="71" />
	<polygon fill="#000000" stroke="black" stroke-opacity="1" points="227,41 234,37 238,44 230,48" />
</g>
<g>
	<line stroke="black" stroke-opacity="1" x1="330" y1="200" x2="362" y2="157" />
	<line stroke="black" stroke-opacity="1" x1="366" y1="153" x2="357" y2="154" />
	<line stroke="black" stroke-opacity="1" x1="366" y1="153" x2="367" y2="161" />
	<line stroke="black" stroke-opacity="1" x1="357" y1="154" x2="367" y2="161" />
</g>
<g>
	<line stroke="black" stroke-opacity="1" x1="429" y1="191" x2="422" y2="158" />
	<line stroke="black" stroke-opacity="1" x1="421" y1="153" x2="416" y2="160" />
	<line stroke="black" stroke-opacity="1" x1="421" y1="153" x2="428" y2="157" />
	<line stroke="black" stroke-opacity="1" x1="416" y1="160" x2="428" y2="157" />
</g>
<g>
	<line stroke="black" stroke-opacity="1" x1="325" y1="106" x2="318" y2="100" />
	<line stroke="black" stroke-opacity="1" x1="325" y1="106" x2="319" y2="112" />
	<line stroke="black" stroke-opacity="1" x1="225" y1="115" x2="325" y2="106" />
</g>
<g>
	<line stroke="black" stroke-opacity="1" x1="168" y1="240" x2="174" y2="245" />
	<line stroke="black" stroke-opacity="1" x1="168" y1="240" x2="173" y2="233" />
	<line stroke="black" stroke-opacity="1" x1="292" y1="225" x2="168" y2="240" />
</g>
<g>
	<line stroke="black" stroke-opacity="1" x1="93" y1="313" x2="103" y2="297" />
	<line stroke="black" stroke-opacity="1" x1="107" y1="293" x2="98" y2="294" />
	<line stroke="black" stroke-opacity="1" x1="107" y1="293" x2="108" y2="301" />
	<line stroke="black" stroke-opacity="1" x1="98" y1="294" x2="108" y2="301" />
</g>
<g>
	<line stroke="black" stroke-opacity="1" x1="145" y1="313" x2="139" y2="298" />
	<line stroke="black" stroke-opacity="1" x1="138" y1="293" x2="134" y2="300" />
	<line stroke="black" stroke-opacity="1" x1="138" y1="293" x2="145" y2="296" />
	<line stroke="black" stroke-opacity="1" x1="134" y1="300" x2="145" y2="296" />
</g>
<g>
	<rect fill="#808080" stroke="none" stroke-opacity="1" x="227" y="245" width="3" height="47" />
	<rect fill="#808080" stroke="none" stroke-opacity="1" x="37" y="289" width="193" height="3" />
	<rect fill="#ffffc0" stroke="black" stroke-width="1" stroke-opacity="1" x="33" y="241" width="194" height="48" />
	<text font-family="Helvetica" font-size="9" fill="#000000" xml:space="preserve" font-weight="bold" font-style="italic" text-anchor="middle" x="130" y="252">WaveGenerator</text>
	<line stroke="black" stroke-opacity="1" x1="33" y1="261" x2="227" y2="261" />
	<line stroke="black" stroke-opacity="1" x1="33" y1="269" x2="227" y2="269" />
	<text font-family="Helvetica" font-size="9" fill="#000000" xml:space="preserve" font-weight="bold" x="37" y="280">+</text>
	<text font-family="Helvetica" font-size="9" fill="#000000" xml:space="preserve" font-style="italic" x="51" y="280">generate(in : Buffer, out : Buffer)</text>
</g>
<g>
	<rect fill="#808080" stroke="none" stroke-opacity="1" x="101" y="318" width="3" height="35" />
	<rect fill="#808080" stroke="none" stroke-opacity="1" x="57" y="350" width="47" height="3" />
	<rect fill="#ffffc0" stroke="black" stroke-width="1" stroke-opacity="1" x="53" y="314" width="48" height="36" />
	<text font-family="Helvetica" font-size="9" fill="#000000" xml:space="preserve" font-weight="bold" text-anchor="middle" x="77" y="325">Square</text>
	<line stroke="black" stroke-opacity="1" x1="53" y1="334" x2="101" y2="334" />
	<line stroke="black" stroke-opacity="1" x1="53" y1="342" x2="101" y2="342" />
</g>
<g>
	<rect fill="#808080" stroke="none" stroke-opacity="1" x="170" y="318" width="3" height="35" />
	<rect fill="#808080" stroke="none" stroke-opacity="1" x="134" y="350" width="39" height="3" />
	<rect fill="#ffffc0" stroke="black" stroke-width="1" stroke-opacity="1" x="130" y="314" width="40" height="36" />
	<text font-family="Helvetica" font-size="9" fill="#000000" xml:space="preserve" font-weight="bold" text-anchor="middle" x="150" y="325">Saw</text>
	<line stroke="black" stroke-opacity="1" x1="130" y1="334" x2="170" y2="334" />
	<line stroke="black" stroke-opacity="1" x1="130" y1="342" x2="170" y2="342" />
</g>
<g>
	<text font-family="Helvetica" font-size="9" fill="#000000" xml:space="preserve" x="278" y="51">modules</text>
</g>
<g>
	<text font-family="Helvetica" font-size="9" fill="#000000" xml:space="preserve" x="314" y="79">*</text>
</g>
<g>
	<text font-family="Helvetica" font-size="9" fill="#000000" xml:space="preserve" x="241" y="98">sortedModules</text>
</g>
<g>
	<text font-family="Helvetica" font-size="9" fill="#000000" xml:space="preserve" x="312" y="120">*</text>
</g>
<g>
	<text font-family="Helvetica" font-size="9" fill="#000000" xml:space="preserve" x="178" y="227">waveGenerator</text>
</g>
<g>
	<text font-family="Helvetica" font-size="9" fill="#000000" xml:space="preserve" x="178" y="256">1</text>
</g>
</svg>
