<?xml version="1.0" encoding="UTF-8" standalone="no"?>
<!-- Created with Bouml (http://bouml.free.fr/) -->
<!DOCTYPE svg PUBLIC "-//W3C//DTD SVG 1.1//EN" "http://www.w3.org/Graphics/SVG/1.1/DTD/svg11.dtd">
<svg width="1036" height="536" version="1.1" xmlns="http://www.w3.org/2000/svg">
<g>
	<rect fill="none" stroke="black" stroke-width="1" stroke-opacity="1" x="201" y="29" width="101" height="15" />
	<rect fill="none" stroke="black" stroke-width="1" stroke-opacity="1" x="201" y="44" width="254" height="259" />
	<text font-family="Lucida Grande" font-size="9" fill="#000000" xml:space="preserve" text-anchor="middle" x="328" y="56">module</text>
</g>
<g>
	<rect fill="#808080" stroke="none" stroke-opacity="1" x="130" y="82" width="3" height="31" />
	<rect fill="#808080" stroke="none" stroke-opacity="1" x="84" y="110" width="49" height="3" />
	<rect fill="#ffffc0" stroke="black" stroke-width="1" stroke-opacity="1" x="80" y="78" width="50" height="32" />
	<text font-family="Lucida Grande" font-size="9" fill="#000000" xml:space="preserve" font-weight="bold" text-anchor="middle" x="105" y="89">SynthPro</text>
	<line stroke="black" stroke-opacity="1" x1="80" y1="94" x2="130" y2="94" />
	<line stroke="black" stroke-opacity="1" x1="80" y1="102" x2="130" y2="102" />
</g>
<g>
	<rect fill="#808080" stroke="none" stroke-opacity="1" x="265" y="255" width="3" height="31" />
	<rect fill="#808080" stroke="none" stroke-opacity="1" x="229" y="283" width="39" height="3" />
	<rect fill="#ffffc0" stroke="black" stroke-width="1" stroke-opacity="1" x="225" y="251" width="40" height="32" />
	<text font-family="Lucida Grande" font-size="9" fill="#000000" xml:space="preserve" font-weight="bold" text-anchor="middle" x="245" y="262">VCO</text>
	<line stroke="black" stroke-opacity="1" x1="225" y1="267" x2="265" y2="267" />
	<line stroke="black" stroke-opacity="1" x1="225" y1="275" x2="265" y2="275" />
</g>
<g>
	<rect fill="#808080" stroke="none" stroke-opacity="1" x="401" y="92" width="3" height="81" />
	<rect fill="#808080" stroke="none" stroke-opacity="1" x="265" y="170" width="139" height="3" />
	<rect fill="#ffffc0" stroke="black" stroke-width="1" stroke-opacity="1" x="261" y="88" width="140" height="82" />
	<text font-family="Lucida Grande" font-size="9" fill="#000000" xml:space="preserve" font-weight="bold" font-style="italic" text-anchor="middle" x="331" y="99">Module</text>
	<line stroke="black" stroke-opacity="1" x1="261" y1="104" x2="401" y2="104" />
	<line stroke="black" stroke-opacity="1" x1="261" y1="112" x2="401" y2="112" />
	<text font-family="Lucida Grande" font-size="9" fill="#000000" xml:space="preserve" font-weight="bold" x="265" y="123">+</text>
	<text font-family="Lucida Grande" font-size="9" fill="#000000" xml:space="preserve" x="276" y="123">requirements() : Module [*]</text>
	<text font-family="Lucida Grande" font-size="9" fill="#000000" xml:space="preserve" font-weight="bold" x="265" y="137">+</text>
	<text font-family="Lucida Grande" font-size="9" fill="#000000" xml:space="preserve" x="276" y="137">process()</text>
	<text font-family="Lucida Grande" font-size="9" fill="#000000" xml:space="preserve" font-weight="bold" x="265" y="151">#</text>
	<text font-family="Lucida Grande" font-size="9" fill="#000000" xml:space="preserve" x="276" y="151">fetchInput()</text>
	<text font-family="Lucida Grande" font-size="9" fill="#000000" xml:space="preserve" font-weight="bold" x="265" y="165">#</text>
	<text font-family="Lucida Grande" font-size="9" fill="#000000" xml:space="preserve" font-style="italic" x="276" y="165">ownProcess()</text>
</g>
<g>
	<rect fill="#808080" stroke="none" stroke-opacity="1" x="415" y="248" width="3" height="31" />
	<rect fill="#808080" stroke="none" stroke-opacity="1" x="379" y="276" width="39" height="3" />
	<rect fill="#ffffc0" stroke="black" stroke-width="1" stroke-opacity="1" x="375" y="244" width="40" height="32" />
	<text font-family="Lucida Grande" font-size="9" fill="#000000" xml:space="preserve" font-weight="bold" text-anchor="middle" x="395" y="255">VCF</text>
	<line stroke="black" stroke-opacity="1" x1="375" y1="260" x2="415" y2="260" />
	<line stroke="black" stroke-opacity="1" x1="375" y1="268" x2="415" y2="268" />
</g>
<g>
	<rect fill="#808080" stroke="none" stroke-opacity="1" x="160" y="185" width="3" height="69" />
	<rect fill="#808080" stroke="none" stroke-opacity="1" x="10" y="251" width="153" height="3" />
	<rect fill="#ffffc0" stroke="black" stroke-width="1" stroke-opacity="1" x="6" y="181" width="154" height="70" />
	<text font-family="Lucida Grande" font-size="9" fill="#000000" xml:space="preserve" text-anchor="middle" x="83" y="192">&lt;&lt;singleton&gt;&gt;</text>
	<text font-family="Lucida Grande" font-size="9" fill="#000000" xml:space="preserve" font-weight="bold" text-anchor="middle" x="83" y="208">Sequencer</text>
	<line stroke="black" stroke-opacity="1" x1="6" y1="213" x2="160" y2="213" />
	<line stroke="black" stroke-opacity="1" x1="6" y1="221" x2="160" y2="221" />
	<text font-family="Lucida Grande" font-size="9" fill="#000000" xml:space="preserve" font-weight="bold" x="10" y="232">+</text>
	<text font-family="Lucida Grande" font-size="9" fill="#000000" xml:space="preserve" x="21" y="232">process()</text>
	<text font-family="Lucida Grande" font-size="9" fill="#000000" xml:space="preserve" font-weight="bold" x="10" y="246">+</text>
	<text font-family="Lucida Grande" font-size="9" fill="#000000" xml:space="preserve" x="21" y="246">scheduleModules( : SynthPro)</text>
</g>
<g>
	<rect fill="none" stroke="black" stroke-width="1" stroke-opacity="1" x="28" y="308" width="113" height="15" />
	<rect fill="none" stroke="black" stroke-width="1" stroke-opacity="1" x="28" y="323" width="286" height="201" />
	<text font-family="Lucida Grande" font-size="9" fill="#000000" xml:space="preserve" text-anchor="middle" x="171" y="335">wavegenerator</text>
</g>
<g>
	<rect fill="none" stroke="black" stroke-width="1" stroke-opacity="1" x="500" y="8" width="209" height="15" />
	<rect fill="none" stroke="black" stroke-width="1" stroke-opacity="1" x="500" y="23" width="524" height="499" />
	<text font-family="Lucida Grande" font-size="9" fill="#000000" xml:space="preserve" text-anchor="middle" x="762" y="35">component</text>
</g>
<g>
	<line stroke="black" stroke-opacity="1" x1="134" y1="99" x2="260" y2="119" />
	<polygon fill="#000000" stroke="black" stroke-opacity="1" points="134,99 140,94 145,100 138,105" />
</g>
<g>
	<line stroke="black" stroke-opacity="1" x1="891" y1="224" x2="887" y2="216" />
	<line stroke="black" stroke-opacity="1" x1="891" y1="224" x2="883" y2="227" />
	<line stroke="black" stroke-opacity="1" x1="735" y1="161" x2="891" y2="224" />
	<polygon fill="#000000" stroke="black" stroke-opacity="1" points="735,161 742,157 746,165 738,168" />
</g>
<g>
	<line stroke="black" stroke-opacity="1" x1="640" y1="293" x2="647" y2="297" />
	<line stroke="black" stroke-opacity="1" x1="640" y1="293" x2="644" y2="285" />
	<line stroke="black" stroke-opacity="1" x1="891" y1="243" x2="640" y2="293" />
</g>
<g>
	<line stroke="black" stroke-opacity="1" x1="873" y1="305" x2="881" y2="303" />
	<line stroke="black" stroke-opacity="1" x1="873" y1="305" x2="871" y2="296" />
	<line stroke="black" stroke-opacity="1" x1="909" y1="256" x2="873" y2="305" />
</g>
<g>
	<line stroke="black" stroke-opacity="1" x1="615" y1="277" x2="622" y2="192" />
	<line stroke="black" stroke-opacity="1" x1="623" y1="187" x2="616" y2="192" />
	<line stroke="black" stroke-opacity="1" x1="623" y1="187" x2="628" y2="193" />
	<line stroke="black" stroke-opacity="1" x1="616" y1="192" x2="628" y2="193" />
</g>
<g>
	<line stroke="black" stroke-opacity="1" x1="841" y1="305" x2="711" y2="190" />
	<line stroke="black" stroke-opacity="1" x1="707" y1="187" x2="707" y2="195" />
	<line stroke="black" stroke-opacity="1" x1="707" y1="187" x2="715" y2="186" />
	<line stroke="black" stroke-opacity="1" x1="707" y1="195" x2="715" y2="186" />
</g>
<g>
	<line stroke="black" stroke-opacity="1" x1="391" y1="174" x2="589" y2="286" />
	<polygon fill="#000000" stroke="black" stroke-opacity="1" points="391,174 399,171 401,179 393,182" />
</g>
<g>
	<line stroke="black" stroke-opacity="1" x1="405" y1="151" x2="525" y2="230" />
	<polygon fill="#000000" stroke="black" stroke-opacity="1" points="405,151 413,149 415,157 406,159" />
</g>
<g>
	<line stroke="black" stroke-opacity="1" x1="525" y1="230" x2="837" y2="317" />
</g>
<g>
	<line stroke="black" stroke-opacity="1" x1="257" y1="250" x2="300" y2="179" />
	<line stroke="black" stroke-opacity="1" x1="304" y1="174" x2="295" y2="175" />
	<line stroke="black" stroke-opacity="1" x1="304" y1="174" x2="305" y2="182" />
	<line stroke="black" stroke-opacity="1" x1="295" y1="175" x2="305" y2="182" />
</g>
<g>
	<line stroke="black" stroke-opacity="1" x1="388" y1="243" x2="355" y2="179" />
	<line stroke="black" stroke-opacity="1" x1="353" y1="174" x2="350" y2="182" />
	<line stroke="black" stroke-opacity="1" x1="353" y1="174" x2="361" y2="176" />
	<line stroke="black" stroke-opacity="1" x1="350" y1="182" x2="361" y2="176" />
</g>
<g>
	<line stroke="black" stroke-opacity="1" x1="871" y1="116" x2="864" y2="110" />
	<line stroke="black" stroke-opacity="1" x1="871" y1="116" x2="865" y2="122" />
	<line stroke="black" stroke-opacity="1" x1="735" y1="117" x2="871" y2="116" />
	<polygon fill="#000000" stroke="black" stroke-opacity="1" points="735,117 740,110 746,116 741,122" />
</g>
<g>
	<line stroke="black" stroke-opacity="1" x1="260" y1="153" x2="252" y2="149" />
	<line stroke="black" stroke-opacity="1" x1="260" y1="153" x2="256" y2="160" />
	<line stroke="black" stroke-opacity="1" x1="164" y1="188" x2="260" y2="153" />
</g>
<g>
	<line stroke="black" stroke-opacity="1" x1="171" y1="373" x2="179" y2="371" />
	<line stroke="black" stroke-opacity="1" x1="171" y1="373" x2="169" y2="364" />
	<line stroke="black" stroke-opacity="1" x1="229" y1="287" x2="171" y2="373" />
</g>
<g>
	<line stroke="black" stroke-opacity="1" x1="98" y1="463" x2="120" y2="423" />
	<line stroke="black" stroke-opacity="1" x1="124" y1="418" x2="115" y2="420" />
	<line stroke="black" stroke-opacity="1" x1="124" y1="418" x2="126" y2="426" />
	<line stroke="black" stroke-opacity="1" x1="115" y1="420" x2="126" y2="426" />
</g>
<g>
	<line stroke="black" stroke-opacity="1" x1="202" y1="464" x2="164" y2="422" />
	<line stroke="black" stroke-opacity="1" x1="160" y1="418" x2="159" y2="426" />
	<line stroke="black" stroke-opacity="1" x1="160" y1="418" x2="168" y2="418" />
	<line stroke="black" stroke-opacity="1" x1="159" y1="426" x2="168" y2="418" />
</g>
<g>
	<line stroke="black" stroke-opacity="1" x1="788" y1="418" x2="783" y2="410" />
	<line stroke="black" stroke-opacity="1" x1="788" y1="418" x2="780" y2="422" />
	<line stroke="black" stroke-opacity="1" x1="269" y1="267" x2="788" y2="418" />
	<polygon fill="#000000" stroke="black" stroke-opacity="1" points="269,267 276,262 280,270 273,274" />
</g>
<g>
	<line stroke="black" stroke-opacity="1" x1="560" y1="402" x2="559" y2="393" />
	<line stroke="black" stroke-opacity="1" x1="560" y1="402" x2="551" y2="402" />
	<line stroke="black" stroke-opacity="1" x1="418" y1="280" x2="560" y2="402" />
	<polygon fill="#000000" stroke="black" stroke-opacity="1" points="418,280 426,279 427,287 418,288" />
</g>
<g>
	<line stroke="black" stroke-opacity="1" x1="788" y1="404" x2="784" y2="396" />
	<line stroke="black" stroke-opacity="1" x1="788" y1="404" x2="780" y2="407" />
	<line stroke="black" stroke-opacity="1" x1="419" y1="269" x2="788" y2="404" />
	<polygon fill="#000000" stroke="black" stroke-opacity="1" points="419,269 426,265 430,273 422,276" />
</g>
<g>
	<rect fill="#808080" stroke="none" stroke-opacity="1" x="731" y="55" width="3" height="131" />
	<rect fill="#808080" stroke="none" stroke-opacity="1" x="529" y="183" width="205" height="3" />
	<rect fill="#ffffc0" stroke="black" stroke-width="1" stroke-opacity="1" x="525" y="51" width="206" height="132" />
	<text font-family="Lucida Grande" font-size="9" fill="#000000" xml:space="preserve" font-weight="bold" font-style="italic" text-anchor="middle" x="628" y="62">VirtualPort</text>
	<line stroke="black" stroke-opacity="1" x1="525" y1="67" x2="731" y2="67" />
	<text font-family="Lucida Grande" font-size="9" fill="#000000" xml:space="preserve" font-weight="bold" x="529" y="78">-</text>
	<text font-family="Lucida Grande" font-size="9" fill="#000000" xml:space="preserve" x="540" y="78">name : String</text>
	<text font-family="Lucida Grande" font-size="9" fill="#000000" xml:space="preserve" font-weight="bold" x="529" y="92">-</text>
	<text font-family="Lucida Grande" font-size="9" fill="#000000" xml:space="preserve" x="540" y="92">replicable : Boolean</text>
	<text font-family="Lucida Grande" font-size="9" fill="#000000" xml:space="preserve" font-weight="bold" x="529" y="106">-</text>
	<text font-family="Lucida Grande" font-size="9" fill="#000000" xml:space="preserve" x="540" y="106">gate : Boolean</text>
	<line stroke="black" stroke-opacity="1" x1="525" y1="111" x2="731" y2="111" />
	<text font-family="Lucida Grande" font-size="9" fill="#000000" xml:space="preserve" font-weight="bold" x="529" y="122">+</text>
	<text font-family="Lucida Grande" font-size="9" fill="#000000" xml:space="preserve" x="540" y="122">connect(other : VirtualPort) : Connection</text>
	<text font-family="Lucida Grande" font-size="9" fill="#000000" xml:space="preserve" font-weight="bold" x="529" y="136">+</text>
	<text font-family="Lucida Grande" font-size="9" fill="#000000" xml:space="preserve" x="540" y="136">disconnect( : Connection) : Boolean</text>
	<text font-family="Lucida Grande" font-size="9" fill="#000000" xml:space="preserve" font-weight="bold" x="529" y="150">+</text>
	<text font-family="Lucida Grande" font-size="9" fill="#000000" xml:space="preserve" x="540" y="150">connectable(other : VirtualPort) : Boolean</text>
	<text font-family="Lucida Grande" font-size="9" fill="#000000" xml:space="preserve" font-weight="bold" x="529" y="164">+</text>
	<text font-family="Lucida Grande" font-size="9" fill="#000000" xml:space="preserve" x="540" y="164">available() : Boolean</text>
	<text font-family="Lucida Grande" font-size="9" fill="#000000" xml:space="preserve" font-weight="bold" x="529" y="178">#</text>
	<text font-family="Lucida Grande" font-size="9" fill="#000000" xml:space="preserve" x="540" y="178">compatible( : VirtualPort) : Boolean</text>
</g>
<g>
	<rect fill="#808080" stroke="none" stroke-opacity="1" x="952" y="224" width="3" height="31" />
	<rect fill="#808080" stroke="none" stroke-opacity="1" x="896" y="252" width="59" height="3" />
	<rect fill="#ffffc0" stroke="black" stroke-width="1" stroke-opacity="1" x="892" y="220" width="60" height="32" />
	<text font-family="Lucida Grande" font-size="9" fill="#000000" xml:space="preserve" font-weight="bold" text-anchor="middle" x="922" y="231">Connection</text>
	<line stroke="black" stroke-opacity="1" x1="892" y1="236" x2="952" y2="236" />
	<line stroke="black" stroke-opacity="1" x1="892" y1="244" x2="952" y2="244" />
</g>
<g>
	<rect fill="#808080" stroke="none" stroke-opacity="1" x="654" y="407" width="3" height="75" />
	<rect fill="#808080" stroke="none" stroke-opacity="1" x="562" y="479" width="95" height="3" />
	<rect fill="#ffffc0" stroke="black" stroke-width="1" stroke-opacity="1" x="558" y="403" width="96" height="76" />
	<text font-family="Lucida Grande" font-size="9" fill="#000000" xml:space="preserve" font-weight="bold" text-anchor="middle" x="606" y="414">Dimmer</text>
	<line stroke="black" stroke-opacity="1" x1="558" y1="419" x2="654" y2="419" />
	<text font-family="Lucida Grande" font-size="9" fill="#000000" xml:space="preserve" font-weight="bold" x="562" y="430">-</text>
	<text font-family="Lucida Grande" font-size="9" fill="#000000" xml:space="preserve" x="573" y="430">min : Real</text>
	<text font-family="Lucida Grande" font-size="9" fill="#000000" xml:space="preserve" font-weight="bold" x="562" y="444">-</text>
	<text font-family="Lucida Grande" font-size="9" fill="#000000" xml:space="preserve" x="573" y="444">max : Real</text>
	<line stroke="black" stroke-opacity="1" x1="558" y1="449" x2="654" y2="449" />
	<text font-family="Lucida Grande" font-size="9" fill="#000000" xml:space="preserve" font-weight="bold" x="562" y="460">+</text>
	<text font-family="Lucida Grande" font-size="9" fill="#000000" xml:space="preserve" x="573" y="460">value() : Real</text>
	<text font-family="Lucida Grande" font-size="9" fill="#000000" xml:space="preserve" font-weight="bold" x="562" y="474">+</text>
	<text font-family="Lucida Grande" font-size="9" fill="#000000" xml:space="preserve" x="573" y="474">setValue(v : Real)</text>
</g>
<g>
	<rect fill="#808080" stroke="none" stroke-opacity="1" x="897" y="401" width="3" height="47" />
	<rect fill="#808080" stroke="none" stroke-opacity="1" x="793" y="445" width="107" height="3" />
	<rect fill="#ffffc0" stroke="black" stroke-width="1" stroke-opacity="1" x="789" y="397" width="108" height="48" />
	<text font-family="Lucida Grande" font-size="9" fill="#000000" xml:space="preserve" font-weight="bold" text-anchor="middle" x="843" y="408">Selector</text>
	<line stroke="black" stroke-opacity="1" x1="789" y1="413" x2="897" y2="413" />
	<text font-family="Lucida Grande" font-size="9" fill="#000000" xml:space="preserve" font-weight="bold" x="793" y="424">-</text>
	<text font-family="Lucida Grande" font-size="9" fill="#000000" xml:space="preserve" x="804" y="424">choices : Integer [*]</text>
	<line stroke="black" stroke-opacity="1" x1="789" y1="429" x2="897" y2="429" />
	<text font-family="Lucida Grande" font-size="9" fill="#000000" xml:space="preserve" font-weight="bold" x="793" y="440">+</text>
	<text font-family="Lucida Grande" font-size="9" fill="#000000" xml:space="preserve" x="804" y="440">choice() : Integer</text>
</g>
<g>
	<rect fill="#808080" stroke="none" stroke-opacity="1" x="636" y="282" width="3" height="39" />
	<rect fill="#808080" stroke="none" stroke-opacity="1" x="594" y="318" width="45" height="3" />
	<rect fill="#ffffc0" stroke="black" stroke-width="1" stroke-opacity="1" x="590" y="278" width="46" height="40" />
	<text font-family="Lucida Grande" font-size="9" fill="#000000" xml:space="preserve" font-weight="bold" text-anchor="middle" x="613" y="289">InPort</text>
	<line stroke="black" stroke-opacity="1" x1="590" y1="294" x2="636" y2="294" />
	<line stroke="black" stroke-opacity="1" x1="590" y1="302" x2="636" y2="302" />
	<text font-family="Lucida Grande" font-size="9" fill="#000000" xml:space="preserve" font-weight="bold" x="594" y="313">+</text>
	<text font-family="Lucida Grande" font-size="9" fill="#000000" xml:space="preserve" x="605" y="313">fetch()</text>
</g>
<g>
	<rect fill="#808080" stroke="none" stroke-opacity="1" x="882" y="310" width="3" height="31" />
	<rect fill="#808080" stroke="none" stroke-opacity="1" x="842" y="338" width="43" height="3" />
	<rect fill="#ffffc0" stroke="black" stroke-width="1" stroke-opacity="1" x="838" y="306" width="44" height="32" />
	<text font-family="Lucida Grande" font-size="9" fill="#000000" xml:space="preserve" font-weight="bold" text-anchor="middle" x="860" y="317">OutPort</text>
	<line stroke="black" stroke-opacity="1" x1="838" y1="322" x2="882" y2="322" />
	<line stroke="black" stroke-opacity="1" x1="838" y1="330" x2="882" y2="330" />
</g>
<g>
	<rect fill="#808080" stroke="none" stroke-opacity="1" x="966" y="91" width="3" height="53" />
	<rect fill="#808080" stroke="none" stroke-opacity="1" x="876" y="141" width="93" height="3" />
	<rect fill="#ffffc0" stroke="black" stroke-width="1" stroke-opacity="1" x="872" y="87" width="94" height="54" />
	<text font-family="Lucida Grande" font-size="9" fill="#000000" xml:space="preserve" font-weight="bold" text-anchor="middle" x="919" y="98">Buffer</text>
	<line stroke="black" stroke-opacity="1" x1="872" y1="103" x2="966" y2="103" />
	<line stroke="black" stroke-opacity="1" x1="872" y1="111" x2="966" y2="111" />
	<text font-family="Lucida Grande" font-size="9" fill="#000000" xml:space="preserve" font-weight="bold" x="876" y="122">+</text>
	<text font-family="Lucida Grande" font-size="9" fill="#000000" xml:space="preserve" x="887" y="122">length() : Integer</text>
	<text font-family="Lucida Grande" font-size="9" fill="#000000" xml:space="preserve" font-weight="bold" x="876" y="136">+</text>
	<text font-family="Lucida Grande" font-size="9" fill="#000000" xml:space="preserve" x="887" y="136">data() : Real [*]</text>
</g>
<g>
	<rect fill="#808080" stroke="none" stroke-opacity="1" x="221" y="378" width="3" height="39" />
	<rect fill="#808080" stroke="none" stroke-opacity="1" x="61" y="414" width="163" height="3" />
	<rect fill="#ffffc0" stroke="black" stroke-width="1" stroke-opacity="1" x="57" y="374" width="164" height="40" />
	<text font-family="Lucida Grande" font-size="9" fill="#000000" xml:space="preserve" font-weight="bold" font-style="italic" text-anchor="middle" x="139" y="385">WaveGenerator</text>
	<line stroke="black" stroke-opacity="1" x1="57" y1="390" x2="221" y2="390" />
	<line stroke="black" stroke-opacity="1" x1="57" y1="398" x2="221" y2="398" />
	<text font-family="Lucida Grande" font-size="9" fill="#000000" xml:space="preserve" font-weight="bold" x="61" y="409">+</text>
	<text font-family="Lucida Grande" font-size="9" fill="#000000" xml:space="preserve" font-style="italic" x="72" y="409">generate(in : Buffer, out : Buffer)</text>
</g>
<g>
	<rect fill="#808080" stroke="none" stroke-opacity="1" x="107" y="468" width="3" height="31" />
	<rect fill="#808080" stroke="none" stroke-opacity="1" x="71" y="496" width="39" height="3" />
	<rect fill="#ffffc0" stroke="black" stroke-width="1" stroke-opacity="1" x="67" y="464" width="40" height="32" />
	<text font-family="Lucida Grande" font-size="9" fill="#000000" xml:space="preserve" font-weight="bold" text-anchor="middle" x="87" y="475">Square</text>
	<line stroke="black" stroke-opacity="1" x1="67" y1="480" x2="107" y2="480" />
	<line stroke="black" stroke-opacity="1" x1="67" y1="488" x2="107" y2="488" />
</g>
<g>
	<rect fill="#808080" stroke="none" stroke-opacity="1" x="237" y="469" width="3" height="31" />
	<rect fill="#808080" stroke="none" stroke-opacity="1" x="201" y="497" width="39" height="3" />
	<rect fill="#ffffc0" stroke="black" stroke-width="1" stroke-opacity="1" x="197" y="465" width="40" height="32" />
	<text font-family="Lucida Grande" font-size="9" fill="#000000" xml:space="preserve" font-weight="bold" text-anchor="middle" x="217" y="476">Saw</text>
	<line stroke="black" stroke-opacity="1" x1="197" y1="481" x2="237" y2="481" />
	<line stroke="black" stroke-opacity="1" x1="197" y1="489" x2="237" y2="489" />
</g>
<g>
	<line stroke="black" stroke-opacity="1" x1="557" y1="446" x2="554" y2="437" />
	<line stroke="black" stroke-opacity="1" x1="557" y1="446" x2="548" y2="448" />
	<line stroke="black" stroke-opacity="1" x1="269" y1="279" x2="557" y2="446" />
	<polygon fill="#000000" stroke="black" stroke-opacity="1" points="269,279 277,276 279,285 271,287" />
</g>
<g>
	<text font-family="Lucida Grande" font-size="9" fill="#000000" xml:space="preserve" x="203" y="113">modules</text>
</g>
<g>
	<text font-family="Lucida Grande" font-size="9" fill="#000000" xml:space="preserve" x="245" y="142">*</text>
</g>
<g>
	<text font-family="Lucida Grande" font-size="9" fill="#000000" xml:space="preserve" x="815" y="216">connections</text>
</g>
<g>
	<text font-family="Lucida Grande" font-size="9" fill="#000000" xml:space="preserve" x="876" y="245">*</text>
</g>
<g>
	<text font-family="Lucida Grande" font-size="9" fill="#000000" xml:space="preserve" x="653" y="285">target</text>
</g>
<g>
	<text font-family="Lucida Grande" font-size="9" fill="#000000" xml:space="preserve" x="662" y="304">1</text>
</g>
<g>
	<text font-family="Lucida Grande" font-size="9" fill="#000000" xml:space="preserve" x="896" y="293">source</text>
</g>
<g>
	<text font-family="Lucida Grande" font-size="9" fill="#000000" xml:space="preserve" x="875" y="292">1</text>
</g>
<g>
	<text font-family="Lucida Grande" font-size="9" fill="#000000" xml:space="preserve" x="574" y="311">*</text>
</g>
<g>
	<text font-family="Lucida Grande" font-size="9" fill="#000000" xml:space="preserve" x="822" y="336">*</text>
</g>
<g>
	<text font-family="Lucida Grande" font-size="9" fill="#000000" xml:space="preserve" x="830" y="111">buffer</text>
</g>
<g>
	<text font-family="Lucida Grande" font-size="9" fill="#000000" xml:space="preserve" x="854" y="140">1</text>
</g>
<g>
	<text font-family="Lucida Grande" font-size="9" fill="#000000" xml:space="preserve" x="173" y="164">sortedModules</text>
</g>
<g>
	<text font-family="Lucida Grande" font-size="9" fill="#000000" xml:space="preserve" x="245" y="182">*</text>
</g>
<g>
	<text font-family="Lucida Grande" font-size="9" fill="#000000" xml:space="preserve" x="185" y="366">waveGenerator</text>
</g>
<g>
	<text font-family="Lucida Grande" font-size="9" fill="#000000" xml:space="preserve" x="159" y="366">1</text>
</g>
<g>
	<text font-family="Lucida Grande" font-size="9" fill="#000000" xml:space="preserve" x="534" y="454">k</text>
</g>
<g>
	<text font-family="Lucida Grande" font-size="9" fill="#000000" xml:space="preserve" x="751" y="413">sape</text>
</g>
<g>
	<text font-family="Lucida Grande" font-size="9" fill="#000000" xml:space="preserve" x="508" y="398">cutFreq</text>
</g>
<g>
	<text font-family="Lucida Grande" font-size="9" fill="#000000" xml:space="preserve" x="728" y="396">filterType</text>
</g>
</svg>
