<?xml version="1.0" encoding="UTF-8" standalone="no"?>
<!-- Created with Bouml (http://bouml.free.fr/) -->
<!DOCTYPE svg PUBLIC "-//W3C//DTD SVG 1.1//EN" "http://www.w3.org/Graphics/SVG/1.1/DTD/svg11.dtd">
<svg width="1123" height="819" version="1.1" xmlns="http://www.w3.org/2000/svg">
<g>
	<rect fill="#808080" stroke="none" stroke-opacity="1" x="703" y="363" width="3" height="65" />
	<rect fill="#808080" stroke="none" stroke-opacity="1" x="627" y="425" width="79" height="3" />
	<rect fill="#ffffc0" stroke="black" stroke-width="1" stroke-opacity="1" x="623" y="359" width="80" height="66" />
	<text font-family="Helvetica" font-size="9" fill="#000000" xml:space="preserve" font-weight="bold" text-anchor="middle" x="663" y="370">InPort</text>
	<line stroke="black" stroke-opacity="1" x1="623" y1="379" x2="703" y2="379" />
	<line stroke="black" stroke-opacity="1" x1="623" y1="387" x2="703" y2="387" />
	<text font-family="Helvetica" font-size="9" fill="#000000" xml:space="preserve" font-weight="bold" x="627" y="398">+</text>
	<text font-family="Helvetica" font-size="9" fill="#000000" xml:space="preserve" x="641" y="398">out() : bool</text>
	<text font-family="Helvetica" font-size="9" fill="#000000" xml:space="preserve" font-weight="bold" x="627" y="416">+</text>
	<text font-family="Helvetica" font-size="9" fill="#000000" xml:space="preserve" x="641" y="416">fetch()</text>
</g>
<g>
	<rect fill="#808080" stroke="none" stroke-opacity="1" x="384" y="24" width="3" height="35" />
	<rect fill="#808080" stroke="none" stroke-opacity="1" x="328" y="56" width="59" height="3" />
	<rect fill="#ffffc0" stroke="black" stroke-width="1" stroke-opacity="1" x="324" y="20" width="60" height="36" />
	<text font-family="Helvetica" font-size="9" fill="#000000" xml:space="preserve" font-weight="bold" text-anchor="middle" x="354" y="31">SynthPro</text>
	<line stroke="black" stroke-opacity="1" x1="324" y1="40" x2="384" y2="40" />
	<line stroke="black" stroke-opacity="1" x1="324" y1="48" x2="384" y2="48" />
</g>
<g>
	<rect fill="#808080" stroke="none" stroke-opacity="1" x="1107" y="90" width="3" height="65" />
	<rect fill="#808080" stroke="none" stroke-opacity="1" x="1015" y="152" width="95" height="3" />
	<rect fill="#ffffc0" stroke="black" stroke-width="1" stroke-opacity="1" x="1011" y="86" width="96" height="66" />
	<text font-family="Helvetica" font-size="9" fill="#000000" xml:space="preserve" font-weight="bold" text-anchor="middle" x="1059" y="97">Buffer</text>
	<line stroke="black" stroke-opacity="1" x1="1011" y1="106" x2="1107" y2="106" />
	<line stroke="black" stroke-opacity="1" x1="1011" y1="114" x2="1107" y2="114" />
	<text font-family="Helvetica" font-size="9" fill="#000000" xml:space="preserve" font-weight="bold" x="1015" y="125">+</text>
	<text font-family="Helvetica" font-size="9" fill="#000000" xml:space="preserve" x="1029" y="125">data() : qreal[]</text>
	<text font-family="Helvetica" font-size="9" fill="#000000" xml:space="preserve" font-weight="bold" x="1015" y="143">+</text>
	<text font-family="Helvetica" font-size="9" fill="#000000" xml:space="preserve" x="1029" y="143">length() : int</text>
</g>
<g>
	<rect fill="#808080" stroke="none" stroke-opacity="1" x="542" y="181" width="3" height="101" />
	<rect fill="#808080" stroke="none" stroke-opacity="1" x="352" y="279" width="193" height="3" />
	<rect fill="#ffffc0" stroke="black" stroke-width="1" stroke-opacity="1" x="348" y="177" width="194" height="102" />
	<text font-family="Helvetica" font-size="9" fill="#000000" xml:space="preserve" font-weight="bold" font-style="italic" text-anchor="middle" x="445" y="188">Module</text>
	<line stroke="black" stroke-opacity="1" x1="348" y1="197" x2="542" y2="197" />
	<line stroke="black" stroke-opacity="1" x1="348" y1="205" x2="542" y2="205" />
	<text font-family="Helvetica" font-size="9" fill="#000000" xml:space="preserve" font-weight="bold" x="352" y="216">+</text>
	<text font-family="Helvetica" font-size="9" fill="#000000" xml:space="preserve" x="366" y="216">requirements() : QList&lt;Module&gt;</text>
	<text font-family="Helvetica" font-size="9" fill="#000000" xml:space="preserve" font-weight="bold" x="352" y="234">+</text>
	<text font-family="Helvetica" font-size="9" fill="#000000" xml:space="preserve" x="366" y="234">process()</text>
	<text font-family="Helvetica" font-size="9" fill="#000000" xml:space="preserve" font-weight="bold" x="352" y="252">#</text>
	<text font-family="Helvetica" font-size="9" fill="#000000" xml:space="preserve" font-style="italic" x="366" y="252">ownProcess()</text>
	<text font-family="Helvetica" font-size="9" fill="#000000" xml:space="preserve" font-weight="bold" x="352" y="270">#</text>
	<text font-family="Helvetica" font-size="9" fill="#000000" xml:space="preserve" x="366" y="270">fetchInput()</text>
</g>
<g>
	<rect fill="#808080" stroke="none" stroke-opacity="1" x="882" y="50" width="3" height="203" />
	<rect fill="#808080" stroke="none" stroke-opacity="1" x="640" y="250" width="245" height="3" />
	<rect fill="#ffffc0" stroke="black" stroke-width="1" stroke-opacity="1" x="636" y="46" width="246" height="204" />
	<text font-family="Helvetica" font-size="9" fill="#000000" xml:space="preserve" font-weight="bold" font-style="italic" text-anchor="middle" x="759" y="57">VirtualPort</text>
	<line stroke="black" stroke-opacity="1" x1="636" y1="66" x2="882" y2="66" />
	<text font-family="Helvetica" font-size="9" fill="#000000" xml:space="preserve" font-weight="bold" x="640" y="77">-</text>
	<text font-family="Helvetica" font-size="9" fill="#000000" xml:space="preserve" x="654" y="77">name : QString</text>
	<text font-family="Helvetica" font-size="9" fill="#000000" xml:space="preserve" font-weight="bold" x="640" y="95">-</text>
	<text font-family="Helvetica" font-size="9" fill="#000000" xml:space="preserve" x="654" y="95">replicable : bool</text>
	<text font-family="Helvetica" font-size="9" fill="#000000" xml:space="preserve" font-weight="bold" x="640" y="113">-</text>
	<text font-family="Helvetica" font-size="9" fill="#000000" xml:space="preserve" x="654" y="113">gate : bool</text>
	<line stroke="black" stroke-opacity="1" x1="636" y1="122" x2="882" y2="122" />
	<text font-family="Helvetica" font-size="9" fill="#000000" xml:space="preserve" font-weight="bold" x="640" y="133">+</text>
	<text font-family="Helvetica" font-size="9" fill="#000000" xml:space="preserve" x="654" y="133">connect(port : VirtualPort) : Connection</text>
	<text font-family="Helvetica" font-size="9" fill="#000000" xml:space="preserve" font-weight="bold" x="640" y="151">+</text>
	<text font-family="Helvetica" font-size="9" fill="#000000" xml:space="preserve" x="654" y="151">disconnect( : Connection)</text>
	<text font-family="Helvetica" font-size="9" fill="#000000" xml:space="preserve" font-weight="bold" x="640" y="169">+</text>
	<text font-family="Helvetica" font-size="9" fill="#000000" xml:space="preserve" x="654" y="169">connectable(other : VirtualPort) : bool</text>
	<text font-family="Helvetica" font-size="9" fill="#000000" xml:space="preserve" font-weight="bold" x="640" y="187">+</text>
	<text font-family="Helvetica" font-size="9" fill="#000000" xml:space="preserve" x="654" y="187">available() : bool</text>
	<text font-family="Helvetica" font-size="9" fill="#000000" xml:space="preserve" font-weight="bold" x="640" y="205">#</text>
	<text font-family="Helvetica" font-size="9" fill="#000000" xml:space="preserve" x="654" y="205">compatible(other : VirtualPort) : bool</text>
	<text font-family="Helvetica" font-size="9" fill="#000000" xml:space="preserve" font-weight="bold" x="640" y="223">+</text>
	<text font-family="Helvetica" font-size="9" fill="#000000" xml:space="preserve" font-style="italic" x="654" y="223">out() : bool</text>
	<text font-family="Helvetica" font-size="9" fill="#000000" xml:space="preserve" font-weight="bold" x="640" y="241">+</text>
	<text font-family="Helvetica" font-size="9" fill="#000000" xml:space="preserve" x="654" y="241">&lt;&lt;signal&gt;&gt;</text>
	<text font-family="Helvetica" font-size="9" fill="#000000" xml:space="preserve" x="722" y="241">connectionsChanged() : void</text>
</g>
<g>
	<rect fill="#808080" stroke="none" stroke-opacity="1" x="323" y="603" width="3" height="35" />
	<rect fill="#808080" stroke="none" stroke-opacity="1" x="279" y="635" width="47" height="3" />
	<rect fill="#ffffc0" stroke="black" stroke-width="1" stroke-opacity="1" x="275" y="599" width="48" height="36" />
	<text font-family="Helvetica" font-size="9" fill="#000000" xml:space="preserve" font-weight="bold" text-anchor="middle" x="299" y="610">Square</text>
	<line stroke="black" stroke-opacity="1" x1="275" y1="619" x2="323" y2="619" />
	<line stroke="black" stroke-opacity="1" x1="275" y1="627" x2="323" y2="627" />
</g>
<g>
	<rect fill="#808080" stroke="none" stroke-opacity="1" x="393" y="599" width="3" height="35" />
	<rect fill="#808080" stroke="none" stroke-opacity="1" x="357" y="631" width="39" height="3" />
	<rect fill="#ffffc0" stroke="black" stroke-width="1" stroke-opacity="1" x="353" y="595" width="40" height="36" />
	<text font-family="Helvetica" font-size="9" fill="#000000" xml:space="preserve" font-weight="bold" text-anchor="middle" x="373" y="606">Saw</text>
	<line stroke="black" stroke-opacity="1" x1="353" y1="615" x2="393" y2="615" />
	<line stroke="black" stroke-opacity="1" x1="353" y1="623" x2="393" y2="623" />
</g>
<g>
	<rect fill="#808080" stroke="none" stroke-opacity="1" x="856" y="617" width="3" height="137" />
	<rect fill="#808080" stroke="none" stroke-opacity="1" x="698" y="751" width="161" height="3" />
	<rect fill="#ffffc0" stroke="black" stroke-width="1" stroke-opacity="1" x="694" y="613" width="162" height="138" />
	<text font-family="Helvetica" font-size="9" fill="#000000" xml:space="preserve" font-weight="bold" text-anchor="middle" x="775" y="624">Factory</text>
	<line stroke="black" stroke-opacity="1" x1="694" y1="633" x2="856" y2="633" />
	<line stroke="black" stroke-opacity="1" x1="694" y1="641" x2="856" y2="641" />
	<text font-family="Helvetica" font-size="9" fill="#000000" xml:space="preserve" font-weight="bold" x="698" y="652">+</text>
	<text font-family="Helvetica" font-size="9" fill="#000000" xml:space="preserve" x="712" y="652">createVCO() : VCO</text>
	<text font-family="Helvetica" font-size="9" fill="#000000" xml:space="preserve" font-weight="bold" x="698" y="670">+</text>
	<text font-family="Helvetica" font-size="9" fill="#000000" xml:space="preserve" x="712" y="670">createVCF() : VCF</text>
	<text font-family="Helvetica" font-size="9" fill="#000000" xml:space="preserve" font-weight="bold" x="698" y="688">+</text>
	<text font-family="Helvetica" font-size="9" fill="#000000" xml:space="preserve" x="712" y="688">createInPort() : InPort</text>
	<text font-family="Helvetica" font-size="9" fill="#000000" xml:space="preserve" font-weight="bold" x="698" y="706">+</text>
	<text font-family="Helvetica" font-size="9" fill="#000000" xml:space="preserve" x="712" y="706">createOutPort() : OutPort</text>
	<text font-family="Helvetica" font-size="9" fill="#000000" xml:space="preserve" font-weight="bold" x="698" y="724">+</text>
	<text font-family="Helvetica" font-size="9" fill="#000000" xml:space="preserve" x="712" y="724">createSelector() : Selector</text>
	<text font-family="Helvetica" font-size="9" fill="#000000" xml:space="preserve" font-weight="bold" x="698" y="742">+</text>
	<text font-family="Helvetica" font-size="9" fill="#000000" xml:space="preserve" x="712" y="742">createDimmer() : Dimmer</text>
</g>
<g>
	<rect fill="#808080" stroke="none" stroke-opacity="1" x="883" y="447" width="3" height="47" />
	<rect fill="#808080" stroke="none" stroke-opacity="1" x="807" y="491" width="79" height="3" />
	<rect fill="#ffffc0" stroke="black" stroke-width="1" stroke-opacity="1" x="803" y="443" width="80" height="48" />
	<text font-family="Helvetica" font-size="9" fill="#000000" xml:space="preserve" font-weight="bold" text-anchor="middle" x="843" y="454">OutPort</text>
	<line stroke="black" stroke-opacity="1" x1="803" y1="463" x2="883" y2="463" />
	<line stroke="black" stroke-opacity="1" x1="803" y1="471" x2="883" y2="471" />
	<text font-family="Helvetica" font-size="9" fill="#000000" xml:space="preserve" font-weight="bold" x="807" y="482">+</text>
	<text font-family="Helvetica" font-size="9" fill="#000000" xml:space="preserve" x="821" y="482">out() : bool</text>
</g>
<g>
	<rect fill="#808080" stroke="none" stroke-opacity="1" x="245" y="131" width="3" height="121" />
	<rect fill="#808080" stroke="none" stroke-opacity="1" x="17" y="249" width="231" height="3" />
	<rect fill="#ffffc0" stroke="black" stroke-width="1" stroke-opacity="1" x="13" y="127" width="232" height="122" />
	<text font-family="Helvetica" font-size="9" fill="#000000" xml:space="preserve" text-anchor="middle" x="129" y="138">&lt;&lt;singleton&gt;&gt;</text>
	<text font-family="Helvetica" font-size="9" fill="#000000" xml:space="preserve" font-weight="bold" text-anchor="middle" x="129" y="158">Sequencer</text>
	<line stroke="black" stroke-opacity="1" x1="13" y1="167" x2="245" y2="167" />
	<line stroke="black" stroke-opacity="1" x1="13" y1="175" x2="245" y2="175" />
	<text font-family="Helvetica" font-size="9" fill="#000000" xml:space="preserve" font-weight="bold" x="17" y="186">+</text>
	<text font-family="Helvetica" font-size="9" fill="#000000" xml:space="preserve" x="31" y="186">&lt;&lt;slot&gt;&gt;</text>
	<text font-family="Helvetica" font-size="9" fill="#000000" xml:space="preserve" x="85" y="186">scheduleModules()</text>
	<text font-family="Helvetica" font-size="9" fill="#000000" xml:space="preserve" font-weight="bold" x="17" y="204">+</text>
	<text font-family="Helvetica" font-size="9" fill="#000000" xml:space="preserve" x="31" y="204">process()</text>
	<text font-family="Helvetica" font-size="9" fill="#000000" xml:space="preserve" font-weight="bold" x="17" y="222">#</text>
	<text font-family="Helvetica" font-size="9" fill="#000000" xml:space="preserve" x="31" y="222">findWells()</text>
	<text font-family="Helvetica" font-size="9" fill="#000000" xml:space="preserve" font-weight="bold" x="17" y="240">#</text>
	<text font-family="Helvetica" font-size="9" fill="#000000" xml:space="preserve" x="31" y="240">scheduleModules(n : QList&lt;Modules&gt;)</text>
</g>
<g>
	<rect fill="#808080" stroke="none" stroke-opacity="1" x="378" y="324" width="3" height="47" />
	<rect fill="#808080" stroke="none" stroke-opacity="1" x="252" y="368" width="129" height="3" />
	<rect fill="#ffffc0" stroke="black" stroke-width="1" stroke-opacity="1" x="248" y="320" width="130" height="48" />
	<text font-family="Helvetica" font-size="9" fill="#000000" xml:space="preserve" font-weight="bold" text-anchor="middle" x="313" y="331">VCO</text>
	<line stroke="black" stroke-opacity="1" x1="248" y1="340" x2="378" y2="340" />
	<line stroke="black" stroke-opacity="1" x1="248" y1="348" x2="378" y2="348" />
	<text font-family="Helvetica" font-size="9" fill="#000000" xml:space="preserve" font-weight="bold" x="252" y="359">+</text>
	<text font-family="Helvetica" font-size="9" fill="#000000" xml:space="preserve" x="266" y="359">init(factory : Factory)</text>
</g>
<g>
	<rect fill="#808080" stroke="none" stroke-opacity="1" x="481" y="402" width="3" height="35" />
	<rect fill="#808080" stroke="none" stroke-opacity="1" x="445" y="434" width="39" height="3" />
	<rect fill="#ffffc0" stroke="black" stroke-width="1" stroke-opacity="1" x="441" y="398" width="40" height="36" />
	<text font-family="Helvetica" font-size="9" fill="#000000" xml:space="preserve" font-weight="bold" text-anchor="middle" x="461" y="409">VCF</text>
	<line stroke="black" stroke-opacity="1" x1="441" y1="418" x2="481" y2="418" />
	<line stroke="black" stroke-opacity="1" x1="441" y1="426" x2="481" y2="426" />
</g>
<g>
	<rect fill="#808080" stroke="none" stroke-opacity="1" x="1045" y="330" width="3" height="35" />
	<rect fill="#808080" stroke="none" stroke-opacity="1" x="977" y="362" width="71" height="3" />
	<rect fill="#ffffc0" stroke="black" stroke-width="1" stroke-opacity="1" x="973" y="326" width="72" height="36" />
	<text font-family="Helvetica" font-size="9" fill="#000000" xml:space="preserve" font-weight="bold" text-anchor="middle" x="1009" y="337">Connection</text>
	<line stroke="black" stroke-opacity="1" x1="973" y1="346" x2="1045" y2="346" />
	<line stroke="black" stroke-opacity="1" x1="973" y1="354" x2="1045" y2="354" />
</g>
<g>
	<rect fill="#808080" stroke="none" stroke-opacity="1" x="251" y="649" width="3" height="157" />
	<rect fill="#808080" stroke="none" stroke-opacity="1" x="57" y="803" width="197" height="3" />
	<rect fill="#ffffc0" stroke="black" stroke-width="1" stroke-opacity="1" x="53" y="645" width="198" height="158" />
	<text font-family="Helvetica" font-size="9" fill="#000000" xml:space="preserve" text-anchor="middle" x="152" y="656">&lt;&lt;singleton&gt;&gt;</text>
	<text font-family="Helvetica" font-size="9" fill="#000000" xml:space="preserve" font-weight="bold" text-anchor="middle" x="152" y="676">Clock</text>
	<line stroke="black" stroke-opacity="1" x1="53" y1="685" x2="251" y2="685" />
	<line stroke="black" stroke-opacity="1" x1="53" y1="693" x2="251" y2="693" />
	<text font-family="Helvetica" font-size="9" fill="#000000" xml:space="preserve" font-weight="bold" x="57" y="704">+</text>
	<text font-family="Helvetica" font-size="9" fill="#000000" xml:space="preserve" x="71" y="704">start()</text>
	<text font-family="Helvetica" font-size="9" fill="#000000" xml:space="preserve" font-weight="bold" x="57" y="722">+</text>
	<text font-family="Helvetica" font-size="9" fill="#000000" xml:space="preserve" x="71" y="722">pause()</text>
	<text font-family="Helvetica" font-size="9" fill="#000000" xml:space="preserve" font-weight="bold" x="57" y="740">+</text>
	<text font-family="Helvetica" font-size="9" fill="#000000" xml:space="preserve" x="71" y="740">started() : bool</text>
	<text font-family="Helvetica" font-size="9" fill="#000000" xml:space="preserve" font-weight="bold" x="57" y="758">+</text>
	<text font-family="Helvetica" font-size="9" fill="#000000" xml:space="preserve" x="71" y="758">registerFastClock( : Module)</text>
	<text font-family="Helvetica" font-size="9" fill="#000000" xml:space="preserve" font-weight="bold" x="57" y="776">+</text>
	<text font-family="Helvetica" font-size="9" fill="#000000" xml:space="preserve" x="71" y="776">unregister( : Module)</text>
	<text font-family="Helvetica" font-size="9" fill="#000000" xml:space="preserve" font-weight="bold" x="57" y="794">-</text>
	<text font-family="Helvetica" font-size="9" fill="#000000" xml:space="preserve" x="71" y="794">&lt;&lt;slot&gt;&gt;</text>
	<text font-family="Helvetica" font-size="9" fill="#000000" xml:space="preserve" x="125" y="794">internalTimerExpired()</text>
</g>
<g>
	<rect fill="#808080" stroke="none" stroke-opacity="1" x="600" y="659" width="3" height="139" />
	<rect fill="#808080" stroke="none" stroke-opacity="1" x="418" y="795" width="185" height="3" />
	<rect fill="#ffffc0" stroke="black" stroke-width="1" stroke-opacity="1" x="414" y="655" width="186" height="140" />
	<text font-family="Helvetica" font-size="9" fill="#000000" xml:space="preserve" text-anchor="middle" x="507" y="666">&lt;&lt;singleton&gt;&gt;</text>
	<text font-family="Helvetica" font-size="9" fill="#000000" xml:space="preserve" font-weight="bold" text-anchor="middle" x="507" y="686">AudioDeviceProvider</text>
	<line stroke="black" stroke-opacity="1" x1="414" y1="695" x2="600" y2="695" />
	<line stroke="black" stroke-opacity="1" x1="414" y1="703" x2="600" y2="703" />
	<text font-family="Helvetica" font-size="9" fill="#000000" xml:space="preserve" font-weight="bold" x="418" y="714">+</text>
	<text font-family="Helvetica" font-size="9" fill="#000000" xml:space="preserve" x="432" y="714">initializeAudioOutput() : bool</text>
	<text font-family="Helvetica" font-size="9" fill="#000000" xml:space="preserve" font-weight="bold" x="418" y="732">+</text>
	<text font-family="Helvetica" font-size="9" fill="#000000" xml:space="preserve" x="432" y="732">device() : QIODevice</text>
	<text font-family="Helvetica" font-size="9" fill="#000000" xml:space="preserve" font-weight="bold" x="418" y="750">+</text>
	<text font-family="Helvetica" font-size="9" fill="#000000" xml:space="preserve" x="432" y="750">releaseDevice()</text>
	<text font-family="Helvetica" font-size="9" fill="#000000" xml:space="preserve" font-weight="bold" x="418" y="768">+</text>
	<text font-family="Helvetica" font-size="9" fill="#000000" xml:space="preserve" x="432" y="768">audioFormat() : QAudioFormat</text>
	<text font-family="Helvetica" font-size="9" fill="#000000" xml:space="preserve" font-weight="bold" x="418" y="786">+</text>
	<text font-family="Helvetica" font-size="9" fill="#000000" xml:space="preserve" x="432" y="786">audioOutput() : QAudioOutput</text>
</g>
<g>
	<rect fill="#808080" stroke="none" stroke-opacity="1" x="149" y="362" width="3" height="59" />
	<rect fill="#808080" stroke="none" stroke-opacity="1" x="61" y="418" width="91" height="3" />
	<rect fill="#ffffc0" stroke="black" stroke-width="1" stroke-opacity="1" x="57" y="358" width="92" height="60" />
	<text font-family="Helvetica" font-size="9" fill="#000000" xml:space="preserve" font-weight="bold" text-anchor="middle" x="103" y="369">Selector</text>
	<line stroke="black" stroke-opacity="1" x1="57" y1="378" x2="149" y2="378" />
	<text font-family="Helvetica" font-size="9" fill="#000000" xml:space="preserve" font-weight="bold" x="61" y="389">-</text>
	<text font-family="Helvetica" font-size="9" fill="#000000" xml:space="preserve" x="75" y="389">choices : int[]</text>
	<line stroke="black" stroke-opacity="1" x1="57" y1="398" x2="149" y2="398" />
	<text font-family="Helvetica" font-size="9" fill="#000000" xml:space="preserve" font-weight="bold" x="61" y="409">+</text>
	<text font-family="Helvetica" font-size="9" fill="#000000" xml:space="preserve" x="75" y="409">choice() : int</text>
</g>
<g>
	<rect fill="#808080" stroke="none" stroke-opacity="1" x="165" y="496" width="3" height="77" />
	<rect fill="#808080" stroke="none" stroke-opacity="1" x="77" y="570" width="91" height="3" />
	<rect fill="#ffffc0" stroke="black" stroke-width="1" stroke-opacity="1" x="73" y="492" width="92" height="78" />
	<text font-family="Helvetica" font-size="9" fill="#000000" xml:space="preserve" font-weight="bold" text-anchor="middle" x="119" y="503">Dimmer</text>
	<line stroke="black" stroke-opacity="1" x1="73" y1="512" x2="165" y2="512" />
	<text font-family="Helvetica" font-size="9" fill="#000000" xml:space="preserve" font-weight="bold" x="77" y="523">-</text>
	<text font-family="Helvetica" font-size="9" fill="#000000" xml:space="preserve" x="91" y="523">min : float</text>
	<text font-family="Helvetica" font-size="9" fill="#000000" xml:space="preserve" font-weight="bold" x="77" y="541">-</text>
	<text font-family="Helvetica" font-size="9" fill="#000000" xml:space="preserve" x="91" y="541">max : float</text>
	<line stroke="black" stroke-opacity="1" x1="73" y1="550" x2="165" y2="550" />
	<text font-family="Helvetica" font-size="9" fill="#000000" xml:space="preserve" font-weight="bold" x="77" y="561">+</text>
	<text font-family="Helvetica" font-size="9" fill="#000000" xml:space="preserve" x="91" y="561">value() : float</text>
</g>
<g>
	<rect fill="#808080" stroke="none" stroke-opacity="1" x="422" y="517" width="3" height="47" />
	<rect fill="#808080" stroke="none" stroke-opacity="1" x="232" y="561" width="193" height="3" />
	<rect fill="#ffffc0" stroke="black" stroke-width="1" stroke-opacity="1" x="228" y="513" width="194" height="48" />
	<text font-family="Helvetica" font-size="9" fill="#000000" xml:space="preserve" font-weight="bold" font-style="italic" text-anchor="middle" x="325" y="524">WaveGenerator</text>
	<line stroke="black" stroke-opacity="1" x1="228" y1="533" x2="422" y2="533" />
	<line stroke="black" stroke-opacity="1" x1="228" y1="541" x2="422" y2="541" />
	<text font-family="Helvetica" font-size="9" fill="#000000" xml:space="preserve" font-weight="bold" x="232" y="552">+</text>
	<text font-family="Helvetica" font-size="9" fill="#000000" xml:space="preserve" font-style="italic" x="246" y="552">generate(in : Buffer, out : Buffer)</text>
</g>
<g>
	<line stroke="black" stroke-opacity="1" x1="546" y1="202" x2="553" y2="206" />
	<line stroke="black" stroke-opacity="1" x1="546" y1="202" x2="550" y2="194" />
	<line stroke="black" stroke-opacity="1" x1="635" y1="181" x2="546" y2="202" />
</g>
<g>
	<line stroke="black" stroke-opacity="1" x1="546" y1="281" x2="619" y2="319" />
</g>
<g>
	<line stroke="black" stroke-opacity="1" x1="654" y1="358" x2="654" y2="349" />
	<line stroke="black" stroke-opacity="1" x1="654" y1="358" x2="645" y2="357" />
	<line stroke="black" stroke-opacity="1" x1="619" y1="319" x2="654" y2="358" />
</g>
<g>
	<line stroke="black" stroke-opacity="1" x1="92" y1="644" x2="46" y2="585" />
</g>
<g>
	<line stroke="black" stroke-opacity="1" x1="46" y1="585" x2="46" y2="339" />
</g>
<g>
	<line stroke="black" stroke-opacity="1" x1="93" y1="253" x2="84" y2="255" />
	<line stroke="black" stroke-opacity="1" x1="93" y1="253" x2="95" y2="261" />
	<line stroke="black" stroke-opacity="1" x1="46" y1="339" x2="93" y2="253" />
</g>
<g>
	<line stroke="black" stroke-opacity="1" x1="223" y1="126" x2="323" y2="59" />
</g>
<g>
	<line stroke="black" stroke-opacity="1" x1="678" y1="358" x2="715" y2="259" />
	<line stroke="black" stroke-opacity="1" x1="718" y1="254" x2="710" y2="257" />
	<line stroke="black" stroke-opacity="1" x1="718" y1="254" x2="721" y2="261" />
	<line stroke="black" stroke-opacity="1" x1="710" y1="257" x2="721" y2="261" />
</g>
<g>
	<line stroke="black" stroke-opacity="1" x1="546" y1="245" x2="790" y2="346" />
</g>
<g>
	<line stroke="black" stroke-opacity="1" x1="820" y1="442" x2="823" y2="434" />
	<line stroke="black" stroke-opacity="1" x1="820" y1="442" x2="812" y2="438" />
	<line stroke="black" stroke-opacity="1" x1="790" y1="346" x2="820" y2="442" />
</g>
<g>
	<line stroke="black" stroke-opacity="1" x1="841" y1="442" x2="790" y2="259" />
	<line stroke="black" stroke-opacity="1" x1="789" y1="254" x2="784" y2="261" />
	<line stroke="black" stroke-opacity="1" x1="789" y1="254" x2="796" y2="258" />
	<line stroke="black" stroke-opacity="1" x1="784" y1="261" x2="796" y2="258" />
</g>
<g>
	<line stroke="black" stroke-opacity="1" x1="365" y1="60" x2="421" y2="176" />
	<polygon fill="#000000" stroke="black" stroke-opacity="1" points="365,60 373,62 370,70 362,68" />
</g>
<g>
	<line stroke="black" stroke-opacity="1" x1="343" y1="319" x2="377" y2="287" />
	<line stroke="black" stroke-opacity="1" x1="382" y1="283" x2="373" y2="282" />
	<line stroke="black" stroke-opacity="1" x1="382" y1="283" x2="381" y2="291" />
	<line stroke="black" stroke-opacity="1" x1="373" y1="282" x2="381" y2="291" />
</g>
<g>
	<line stroke="black" stroke-opacity="1" x1="461" y1="397" x2="451" y2="288" />
	<line stroke="black" stroke-opacity="1" x1="451" y1="283" x2="445" y2="289" />
	<line stroke="black" stroke-opacity="1" x1="451" y1="283" x2="457" y2="288" />
	<line stroke="black" stroke-opacity="1" x1="445" y1="289" x2="457" y2="288" />
</g>
<g>
	<line stroke="black" stroke-opacity="1" x1="347" y1="372" x2="492" y2="493" />
	<polygon fill="#000000" stroke="black" stroke-opacity="1" points="347,372 355,371 356,379 347,380" />
</g>
<g>
	<line stroke="black" stroke-opacity="1" x1="492" y1="493" x2="802" y2="490" />
</g>
<g>
	<line stroke="black" stroke-opacity="1" x1="985" y1="325" x2="983" y2="316" />
	<line stroke="black" stroke-opacity="1" x1="985" y1="325" x2="976" y2="326" />
	<line stroke="black" stroke-opacity="1" x1="886" y1="248" x2="985" y2="325" />
</g>
<g>
	<line stroke="black" stroke-opacity="1" x1="707" y1="386" x2="713" y2="391" />
	<line stroke="black" stroke-opacity="1" x1="707" y1="386" x2="712" y2="379" />
	<line stroke="black" stroke-opacity="1" x1="972" y1="350" x2="707" y2="386" />
</g>
<g>
	<line stroke="black" stroke-opacity="1" x1="880" y1="442" x2="888" y2="443" />
	<line stroke="black" stroke-opacity="1" x1="880" y1="442" x2="881" y2="433" />
	<line stroke="black" stroke-opacity="1" x1="980" y1="366" x2="880" y2="442" />
</g>
<g>
	<line stroke="black" stroke-opacity="1" x1="347" y1="216" x2="341" y2="209" />
	<line stroke="black" stroke-opacity="1" x1="347" y1="216" x2="340" y2="221" />
	<line stroke="black" stroke-opacity="1" x1="249" y1="205" x2="347" y2="216" />
</g>
<g>
	<line stroke="black" stroke-opacity="1" x1="483" y1="438" x2="510" y2="465" />
	<polygon fill="#000000" stroke="black" stroke-opacity="1" points="483,438 491,438 491,446 483,446" />
</g>
<g>
	<line stroke="black" stroke-opacity="1" x1="510" y1="465" x2="802" y2="469" />
</g>
<g>
	<line stroke="black" stroke-opacity="1" x1="382" y1="355" x2="484" y2="372" />
	<polygon fill="#000000" stroke="black" stroke-opacity="1" points="382,355 388,350 393,356 386,361" />
</g>
<g>
	<line stroke="black" stroke-opacity="1" x1="484" y1="372" x2="622" y2="368" />
</g>
<g>
	<line stroke="black" stroke-opacity="1" x1="1010" y1="124" x2="1003" y2="118" />
	<line stroke="black" stroke-opacity="1" x1="1010" y1="124" x2="1004" y2="130" />
	<line stroke="black" stroke-opacity="1" x1="886" y1="136" x2="1010" y2="124" />
	<polygon fill="#000000" stroke="black" stroke-opacity="1" points="886,136 891,129 897,134 892,141" />
</g>
<g>
	<line stroke="black" stroke-opacity="1" x1="485" y1="415" x2="622" y2="392" />
	<polygon fill="#000000" stroke="black" stroke-opacity="1" points="485,415 489,408 496,413 491,419" />
</g>
<g>
	<line stroke="black" stroke-opacity="1" x1="485" y1="425" x2="622" y2="409" />
	<polygon fill="#000000" stroke="black" stroke-opacity="1" points="485,425 490,418 496,423 491,430" />
</g>
<g>
	<line stroke="black" stroke-opacity="1" x1="247" y1="359" x2="153" y2="378" />
	<polygon fill="#000000" stroke="black" stroke-opacity="1" points="247,359 242,366 235,361 239,354" />
</g>
<g>
	<line stroke="black" stroke-opacity="1" x1="284" y1="372" x2="161" y2="491" />
	<polygon fill="#000000" stroke="black" stroke-opacity="1" points="284,372 283,380 275,380 275,371" />
</g>
<g>
	<line stroke="black" stroke-opacity="1" x1="440" y1="425" x2="169" y2="515" />
	<polygon fill="#000000" stroke="black" stroke-opacity="1" points="440,425 436,432 428,428 432,421" />
</g>
<g>
	<line stroke="black" stroke-opacity="1" x1="316" y1="372" x2="292" y2="512" />
	<polygon fill="#000000" stroke="black" stroke-opacity="1" points="316,372 320,378 313,383 309,376" />
</g>
<g>
	<line stroke="black" stroke-opacity="1" x1="303" y1="598" x2="312" y2="570" />
	<line stroke="black" stroke-opacity="1" x1="315" y1="565" x2="307" y2="568" />
	<line stroke="black" stroke-opacity="1" x1="315" y1="565" x2="318" y2="572" />
	<line stroke="black" stroke-opacity="1" x1="307" y1="568" x2="318" y2="572" />
</g>
<g>
	<line stroke="black" stroke-opacity="1" x1="362" y1="594" x2="346" y2="570" />
	<line stroke="black" stroke-opacity="1" x1="343" y1="565" x2="341" y2="573" />
	<line stroke="black" stroke-opacity="1" x1="343" y1="565" x2="351" y2="566" />
	<line stroke="black" stroke-opacity="1" x1="341" y1="573" x2="351" y2="566" />
</g>
<g>
	<text font-family="Helvetica" font-size="9" fill="#000000" xml:space="preserve" x="556" y="188">module</text>
</g>
<g>
	<text font-family="Helvetica" font-size="9" fill="#000000" xml:space="preserve" x="556" y="217">1</text>
</g>
<g>
	<text font-family="Helvetica" font-size="9" fill="#000000" xml:space="preserve" x="657" y="346">inports</text>
</g>
<g>
	<text font-family="Helvetica" font-size="9" fill="#000000" xml:space="preserve" x="632" y="346">*</text>
</g>
<g>
	<text font-family="Helvetica" font-size="9" fill="#000000" xml:space="preserve" x="99" y="270">sequencer</text>
</g>
<g>
	<text font-family="Helvetica" font-size="9" fill="#000000" xml:space="preserve" x="266" y="41">synthpro</text>
</g>
<g>
	<text font-family="Helvetica" font-size="9" fill="#000000" xml:space="preserve" x="828" y="430">outports</text>
</g>
<g>
	<text font-family="Helvetica" font-size="9" fill="#000000" xml:space="preserve" x="803" y="430">*</text>
</g>
<g>
	<text font-family="Helvetica" font-size="9" fill="#000000" xml:space="preserve" x="428" y="164">modules</text>
</g>
<g>
	<text font-family="Helvetica" font-size="9" fill="#000000" xml:space="preserve" x="403" y="164">*</text>
</g>
<g>
	<text font-family="Helvetica" font-size="9" fill="#000000" xml:space="preserve" x="775" y="478">out</text>
</g>
<g>
	<text font-family="Helvetica" font-size="9" fill="#000000" xml:space="preserve" x="909" y="320">connections</text>
</g>
<g>
	<text font-family="Helvetica" font-size="9" fill="#000000" xml:space="preserve" x="970" y="349">*</text>
</g>
<g>
	<text font-family="Helvetica" font-size="9" fill="#000000" xml:space="preserve" x="717" y="373">target</text>
</g>
<g>
	<text font-family="Helvetica" font-size="9" fill="#000000" xml:space="preserve" x="717" y="402">1</text>
</g>
<g>
	<text font-family="Helvetica" font-size="9" fill="#000000" xml:space="preserve" x="890" y="423">source</text>
</g>
<g>
	<text font-family="Helvetica" font-size="9" fill="#000000" xml:space="preserve" x="890" y="452">1</text>
</g>
<g>
	<text font-family="Helvetica" font-size="9" fill="#000000" xml:space="preserve" x="256" y="205">sortedModules</text>
</g>
<g>
	<text font-family="Helvetica" font-size="9" fill="#000000" xml:space="preserve" x="332" y="234">*</text>
</g>
<g>
	<text font-family="Helvetica" font-size="9" fill="#000000" xml:space="preserve" x="775" y="457">out</text>
</g>
<g>
	<text font-family="Helvetica" font-size="9" fill="#000000" xml:space="preserve" x="599" y="356">fm</text>
</g>
<g>
	<text font-family="Helvetica" font-size="9" fill="#000000" xml:space="preserve" x="969" y="112">buffer</text>
</g>
<g>
	<text font-family="Helvetica" font-size="9" fill="#000000" xml:space="preserve" x="993" y="141">1</text>
</g>
<g>
	<text font-family="Helvetica" font-size="9" fill="#000000" xml:space="preserve" x="602" y="379">in</text>
</g>
<g>
	<text font-family="Helvetica" font-size="9" fill="#000000" xml:space="preserve" x="591" y="396">freq</text>
</g>
<g>
	<text font-family="Helvetica" font-size="9" fill="#000000" xml:space="preserve" x="163" y="364">shape</text>
</g>
<g>
	<text font-family="Helvetica" font-size="9" fill="#000000" xml:space="preserve" x="171" y="470">k</text>
</g>
<g>
	<text font-family="Helvetica" font-size="9" fill="#000000" xml:space="preserve" x="179" y="500">k</text>
</g>
<g>
	<text font-family="Helvetica" font-size="9" fill="#000000" xml:space="preserve" x="303" y="500">generator</text>
</g>
</svg>
