<?xml version="1.0" encoding="UTF-8" standalone="no"?>
<!-- Created with Bouml (http://bouml.free.fr/) -->
<!DOCTYPE svg PUBLIC "-//W3C//DTD SVG 1.1//EN" "http://www.w3.org/Graphics/SVG/1.1/DTD/svg11.dtd">
<svg width="1036" height="536" version="1.1" xmlns="http://www.w3.org/2000/svg">
<g>
	<rect fill="none" stroke="black" stroke-width="1" stroke-opacity="1" x="201" y="29" width="101" height="19" />
	<rect fill="none" stroke="black" stroke-width="1" stroke-opacity="1" x="201" y="48" width="254" height="255" />
	<text font-family="Helvetica" font-size="9" fill="#000000" xml:space="preserve" text-anchor="middle" x="328" y="60">module</text>
</g>
<g>
	<rect fill="none" stroke="black" stroke-width="1" stroke-opacity="1" x="500" y="8" width="209" height="19" />
	<rect fill="none" stroke="black" stroke-width="1" stroke-opacity="1" x="500" y="27" width="524" height="495" />
	<text font-family="Helvetica" font-size="9" fill="#000000" xml:space="preserve" text-anchor="middle" x="762" y="39">component</text>
</g>
<g>
	<rect fill="#808080" stroke="none" stroke-opacity="1" x="427" y="92" width="3" height="101" />
	<rect fill="#808080" stroke="none" stroke-opacity="1" x="265" y="190" width="165" height="3" />
	<rect fill="#ffffc0" stroke="black" stroke-width="1" stroke-opacity="1" x="261" y="88" width="166" height="102" />
	<text font-family="Helvetica" font-size="9" fill="#000000" xml:space="preserve" font-weight="bold" font-style="italic" text-anchor="middle" x="344" y="99">Module</text>
	<line stroke="black" stroke-opacity="1" x1="261" y1="108" x2="427" y2="108" />
	<line stroke="black" stroke-opacity="1" x1="261" y1="116" x2="427" y2="116" />
	<text font-family="Helvetica" font-size="9" fill="#000000" xml:space="preserve" font-weight="bold" x="265" y="127">+</text>
	<text font-family="Helvetica" font-size="9" fill="#000000" xml:space="preserve" x="279" y="127">requirements() : Module [*]</text>
	<text font-family="Helvetica" font-size="9" fill="#000000" xml:space="preserve" font-weight="bold" x="265" y="145">+</text>
	<text font-family="Helvetica" font-size="9" fill="#000000" xml:space="preserve" x="279" y="145">process()</text>
	<text font-family="Helvetica" font-size="9" fill="#000000" xml:space="preserve" font-weight="bold" x="265" y="163">#</text>
	<text font-family="Helvetica" font-size="9" fill="#000000" xml:space="preserve" x="279" y="163">fetchInput()</text>
	<text font-family="Helvetica" font-size="9" fill="#000000" xml:space="preserve" font-weight="bold" x="265" y="181">#</text>
	<text font-family="Helvetica" font-size="9" fill="#000000" xml:space="preserve" font-style="italic" x="279" y="181">ownProcess()</text>
</g>
<g>
	<rect fill="#808080" stroke="none" stroke-opacity="1" x="265" y="255" width="3" height="35" />
	<rect fill="#808080" stroke="none" stroke-opacity="1" x="229" y="287" width="39" height="3" />
	<rect fill="#ffffc0" stroke="black" stroke-width="1" stroke-opacity="1" x="225" y="251" width="40" height="36" />
	<text font-family="Helvetica" font-size="9" fill="#000000" xml:space="preserve" font-weight="bold" text-anchor="middle" x="245" y="262">VCO</text>
	<line stroke="black" stroke-opacity="1" x1="225" y1="271" x2="265" y2="271" />
	<line stroke="black" stroke-opacity="1" x1="225" y1="279" x2="265" y2="279" />
</g>
<g>
	<rect fill="#808080" stroke="none" stroke-opacity="1" x="415" y="248" width="3" height="35" />
	<rect fill="#808080" stroke="none" stroke-opacity="1" x="379" y="280" width="39" height="3" />
	<rect fill="#ffffc0" stroke="black" stroke-width="1" stroke-opacity="1" x="375" y="244" width="40" height="36" />
	<text font-family="Helvetica" font-size="9" fill="#000000" xml:space="preserve" font-weight="bold" text-anchor="middle" x="395" y="255">VCF</text>
	<line stroke="black" stroke-opacity="1" x1="375" y1="264" x2="415" y2="264" />
	<line stroke="black" stroke-opacity="1" x1="375" y1="272" x2="415" y2="272" />
</g>
<g>
	<rect fill="none" stroke="black" stroke-width="1" stroke-opacity="1" x="28" y="308" width="113" height="19" />
	<rect fill="none" stroke="black" stroke-width="1" stroke-opacity="1" x="28" y="327" width="286" height="197" />
	<text font-family="Helvetica" font-size="9" fill="#000000" xml:space="preserve" text-anchor="middle" x="171" y="339">wavegenerator</text>
</g>
<g>
	<rect fill="#808080" stroke="none" stroke-opacity="1" x="192" y="185" width="3" height="65" />
	<rect fill="#808080" stroke="none" stroke-opacity="1" x="10" y="247" width="185" height="3" />
	<rect fill="#ffffc0" stroke="black" stroke-width="1" stroke-opacity="1" x="6" y="181" width="186" height="66" />
	<text font-family="Helvetica" font-size="9" fill="#000000" xml:space="preserve" font-weight="bold" text-anchor="middle" x="99" y="192">Sequencer</text>
	<line stroke="black" stroke-opacity="1" x1="6" y1="201" x2="192" y2="201" />
	<line stroke="black" stroke-opacity="1" x1="6" y1="209" x2="192" y2="209" />
	<text font-family="Helvetica" font-size="9" fill="#000000" xml:space="preserve" font-weight="bold" x="10" y="220">+</text>
	<text font-family="Helvetica" font-size="9" fill="#000000" xml:space="preserve" x="24" y="220">process()</text>
	<text font-family="Helvetica" font-size="9" fill="#000000" xml:space="preserve" font-weight="bold" x="10" y="238">+</text>
	<text font-family="Helvetica" font-size="9" fill="#000000" xml:space="preserve" x="24" y="238">scheduleModules( : SynthPro)</text>
</g>
<g>
	<rect fill="#808080" stroke="none" stroke-opacity="1" x="156" y="68" width="3" height="35" />
	<rect fill="#808080" stroke="none" stroke-opacity="1" x="100" y="100" width="59" height="3" />
	<rect fill="#ffffc0" stroke="black" stroke-width="1" stroke-opacity="1" x="96" y="64" width="60" height="36" />
	<text font-family="Helvetica" font-size="9" fill="#000000" xml:space="preserve" font-weight="bold" text-anchor="middle" x="126" y="75">SynthPro</text>
	<line stroke="black" stroke-opacity="1" x1="96" y1="84" x2="156" y2="84" />
	<line stroke="black" stroke-opacity="1" x1="96" y1="92" x2="156" y2="92" />
</g>
<g>
	<line stroke="black" stroke-opacity="1" x1="891" y1="225" x2="887" y2="217" />
	<line stroke="black" stroke-opacity="1" x1="891" y1="225" x2="883" y2="228" />
	<line stroke="black" stroke-opacity="1" x1="775" y1="181" x2="891" y2="225" />
	<polygon fill="#000000" stroke="black" stroke-opacity="1" points="775,181 782,177 786,185 778,188" />
</g>
<g>
	<line stroke="black" stroke-opacity="1" x1="650" y1="296" x2="657" y2="300" />
	<line stroke="black" stroke-opacity="1" x1="650" y1="296" x2="654" y2="288" />
	<line stroke="black" stroke-opacity="1" x1="891" y1="247" x2="650" y2="296" />
</g>
<g>
	<line stroke="black" stroke-opacity="1" x1="260" y1="164" x2="252" y2="160" />
	<line stroke="black" stroke-opacity="1" x1="260" y1="164" x2="256" y2="171" />
	<line stroke="black" stroke-opacity="1" x1="196" y1="184" x2="260" y2="164" />
</g>
<g>
	<line stroke="black" stroke-opacity="1" x1="192" y1="373" x2="199" y2="370" />
	<line stroke="black" stroke-opacity="1" x1="192" y1="373" x2="189" y2="365" />
	<line stroke="black" stroke-opacity="1" x1="231" y1="291" x2="192" y2="373" />
</g>
<g>
	<line stroke="black" stroke-opacity="1" x1="107" y1="463" x2="130" y2="430" />
	<line stroke="black" stroke-opacity="1" x1="134" y1="426" x2="125" y2="427" />
	<line stroke="black" stroke-opacity="1" x1="134" y1="426" x2="135" y2="434" />
	<line stroke="black" stroke-opacity="1" x1="125" y1="427" x2="135" y2="434" />
</g>
<g>
	<line stroke="black" stroke-opacity="1" x1="204" y1="464" x2="178" y2="430" />
	<line stroke="black" stroke-opacity="1" x1="175" y1="426" x2="173" y2="434" />
	<line stroke="black" stroke-opacity="1" x1="175" y1="426" x2="183" y2="427" />
	<line stroke="black" stroke-opacity="1" x1="173" y1="434" x2="183" y2="427" />
</g>
<g>
	<line stroke="black" stroke-opacity="1" x1="160" y1="91" x2="260" y2="117" />
	<polygon fill="#000000" stroke="black" stroke-opacity="1" points="160,91 167,86 171,94 164,98" />
</g>
<g>
	<line stroke="black" stroke-opacity="1" x1="788" y1="423" x2="783" y2="415" />
	<line stroke="black" stroke-opacity="1" x1="788" y1="423" x2="780" y2="427" />
	<line stroke="black" stroke-opacity="1" x1="269" y1="269" x2="788" y2="423" />
	<polygon fill="#000000" stroke="black" stroke-opacity="1" points="269,269 276,264 280,272 273,276" />
</g>
<g>
	<line stroke="black" stroke-opacity="1" x1="560" y1="402" x2="559" y2="393" />
	<line stroke="black" stroke-opacity="1" x1="560" y1="402" x2="551" y2="402" />
	<line stroke="black" stroke-opacity="1" x1="419" y1="283" x2="560" y2="402" />
	<polygon fill="#000000" stroke="black" stroke-opacity="1" points="419,283 427,282 428,290 419,291" />
</g>
<g>
	<line stroke="black" stroke-opacity="1" x1="788" y1="405" x2="784" y2="397" />
	<line stroke="black" stroke-opacity="1" x1="788" y1="405" x2="780" y2="408" />
	<line stroke="black" stroke-opacity="1" x1="419" y1="271" x2="788" y2="405" />
	<polygon fill="#000000" stroke="black" stroke-opacity="1" points="419,271 426,267 430,275 422,278" />
</g>
<g>
	<line stroke="black" stroke-opacity="1" x1="431" y1="165" x2="525" y2="230" />
	<polygon fill="#000000" stroke="black" stroke-opacity="1" points="431,165 439,163 440,171 432,173" />
</g>
<g>
	<line stroke="black" stroke-opacity="1" x1="525" y1="230" x2="837" y2="317" />
</g>
<g>
	<line stroke="black" stroke-opacity="1" x1="261" y1="250" x2="299" y2="198" />
	<line stroke="black" stroke-opacity="1" x1="303" y1="194" x2="294" y2="195" />
	<line stroke="black" stroke-opacity="1" x1="303" y1="194" x2="304" y2="202" />
	<line stroke="black" stroke-opacity="1" x1="294" y1="195" x2="304" y2="202" />
</g>
<g>
	<line stroke="black" stroke-opacity="1" x1="387" y1="243" x2="368" y2="199" />
	<line stroke="black" stroke-opacity="1" x1="366" y1="194" x2="362" y2="201" />
	<line stroke="black" stroke-opacity="1" x1="366" y1="194" x2="373" y2="197" />
	<line stroke="black" stroke-opacity="1" x1="362" y1="201" x2="373" y2="197" />
</g>
<g>
	<line stroke="black" stroke-opacity="1" x1="871" y1="123" x2="864" y2="117" />
	<line stroke="black" stroke-opacity="1" x1="871" y1="123" x2="865" y2="129" />
	<line stroke="black" stroke-opacity="1" x1="775" y1="129" x2="871" y2="123" />
	<polygon fill="#000000" stroke="black" stroke-opacity="1" points="775,129 780,122 786,128 781,134" />
</g>
<g>
	<line stroke="black" stroke-opacity="1" x1="880" y1="305" x2="888" y2="303" />
	<line stroke="black" stroke-opacity="1" x1="880" y1="305" x2="878" y2="296" />
	<line stroke="black" stroke-opacity="1" x1="914" y1="260" x2="880" y2="305" />
</g>
<g>
	<line stroke="black" stroke-opacity="1" x1="623" y1="277" x2="631" y2="228" />
	<line stroke="black" stroke-opacity="1" x1="632" y1="223" x2="625" y2="227" />
	<line stroke="black" stroke-opacity="1" x1="632" y1="223" x2="636" y2="229" />
	<line stroke="black" stroke-opacity="1" x1="625" y1="227" x2="636" y2="229" />
</g>
<g>
	<line stroke="black" stroke-opacity="1" x1="842" y1="305" x2="753" y2="226" />
	<line stroke="black" stroke-opacity="1" x1="749" y1="223" x2="749" y2="231" />
	<line stroke="black" stroke-opacity="1" x1="749" y1="223" x2="757" y2="222" />
	<line stroke="black" stroke-opacity="1" x1="749" y1="231" x2="757" y2="222" />
</g>
<g>
	<line stroke="black" stroke-opacity="1" x1="431" y1="183" x2="589" y2="288" />
	<polygon fill="#000000" stroke="black" stroke-opacity="1" points="431,183 439,181 440,189 432,191" />
</g>
<g>
	<rect fill="#808080" stroke="none" stroke-opacity="1" x="982" y="91" width="3" height="65" />
	<rect fill="#808080" stroke="none" stroke-opacity="1" x="876" y="153" width="109" height="3" />
	<rect fill="#ffffc0" stroke="black" stroke-width="1" stroke-opacity="1" x="872" y="87" width="110" height="66" />
	<text font-family="Helvetica" font-size="9" fill="#000000" xml:space="preserve" font-weight="bold" text-anchor="middle" x="927" y="98">Buffer</text>
	<line stroke="black" stroke-opacity="1" x1="872" y1="107" x2="982" y2="107" />
	<line stroke="black" stroke-opacity="1" x1="872" y1="115" x2="982" y2="115" />
	<text font-family="Helvetica" font-size="9" fill="#000000" xml:space="preserve" font-weight="bold" x="876" y="126">+</text>
	<text font-family="Helvetica" font-size="9" fill="#000000" xml:space="preserve" x="890" y="126">length() : Integer</text>
	<text font-family="Helvetica" font-size="9" fill="#000000" xml:space="preserve" font-weight="bold" x="876" y="144">+</text>
	<text font-family="Helvetica" font-size="9" fill="#000000" xml:space="preserve" x="890" y="144">data() : Real [*]</text>
</g>
<g>
	<rect fill="#808080" stroke="none" stroke-opacity="1" x="676" y="407" width="3" height="95" />
	<rect fill="#808080" stroke="none" stroke-opacity="1" x="562" y="499" width="117" height="3" />
	<rect fill="#ffffc0" stroke="black" stroke-width="1" stroke-opacity="1" x="558" y="403" width="118" height="96" />
	<text font-family="Helvetica" font-size="9" fill="#000000" xml:space="preserve" font-weight="bold" text-anchor="middle" x="617" y="414">Dimmer</text>
	<line stroke="black" stroke-opacity="1" x1="558" y1="423" x2="676" y2="423" />
	<text font-family="Helvetica" font-size="9" fill="#000000" xml:space="preserve" font-weight="bold" x="562" y="434">-</text>
	<text font-family="Helvetica" font-size="9" fill="#000000" xml:space="preserve" x="576" y="434">min : Real</text>
	<text font-family="Helvetica" font-size="9" fill="#000000" xml:space="preserve" font-weight="bold" x="562" y="452">-</text>
	<text font-family="Helvetica" font-size="9" fill="#000000" xml:space="preserve" x="576" y="452">max : Real</text>
	<line stroke="black" stroke-opacity="1" x1="558" y1="461" x2="676" y2="461" />
	<text font-family="Helvetica" font-size="9" fill="#000000" xml:space="preserve" font-weight="bold" x="562" y="472">+</text>
	<text font-family="Helvetica" font-size="9" fill="#000000" xml:space="preserve" x="576" y="472">value() : Real</text>
	<text font-family="Helvetica" font-size="9" fill="#000000" xml:space="preserve" font-weight="bold" x="562" y="490">+</text>
	<text font-family="Helvetica" font-size="9" fill="#000000" xml:space="preserve" x="576" y="490">setValue(v : Real)</text>
</g>
<g>
	<rect fill="#808080" stroke="none" stroke-opacity="1" x="913" y="401" width="3" height="59" />
	<rect fill="#808080" stroke="none" stroke-opacity="1" x="793" y="457" width="123" height="3" />
	<rect fill="#ffffc0" stroke="black" stroke-width="1" stroke-opacity="1" x="789" y="397" width="124" height="60" />
	<text font-family="Helvetica" font-size="9" fill="#000000" xml:space="preserve" font-weight="bold" text-anchor="middle" x="851" y="408">Selector</text>
	<line stroke="black" stroke-opacity="1" x1="789" y1="417" x2="913" y2="417" />
	<text font-family="Helvetica" font-size="9" fill="#000000" xml:space="preserve" font-weight="bold" x="793" y="428">-</text>
	<text font-family="Helvetica" font-size="9" fill="#000000" xml:space="preserve" x="807" y="428">choices : Integer [*]</text>
	<line stroke="black" stroke-opacity="1" x1="789" y1="437" x2="913" y2="437" />
	<text font-family="Helvetica" font-size="9" fill="#000000" xml:space="preserve" font-weight="bold" x="793" y="448">+</text>
	<text font-family="Helvetica" font-size="9" fill="#000000" xml:space="preserve" x="807" y="448">choice() : Integer</text>
</g>
<g>
	<rect fill="#808080" stroke="none" stroke-opacity="1" x="646" y="282" width="3" height="47" />
	<rect fill="#808080" stroke="none" stroke-opacity="1" x="594" y="326" width="55" height="3" />
	<rect fill="#ffffc0" stroke="black" stroke-width="1" stroke-opacity="1" x="590" y="278" width="56" height="48" />
	<text font-family="Helvetica" font-size="9" fill="#000000" xml:space="preserve" font-weight="bold" text-anchor="middle" x="618" y="289">InPort</text>
	<line stroke="black" stroke-opacity="1" x1="590" y1="298" x2="646" y2="298" />
	<line stroke="black" stroke-opacity="1" x1="590" y1="306" x2="646" y2="306" />
	<text font-family="Helvetica" font-size="9" fill="#000000" xml:space="preserve" font-weight="bold" x="594" y="317">+</text>
	<text font-family="Helvetica" font-size="9" fill="#000000" xml:space="preserve" x="608" y="317">fetch()</text>
</g>
<g>
	<rect fill="#808080" stroke="none" stroke-opacity="1" x="771" y="55" width="3" height="167" />
	<rect fill="#808080" stroke="none" stroke-opacity="1" x="529" y="219" width="245" height="3" />
	<rect fill="#ffffc0" stroke="black" stroke-width="1" stroke-opacity="1" x="525" y="51" width="246" height="168" />
	<text font-family="Helvetica" font-size="9" fill="#000000" xml:space="preserve" font-weight="bold" font-style="italic" text-anchor="middle" x="648" y="62">VirtualPort</text>
	<line stroke="black" stroke-opacity="1" x1="525" y1="71" x2="771" y2="71" />
	<text font-family="Helvetica" font-size="9" fill="#000000" xml:space="preserve" font-weight="bold" x="529" y="82">-</text>
	<text font-family="Helvetica" font-size="9" fill="#000000" xml:space="preserve" x="543" y="82">name : String</text>
	<text font-family="Helvetica" font-size="9" fill="#000000" xml:space="preserve" font-weight="bold" x="529" y="100">-</text>
	<text font-family="Helvetica" font-size="9" fill="#000000" xml:space="preserve" x="543" y="100">replicable : Boolean</text>
	<text font-family="Helvetica" font-size="9" fill="#000000" xml:space="preserve" font-weight="bold" x="529" y="118">-</text>
	<text font-family="Helvetica" font-size="9" fill="#000000" xml:space="preserve" x="543" y="118">gate : Boolean</text>
	<line stroke="black" stroke-opacity="1" x1="525" y1="127" x2="771" y2="127" />
	<text font-family="Helvetica" font-size="9" fill="#000000" xml:space="preserve" font-weight="bold" x="529" y="138">+</text>
	<text font-family="Helvetica" font-size="9" fill="#000000" xml:space="preserve" x="543" y="138">connect(other : VirtualPort) : Connection</text>
	<text font-family="Helvetica" font-size="9" fill="#000000" xml:space="preserve" font-weight="bold" x="529" y="156">+</text>
	<text font-family="Helvetica" font-size="9" fill="#000000" xml:space="preserve" x="543" y="156">disconnect( : Connection) : Boolean</text>
	<text font-family="Helvetica" font-size="9" fill="#000000" xml:space="preserve" font-weight="bold" x="529" y="174">+</text>
	<text font-family="Helvetica" font-size="9" fill="#000000" xml:space="preserve" x="543" y="174">connectable(other : VirtualPort) : Boolean</text>
	<text font-family="Helvetica" font-size="9" fill="#000000" xml:space="preserve" font-weight="bold" x="529" y="192">+</text>
	<text font-family="Helvetica" font-size="9" fill="#000000" xml:space="preserve" x="543" y="192">available() : Boolean</text>
	<text font-family="Helvetica" font-size="9" fill="#000000" xml:space="preserve" font-weight="bold" x="529" y="210">#</text>
	<text font-family="Helvetica" font-size="9" fill="#000000" xml:space="preserve" x="543" y="210">compatible( : VirtualPort) : Boolean</text>
</g>
<g>
	<rect fill="#808080" stroke="none" stroke-opacity="1" x="964" y="224" width="3" height="35" />
	<rect fill="#808080" stroke="none" stroke-opacity="1" x="896" y="256" width="71" height="3" />
	<rect fill="#ffffc0" stroke="black" stroke-width="1" stroke-opacity="1" x="892" y="220" width="72" height="36" />
	<text font-family="Helvetica" font-size="9" fill="#000000" xml:space="preserve" font-weight="bold" text-anchor="middle" x="928" y="231">Connection</text>
	<line stroke="black" stroke-opacity="1" x1="892" y1="240" x2="964" y2="240" />
	<line stroke="black" stroke-opacity="1" x1="892" y1="248" x2="964" y2="248" />
</g>
<g>
	<rect fill="#808080" stroke="none" stroke-opacity="1" x="890" y="310" width="3" height="35" />
	<rect fill="#808080" stroke="none" stroke-opacity="1" x="842" y="342" width="51" height="3" />
	<rect fill="#ffffc0" stroke="black" stroke-width="1" stroke-opacity="1" x="838" y="306" width="52" height="36" />
	<text font-family="Helvetica" font-size="9" fill="#000000" xml:space="preserve" font-weight="bold" text-anchor="middle" x="864" y="317">OutPort</text>
	<line stroke="black" stroke-opacity="1" x1="838" y1="326" x2="890" y2="326" />
	<line stroke="black" stroke-opacity="1" x1="838" y1="334" x2="890" y2="334" />
</g>
<g>
	<rect fill="#808080" stroke="none" stroke-opacity="1" x="115" y="468" width="3" height="35" />
	<rect fill="#808080" stroke="none" stroke-opacity="1" x="71" y="500" width="47" height="3" />
	<rect fill="#ffffc0" stroke="black" stroke-width="1" stroke-opacity="1" x="67" y="464" width="48" height="36" />
	<text font-family="Helvetica" font-size="9" fill="#000000" xml:space="preserve" font-weight="bold" text-anchor="middle" x="91" y="475">Square</text>
	<line stroke="black" stroke-opacity="1" x1="67" y1="484" x2="115" y2="484" />
	<line stroke="black" stroke-opacity="1" x1="67" y1="492" x2="115" y2="492" />
</g>
<g>
	<rect fill="#808080" stroke="none" stroke-opacity="1" x="237" y="469" width="3" height="35" />
	<rect fill="#808080" stroke="none" stroke-opacity="1" x="201" y="501" width="39" height="3" />
	<rect fill="#ffffc0" stroke="black" stroke-width="1" stroke-opacity="1" x="197" y="465" width="40" height="36" />
	<text font-family="Helvetica" font-size="9" fill="#000000" xml:space="preserve" font-weight="bold" text-anchor="middle" x="217" y="476">Saw</text>
	<line stroke="black" stroke-opacity="1" x1="197" y1="485" x2="237" y2="485" />
	<line stroke="black" stroke-opacity="1" x1="197" y1="493" x2="237" y2="493" />
</g>
<g>
	<line stroke="black" stroke-opacity="1" x1="557" y1="457" x2="554" y2="448" />
	<line stroke="black" stroke-opacity="1" x1="557" y1="457" x2="548" y2="459" />
	<line stroke="black" stroke-opacity="1" x1="269" y1="282" x2="557" y2="457" />
	<polygon fill="#000000" stroke="black" stroke-opacity="1" points="269,282 277,279 279,288 271,290" />
</g>
<g>
	<rect fill="#808080" stroke="none" stroke-opacity="1" x="251" y="378" width="3" height="47" />
	<rect fill="#808080" stroke="none" stroke-opacity="1" x="61" y="422" width="193" height="3" />
	<rect fill="#ffffc0" stroke="black" stroke-width="1" stroke-opacity="1" x="57" y="374" width="194" height="48" />
	<text font-family="Helvetica" font-size="9" fill="#000000" xml:space="preserve" font-weight="bold" font-style="italic" text-anchor="middle" x="154" y="385">WaveGenarator</text>
	<line stroke="black" stroke-opacity="1" x1="57" y1="394" x2="251" y2="394" />
	<line stroke="black" stroke-opacity="1" x1="57" y1="402" x2="251" y2="402" />
	<text font-family="Helvetica" font-size="9" fill="#000000" xml:space="preserve" font-weight="bold" x="61" y="413">+</text>
	<text font-family="Helvetica" font-size="9" fill="#000000" xml:space="preserve" font-style="italic" x="75" y="413">generate(in : Buffer, out : Buffer)</text>
</g>
<g>
	<text font-family="Helvetica" font-size="9" fill="#000000" xml:space="preserve" x="203" y="107">modules</text>
</g>
<g>
	<text font-family="Helvetica" font-size="9" fill="#000000" xml:space="preserve" x="245" y="136">*</text>
</g>
<g>
	<text font-family="Helvetica" font-size="9" fill="#000000" xml:space="preserve" x="815" y="216">connections</text>
</g>
<g>
	<text font-family="Helvetica" font-size="9" fill="#000000" xml:space="preserve" x="876" y="245">*</text>
</g>
<g>
	<text font-family="Helvetica" font-size="9" fill="#000000" xml:space="preserve" x="653" y="285">target</text>
</g>
<g>
	<text font-family="Helvetica" font-size="9" fill="#000000" xml:space="preserve" x="245" y="178">*</text>
</g>
<g>
	<text font-family="Helvetica" font-size="9" fill="#000000" xml:space="preserve" x="205" y="361">waveGenerator</text>
</g>
<g>
	<text font-family="Helvetica" font-size="9" fill="#000000" xml:space="preserve" x="178" y="361">1</text>
</g>
<g>
	<text font-family="Helvetica" font-size="9" fill="#000000" xml:space="preserve" x="534" y="454">k</text>
</g>
<g>
	<text font-family="Helvetica" font-size="9" fill="#000000" xml:space="preserve" x="751" y="413">sape</text>
</g>
<g>
	<text font-family="Helvetica" font-size="9" fill="#000000" xml:space="preserve" x="508" y="398">cutFreq</text>
</g>
<g>
	<text font-family="Helvetica" font-size="9" fill="#000000" xml:space="preserve" x="728" y="396">filterType</text>
</g>
<g>
	<text font-family="Helvetica" font-size="9" fill="#000000" xml:space="preserve" x="822" y="336">*</text>
</g>
<g>
	<text font-family="Helvetica" font-size="9" fill="#000000" xml:space="preserve" x="830" y="111">buffer</text>
</g>
<g>
	<text font-family="Helvetica" font-size="9" fill="#000000" xml:space="preserve" x="854" y="140">1</text>
</g>
<g>
	<text font-family="Helvetica" font-size="9" fill="#000000" xml:space="preserve" x="169" y="149">sortedModules</text>
</g>
<g>
	<text font-family="Helvetica" font-size="9" fill="#000000" xml:space="preserve" x="662" y="304">1</text>
</g>
<g>
	<text font-family="Helvetica" font-size="9" fill="#000000" xml:space="preserve" x="896" y="293">source</text>
</g>
<g>
	<text font-family="Helvetica" font-size="9" fill="#000000" xml:space="preserve" x="875" y="292">1</text>
</g>
<g>
	<text font-family="Helvetica" font-size="9" fill="#000000" xml:space="preserve" x="574" y="311">*</text>
</g>
</svg>
