<?xml version="1.0" encoding="UTF-8" standalone="no"?>
<!-- Created with Bouml (http://bouml.free.fr/) -->
<!DOCTYPE svg PUBLIC "-//W3C//DTD SVG 1.1//EN" "http://www.w3.org/Graphics/SVG/1.1/DTD/svg11.dtd">
<svg width="1074" height="675" version="1.1" xmlns="http://www.w3.org/2000/svg">
<g>
	<rect fill="#808080" stroke="none" stroke-opacity="1" x="701" y="334" width="3" height="65" />
	<rect fill="#808080" stroke="none" stroke-opacity="1" x="625" y="396" width="79" height="3" />
	<rect fill="#ffffc0" stroke="black" stroke-width="1" stroke-opacity="1" x="621" y="330" width="80" height="66" />
	<text font-family="Helvetica" font-size="9" fill="#000000" xml:space="preserve" font-weight="bold" text-anchor="middle" x="661" y="341">InPort</text>
	<line stroke="black" stroke-opacity="1" x1="621" y1="350" x2="701" y2="350" />
	<line stroke="black" stroke-opacity="1" x1="621" y1="358" x2="701" y2="358" />
	<text font-family="Helvetica" font-size="9" fill="#000000" xml:space="preserve" font-weight="bold" x="625" y="369">+</text>
	<text font-family="Helvetica" font-size="9" fill="#000000" xml:space="preserve" x="639" y="369">out() : bool</text>
	<text font-family="Helvetica" font-size="9" fill="#000000" xml:space="preserve" font-weight="bold" x="625" y="387">+</text>
	<text font-family="Helvetica" font-size="9" fill="#000000" xml:space="preserve" x="639" y="387">fetch()</text>
</g>
<g>
	<rect fill="#808080" stroke="none" stroke-opacity="1" x="384" y="24" width="3" height="35" />
	<rect fill="#808080" stroke="none" stroke-opacity="1" x="328" y="56" width="59" height="3" />
	<rect fill="#ffffc0" stroke="black" stroke-width="1" stroke-opacity="1" x="324" y="20" width="60" height="36" />
	<text font-family="Helvetica" font-size="9" fill="#000000" xml:space="preserve" font-weight="bold" text-anchor="middle" x="354" y="31">SynthPro</text>
	<line stroke="black" stroke-opacity="1" x1="324" y1="40" x2="384" y2="40" />
	<line stroke="black" stroke-opacity="1" x1="324" y1="48" x2="384" y2="48" />
</g>
<g>
	<rect fill="#808080" stroke="none" stroke-opacity="1" x="1058" y="106" width="3" height="65" />
	<rect fill="#808080" stroke="none" stroke-opacity="1" x="966" y="168" width="95" height="3" />
	<rect fill="#ffffc0" stroke="black" stroke-width="1" stroke-opacity="1" x="962" y="102" width="96" height="66" />
	<text font-family="Helvetica" font-size="9" fill="#000000" xml:space="preserve" font-weight="bold" text-anchor="middle" x="1010" y="113">Buffer</text>
	<line stroke="black" stroke-opacity="1" x1="962" y1="122" x2="1058" y2="122" />
	<line stroke="black" stroke-opacity="1" x1="962" y1="130" x2="1058" y2="130" />
	<text font-family="Helvetica" font-size="9" fill="#000000" xml:space="preserve" font-weight="bold" x="966" y="141">+</text>
	<text font-family="Helvetica" font-size="9" fill="#000000" xml:space="preserve" x="980" y="141">data() : qreal[]</text>
	<text font-family="Helvetica" font-size="9" fill="#000000" xml:space="preserve" font-weight="bold" x="966" y="159">+</text>
	<text font-family="Helvetica" font-size="9" fill="#000000" xml:space="preserve" x="980" y="159">length() : int</text>
</g>
<g>
	<rect fill="#808080" stroke="none" stroke-opacity="1" x="543" y="131" width="3" height="101" />
	<rect fill="#808080" stroke="none" stroke-opacity="1" x="353" y="229" width="193" height="3" />
	<rect fill="#ffffc0" stroke="black" stroke-width="1" stroke-opacity="1" x="349" y="127" width="194" height="102" />
	<text font-family="Helvetica" font-size="9" fill="#000000" xml:space="preserve" font-weight="bold" font-style="italic" text-anchor="middle" x="446" y="138">Module</text>
	<line stroke="black" stroke-opacity="1" x1="349" y1="147" x2="543" y2="147" />
	<line stroke="black" stroke-opacity="1" x1="349" y1="155" x2="543" y2="155" />
	<text font-family="Helvetica" font-size="9" fill="#000000" xml:space="preserve" font-weight="bold" x="353" y="166">+</text>
	<text font-family="Helvetica" font-size="9" fill="#000000" xml:space="preserve" x="367" y="166">requirements() : QList&lt;Module&gt;</text>
	<text font-family="Helvetica" font-size="9" fill="#000000" xml:space="preserve" font-weight="bold" x="353" y="184">+</text>
	<text font-family="Helvetica" font-size="9" fill="#000000" xml:space="preserve" x="367" y="184">process()</text>
	<text font-family="Helvetica" font-size="9" fill="#000000" xml:space="preserve" font-weight="bold" x="353" y="202">#</text>
	<text font-family="Helvetica" font-size="9" fill="#000000" xml:space="preserve" font-style="italic" x="367" y="202">ownProcess()</text>
	<text font-family="Helvetica" font-size="9" fill="#000000" xml:space="preserve" font-weight="bold" x="353" y="220">#</text>
	<text font-family="Helvetica" font-size="9" fill="#000000" xml:space="preserve" x="367" y="220">fetchInput()</text>
</g>
<g>
	<rect fill="#808080" stroke="none" stroke-opacity="1" x="882" y="50" width="3" height="203" />
	<rect fill="#808080" stroke="none" stroke-opacity="1" x="640" y="250" width="245" height="3" />
	<rect fill="#ffffc0" stroke="black" stroke-width="1" stroke-opacity="1" x="636" y="46" width="246" height="204" />
	<text font-family="Helvetica" font-size="9" fill="#000000" xml:space="preserve" font-weight="bold" font-style="italic" text-anchor="middle" x="759" y="57">VirtualPort</text>
	<line stroke="black" stroke-opacity="1" x1="636" y1="66" x2="882" y2="66" />
	<text font-family="Helvetica" font-size="9" fill="#000000" xml:space="preserve" font-weight="bold" x="640" y="77">-</text>
	<text font-family="Helvetica" font-size="9" fill="#000000" xml:space="preserve" x="654" y="77">name : QString</text>
	<text font-family="Helvetica" font-size="9" fill="#000000" xml:space="preserve" font-weight="bold" x="640" y="95">-</text>
	<text font-family="Helvetica" font-size="9" fill="#000000" xml:space="preserve" x="654" y="95">replicable : bool</text>
	<text font-family="Helvetica" font-size="9" fill="#000000" xml:space="preserve" font-weight="bold" x="640" y="113">-</text>
	<text font-family="Helvetica" font-size="9" fill="#000000" xml:space="preserve" x="654" y="113">gate : bool</text>
	<line stroke="black" stroke-opacity="1" x1="636" y1="122" x2="882" y2="122" />
	<text font-family="Helvetica" font-size="9" fill="#000000" xml:space="preserve" font-weight="bold" x="640" y="133">+</text>
	<text font-family="Helvetica" font-size="9" fill="#000000" xml:space="preserve" x="654" y="133">connect(port : VirtualPort) : Connection</text>
	<text font-family="Helvetica" font-size="9" fill="#000000" xml:space="preserve" font-weight="bold" x="640" y="151">+</text>
	<text font-family="Helvetica" font-size="9" fill="#000000" xml:space="preserve" x="654" y="151">disconnect( : Connection)</text>
	<text font-family="Helvetica" font-size="9" fill="#000000" xml:space="preserve" font-weight="bold" x="640" y="169">+</text>
	<text font-family="Helvetica" font-size="9" fill="#000000" xml:space="preserve" x="654" y="169">connectable(other : VirtualPort) : bool</text>
	<text font-family="Helvetica" font-size="9" fill="#000000" xml:space="preserve" font-weight="bold" x="640" y="187">+</text>
	<text font-family="Helvetica" font-size="9" fill="#000000" xml:space="preserve" x="654" y="187">available() : bool</text>
	<text font-family="Helvetica" font-size="9" fill="#000000" xml:space="preserve" font-weight="bold" x="640" y="205">#</text>
	<text font-family="Helvetica" font-size="9" fill="#000000" xml:space="preserve" x="654" y="205">compatible(other : VirtualPort) : bool</text>
	<text font-family="Helvetica" font-size="9" fill="#000000" xml:space="preserve" font-weight="bold" x="640" y="223">+</text>
	<text font-family="Helvetica" font-size="9" fill="#000000" xml:space="preserve" font-style="italic" x="654" y="223">out() : bool</text>
	<text font-family="Helvetica" font-size="9" fill="#000000" xml:space="preserve" font-weight="bold" x="640" y="241">+</text>
	<text font-family="Helvetica" font-size="9" fill="#000000" xml:space="preserve" x="654" y="241">&lt;&lt;signal&gt;&gt;</text>
	<text font-family="Helvetica" font-size="9" fill="#000000" xml:space="preserve" x="722" y="241">connectionsChanged() : void</text>
</g>
<g>
	<rect fill="#808080" stroke="none" stroke-opacity="1" x="354" y="510" width="3" height="35" />
	<rect fill="#808080" stroke="none" stroke-opacity="1" x="310" y="542" width="47" height="3" />
	<rect fill="#ffffc0" stroke="black" stroke-width="1" stroke-opacity="1" x="306" y="506" width="48" height="36" />
	<text font-family="Helvetica" font-size="9" fill="#000000" xml:space="preserve" font-weight="bold" text-anchor="middle" x="330" y="517">Square</text>
	<line stroke="black" stroke-opacity="1" x1="306" y1="526" x2="354" y2="526" />
	<line stroke="black" stroke-opacity="1" x1="306" y1="534" x2="354" y2="534" />
</g>
<g>
	<rect fill="#808080" stroke="none" stroke-opacity="1" x="424" y="506" width="3" height="35" />
	<rect fill="#808080" stroke="none" stroke-opacity="1" x="388" y="538" width="39" height="3" />
	<rect fill="#ffffc0" stroke="black" stroke-width="1" stroke-opacity="1" x="384" y="502" width="40" height="36" />
	<text font-family="Helvetica" font-size="9" fill="#000000" xml:space="preserve" font-weight="bold" text-anchor="middle" x="404" y="513">Saw</text>
	<line stroke="black" stroke-opacity="1" x1="384" y1="522" x2="424" y2="522" />
	<line stroke="black" stroke-opacity="1" x1="384" y1="530" x2="424" y2="530" />
</g>
<g>
	<rect fill="#808080" stroke="none" stroke-opacity="1" x="861" y="480" width="3" height="137" />
	<rect fill="#808080" stroke="none" stroke-opacity="1" x="703" y="614" width="161" height="3" />
	<rect fill="#ffffc0" stroke="black" stroke-width="1" stroke-opacity="1" x="699" y="476" width="162" height="138" />
	<text font-family="Helvetica" font-size="9" fill="#000000" xml:space="preserve" font-weight="bold" text-anchor="middle" x="780" y="487">Factory</text>
	<line stroke="black" stroke-opacity="1" x1="699" y1="496" x2="861" y2="496" />
	<line stroke="black" stroke-opacity="1" x1="699" y1="504" x2="861" y2="504" />
	<text font-family="Helvetica" font-size="9" fill="#000000" xml:space="preserve" font-weight="bold" x="703" y="515">+</text>
	<text font-family="Helvetica" font-size="9" fill="#000000" xml:space="preserve" x="717" y="515">createVCO() : VCO</text>
	<text font-family="Helvetica" font-size="9" fill="#000000" xml:space="preserve" font-weight="bold" x="703" y="533">+</text>
	<text font-family="Helvetica" font-size="9" fill="#000000" xml:space="preserve" x="717" y="533">createVCF() : VCF</text>
	<text font-family="Helvetica" font-size="9" fill="#000000" xml:space="preserve" font-weight="bold" x="703" y="551">+</text>
	<text font-family="Helvetica" font-size="9" fill="#000000" xml:space="preserve" x="717" y="551">createInPort() : InPort</text>
	<text font-family="Helvetica" font-size="9" fill="#000000" xml:space="preserve" font-weight="bold" x="703" y="569">+</text>
	<text font-family="Helvetica" font-size="9" fill="#000000" xml:space="preserve" x="717" y="569">createOutPort() : OutPort</text>
	<text font-family="Helvetica" font-size="9" fill="#000000" xml:space="preserve" font-weight="bold" x="703" y="587">+</text>
	<text font-family="Helvetica" font-size="9" fill="#000000" xml:space="preserve" x="717" y="587">createSelector() : Selector</text>
	<text font-family="Helvetica" font-size="9" fill="#000000" xml:space="preserve" font-weight="bold" x="703" y="605">+</text>
	<text font-family="Helvetica" font-size="9" fill="#000000" xml:space="preserve" x="717" y="605">createDimmer() : Dimmer</text>
</g>
<g>
	<rect fill="#808080" stroke="none" stroke-opacity="1" x="877" y="391" width="3" height="47" />
	<rect fill="#808080" stroke="none" stroke-opacity="1" x="801" y="435" width="79" height="3" />
	<rect fill="#ffffc0" stroke="black" stroke-width="1" stroke-opacity="1" x="797" y="387" width="80" height="48" />
	<text font-family="Helvetica" font-size="9" fill="#000000" xml:space="preserve" font-weight="bold" text-anchor="middle" x="837" y="398">OutPort</text>
	<line stroke="black" stroke-opacity="1" x1="797" y1="407" x2="877" y2="407" />
	<line stroke="black" stroke-opacity="1" x1="797" y1="415" x2="877" y2="415" />
	<text font-family="Helvetica" font-size="9" fill="#000000" xml:space="preserve" font-weight="bold" x="801" y="426">+</text>
	<text font-family="Helvetica" font-size="9" fill="#000000" xml:space="preserve" x="815" y="426">out() : bool</text>
</g>
<g>
	<rect fill="#808080" stroke="none" stroke-opacity="1" x="248" y="65" width="3" height="121" />
	<rect fill="#808080" stroke="none" stroke-opacity="1" x="12" y="183" width="239" height="3" />
	<rect fill="#ffffc0" stroke="black" stroke-width="1" stroke-opacity="1" x="8" y="61" width="240" height="122" />
	<text font-family="Helvetica" font-size="9" fill="#000000" xml:space="preserve" text-anchor="middle" x="128" y="72">&lt;&lt;singleton&gt;&gt;</text>
	<text font-family="Helvetica" font-size="9" fill="#000000" xml:space="preserve" font-weight="bold" text-anchor="middle" x="128" y="92">Sequencer</text>
	<line stroke="black" stroke-opacity="1" x1="8" y1="101" x2="248" y2="101" />
	<line stroke="black" stroke-opacity="1" x1="8" y1="109" x2="248" y2="109" />
	<text font-family="Helvetica" font-size="9" fill="#000000" xml:space="preserve" font-weight="bold" x="12" y="120">+</text>
	<text font-family="Helvetica" font-size="9" fill="#000000" xml:space="preserve" x="26" y="120">&lt;&lt;slot&gt;&gt;</text>
	<text font-family="Helvetica" font-size="9" fill="#000000" xml:space="preserve" x="80" y="120">scheduleModules( : SynthPro)</text>
	<text font-family="Helvetica" font-size="9" fill="#000000" xml:space="preserve" font-weight="bold" x="12" y="138">+</text>
	<text font-family="Helvetica" font-size="9" fill="#000000" xml:space="preserve" x="26" y="138">process()</text>
	<text font-family="Helvetica" font-size="9" fill="#000000" xml:space="preserve" font-weight="bold" x="12" y="156">#</text>
	<text font-family="Helvetica" font-size="9" fill="#000000" xml:space="preserve" x="26" y="156">findWells()</text>
	<text font-family="Helvetica" font-size="9" fill="#000000" xml:space="preserve" font-weight="bold" x="12" y="174">#</text>
	<text font-family="Helvetica" font-size="9" fill="#000000" xml:space="preserve" x="26" y="174">scheduleModules(n : QList&lt;Modules&gt;)</text>
</g>
<g>
	<rect fill="#808080" stroke="none" stroke-opacity="1" x="388" y="279" width="3" height="47" />
	<rect fill="#808080" stroke="none" stroke-opacity="1" x="262" y="323" width="129" height="3" />
	<rect fill="#ffffc0" stroke="black" stroke-width="1" stroke-opacity="1" x="258" y="275" width="130" height="48" />
	<text font-family="Helvetica" font-size="9" fill="#000000" xml:space="preserve" font-weight="bold" text-anchor="middle" x="323" y="286">VCO</text>
	<line stroke="black" stroke-opacity="1" x1="258" y1="295" x2="388" y2="295" />
	<line stroke="black" stroke-opacity="1" x1="258" y1="303" x2="388" y2="303" />
	<text font-family="Helvetica" font-size="9" fill="#000000" xml:space="preserve" font-weight="bold" x="262" y="314">+</text>
	<text font-family="Helvetica" font-size="9" fill="#000000" xml:space="preserve" x="276" y="314">init(factory : Factory)</text>
</g>
<g>
	<rect fill="#808080" stroke="none" stroke-opacity="1" x="489" y="327" width="3" height="35" />
	<rect fill="#808080" stroke="none" stroke-opacity="1" x="453" y="359" width="39" height="3" />
	<rect fill="#ffffc0" stroke="black" stroke-width="1" stroke-opacity="1" x="449" y="323" width="40" height="36" />
	<text font-family="Helvetica" font-size="9" fill="#000000" xml:space="preserve" font-weight="bold" text-anchor="middle" x="469" y="334">VCF</text>
	<line stroke="black" stroke-opacity="1" x1="449" y1="343" x2="489" y2="343" />
	<line stroke="black" stroke-opacity="1" x1="449" y1="351" x2="489" y2="351" />
</g>
<g>
	<rect fill="#808080" stroke="none" stroke-opacity="1" x="996" y="315" width="3" height="35" />
	<rect fill="#808080" stroke="none" stroke-opacity="1" x="928" y="347" width="71" height="3" />
	<rect fill="#ffffc0" stroke="black" stroke-width="1" stroke-opacity="1" x="924" y="311" width="72" height="36" />
	<text font-family="Helvetica" font-size="9" fill="#000000" xml:space="preserve" font-weight="bold" text-anchor="middle" x="960" y="322">Connection</text>
	<line stroke="black" stroke-opacity="1" x1="924" y1="331" x2="996" y2="331" />
	<line stroke="black" stroke-opacity="1" x1="924" y1="339" x2="996" y2="339" />
</g>
<g>
	<rect fill="#808080" stroke="none" stroke-opacity="1" x="230" y="505" width="3" height="157" />
	<rect fill="#808080" stroke="none" stroke-opacity="1" x="36" y="659" width="197" height="3" />
	<rect fill="#ffffc0" stroke="black" stroke-width="1" stroke-opacity="1" x="32" y="501" width="198" height="158" />
	<text font-family="Helvetica" font-size="9" fill="#000000" xml:space="preserve" text-anchor="middle" x="131" y="512">&lt;&lt;singleton&gt;&gt;</text>
	<text font-family="Helvetica" font-size="9" fill="#000000" xml:space="preserve" font-weight="bold" text-anchor="middle" x="131" y="532">Clock</text>
	<line stroke="black" stroke-opacity="1" x1="32" y1="541" x2="230" y2="541" />
	<line stroke="black" stroke-opacity="1" x1="32" y1="549" x2="230" y2="549" />
	<text font-family="Helvetica" font-size="9" fill="#000000" xml:space="preserve" font-weight="bold" x="36" y="560">+</text>
	<text font-family="Helvetica" font-size="9" fill="#000000" xml:space="preserve" x="50" y="560">start()</text>
	<text font-family="Helvetica" font-size="9" fill="#000000" xml:space="preserve" font-weight="bold" x="36" y="578">+</text>
	<text font-family="Helvetica" font-size="9" fill="#000000" xml:space="preserve" x="50" y="578">pause()</text>
	<text font-family="Helvetica" font-size="9" fill="#000000" xml:space="preserve" font-weight="bold" x="36" y="596">+</text>
	<text font-family="Helvetica" font-size="9" fill="#000000" xml:space="preserve" x="50" y="596">started() : bool</text>
	<text font-family="Helvetica" font-size="9" fill="#000000" xml:space="preserve" font-weight="bold" x="36" y="614">+</text>
	<text font-family="Helvetica" font-size="9" fill="#000000" xml:space="preserve" x="50" y="614">registerFastClock( : Module)</text>
	<text font-family="Helvetica" font-size="9" fill="#000000" xml:space="preserve" font-weight="bold" x="36" y="632">+</text>
	<text font-family="Helvetica" font-size="9" fill="#000000" xml:space="preserve" x="50" y="632">unregister( : Module)</text>
	<text font-family="Helvetica" font-size="9" fill="#000000" xml:space="preserve" font-weight="bold" x="36" y="650">-</text>
	<text font-family="Helvetica" font-size="9" fill="#000000" xml:space="preserve" x="50" y="650">&lt;&lt;slot&gt;&gt;</text>
	<text font-family="Helvetica" font-size="9" fill="#000000" xml:space="preserve" x="104" y="650">internalTimerExpired()</text>
</g>
<g>
	<rect fill="#808080" stroke="none" stroke-opacity="1" x="664" y="478" width="3" height="139" />
	<rect fill="#808080" stroke="none" stroke-opacity="1" x="482" y="614" width="185" height="3" />
	<rect fill="#ffffc0" stroke="black" stroke-width="1" stroke-opacity="1" x="478" y="474" width="186" height="140" />
	<text font-family="Helvetica" font-size="9" fill="#000000" xml:space="preserve" text-anchor="middle" x="571" y="485">&lt;&lt;singleton&gt;&gt;</text>
	<text font-family="Helvetica" font-size="9" fill="#000000" xml:space="preserve" font-weight="bold" text-anchor="middle" x="571" y="505">AudioDeviceProvider</text>
	<line stroke="black" stroke-opacity="1" x1="478" y1="514" x2="664" y2="514" />
	<line stroke="black" stroke-opacity="1" x1="478" y1="522" x2="664" y2="522" />
	<text font-family="Helvetica" font-size="9" fill="#000000" xml:space="preserve" font-weight="bold" x="482" y="533">+</text>
	<text font-family="Helvetica" font-size="9" fill="#000000" xml:space="preserve" x="496" y="533">initializeAudioOutput() : bool</text>
	<text font-family="Helvetica" font-size="9" fill="#000000" xml:space="preserve" font-weight="bold" x="482" y="551">+</text>
	<text font-family="Helvetica" font-size="9" fill="#000000" xml:space="preserve" x="496" y="551">device() : QIODevice</text>
	<text font-family="Helvetica" font-size="9" fill="#000000" xml:space="preserve" font-weight="bold" x="482" y="569">+</text>
	<text font-family="Helvetica" font-size="9" fill="#000000" xml:space="preserve" x="496" y="569">releaseDevice()</text>
	<text font-family="Helvetica" font-size="9" fill="#000000" xml:space="preserve" font-weight="bold" x="482" y="587">+</text>
	<text font-family="Helvetica" font-size="9" fill="#000000" xml:space="preserve" x="496" y="587">audioFormat() : QAudioFormat</text>
	<text font-family="Helvetica" font-size="9" fill="#000000" xml:space="preserve" font-weight="bold" x="482" y="605">+</text>
	<text font-family="Helvetica" font-size="9" fill="#000000" xml:space="preserve" x="496" y="605">audioOutput() : QAudioOutput</text>
</g>
<g>
	<rect fill="#808080" stroke="none" stroke-opacity="1" x="173" y="291" width="3" height="59" />
	<rect fill="#808080" stroke="none" stroke-opacity="1" x="85" y="347" width="91" height="3" />
	<rect fill="#ffffc0" stroke="black" stroke-width="1" stroke-opacity="1" x="81" y="287" width="92" height="60" />
	<text font-family="Helvetica" font-size="9" fill="#000000" xml:space="preserve" font-weight="bold" text-anchor="middle" x="127" y="298">Selector</text>
	<line stroke="black" stroke-opacity="1" x1="81" y1="307" x2="173" y2="307" />
	<text font-family="Helvetica" font-size="9" fill="#000000" xml:space="preserve" font-weight="bold" x="85" y="318">-</text>
	<text font-family="Helvetica" font-size="9" fill="#000000" xml:space="preserve" x="99" y="318">choices : int[]</text>
	<line stroke="black" stroke-opacity="1" x1="81" y1="327" x2="173" y2="327" />
	<text font-family="Helvetica" font-size="9" fill="#000000" xml:space="preserve" font-weight="bold" x="85" y="338">+</text>
	<text font-family="Helvetica" font-size="9" fill="#000000" xml:space="preserve" x="99" y="338">choice() : int</text>
</g>
<g>
	<rect fill="#808080" stroke="none" stroke-opacity="1" x="190" y="387" width="3" height="77" />
	<rect fill="#808080" stroke="none" stroke-opacity="1" x="102" y="461" width="91" height="3" />
	<rect fill="#ffffc0" stroke="black" stroke-width="1" stroke-opacity="1" x="98" y="383" width="92" height="78" />
	<text font-family="Helvetica" font-size="9" fill="#000000" xml:space="preserve" font-weight="bold" text-anchor="middle" x="144" y="394">Dimmer</text>
	<line stroke="black" stroke-opacity="1" x1="98" y1="403" x2="190" y2="403" />
	<text font-family="Helvetica" font-size="9" fill="#000000" xml:space="preserve" font-weight="bold" x="102" y="414">-</text>
	<text font-family="Helvetica" font-size="9" fill="#000000" xml:space="preserve" x="116" y="414">min : float</text>
	<text font-family="Helvetica" font-size="9" fill="#000000" xml:space="preserve" font-weight="bold" x="102" y="432">-</text>
	<text font-family="Helvetica" font-size="9" fill="#000000" xml:space="preserve" x="116" y="432">max : float</text>
	<line stroke="black" stroke-opacity="1" x1="98" y1="441" x2="190" y2="441" />
	<text font-family="Helvetica" font-size="9" fill="#000000" xml:space="preserve" font-weight="bold" x="102" y="452">+</text>
	<text font-family="Helvetica" font-size="9" fill="#000000" xml:space="preserve" x="116" y="452">value() : float</text>
</g>
<g>
	<rect fill="#808080" stroke="none" stroke-opacity="1" x="453" y="424" width="3" height="47" />
	<rect fill="#808080" stroke="none" stroke-opacity="1" x="263" y="468" width="193" height="3" />
	<rect fill="#ffffc0" stroke="black" stroke-width="1" stroke-opacity="1" x="259" y="420" width="194" height="48" />
	<text font-family="Helvetica" font-size="9" fill="#000000" xml:space="preserve" font-weight="bold" font-style="italic" text-anchor="middle" x="356" y="431">WaveGenerator</text>
	<line stroke="black" stroke-opacity="1" x1="259" y1="440" x2="453" y2="440" />
	<line stroke="black" stroke-opacity="1" x1="259" y1="448" x2="453" y2="448" />
	<text font-family="Helvetica" font-size="9" fill="#000000" xml:space="preserve" font-weight="bold" x="263" y="459">+</text>
	<text font-family="Helvetica" font-size="9" fill="#000000" xml:space="preserve" font-style="italic" x="277" y="459">generate(in : Buffer, out : Buffer)</text>
</g>
<g>
	<line stroke="black" stroke-opacity="1" x1="547" y1="168" x2="553" y2="173" />
	<line stroke="black" stroke-opacity="1" x1="547" y1="168" x2="552" y2="161" />
	<line stroke="black" stroke-opacity="1" x1="635" y1="161" x2="547" y2="168" />
</g>
<g>
	<line stroke="black" stroke-opacity="1" x1="652" y1="329" x2="650" y2="320" />
	<line stroke="black" stroke-opacity="1" x1="652" y1="329" x2="643" y2="330" />
	<line stroke="black" stroke-opacity="1" x1="509" y1="233" x2="652" y2="329" />
</g>
<g>
	<line stroke="black" stroke-opacity="1" x1="89" y1="500" x2="74" y2="469" />
</g>
<g>
	<line stroke="black" stroke-opacity="1" x1="74" y1="469" x2="46" y2="339" />
</g>
<g>
	<line stroke="black" stroke-opacity="1" x1="103" y1="187" x2="95" y2="190" />
	<line stroke="black" stroke-opacity="1" x1="103" y1="187" x2="106" y2="194" />
	<line stroke="black" stroke-opacity="1" x1="46" y1="339" x2="103" y2="187" />
</g>
<g>
	<line stroke="black" stroke-opacity="1" x1="678" y1="329" x2="707" y2="259" />
	<line stroke="black" stroke-opacity="1" x1="710" y1="254" x2="702" y2="257" />
	<line stroke="black" stroke-opacity="1" x1="710" y1="254" x2="713" y2="261" />
	<line stroke="black" stroke-opacity="1" x1="702" y1="257" x2="713" y2="261" />
</g>
<g>
	<line stroke="black" stroke-opacity="1" x1="547" y1="195" x2="790" y2="346" />
</g>
<g>
	<line stroke="black" stroke-opacity="1" x1="814" y1="386" x2="816" y2="377" />
	<line stroke="black" stroke-opacity="1" x1="814" y1="386" x2="805" y2="383" />
	<line stroke="black" stroke-opacity="1" x1="790" y1="346" x2="814" y2="386" />
</g>
<g>
	<line stroke="black" stroke-opacity="1" x1="835" y1="386" x2="794" y2="259" />
	<line stroke="black" stroke-opacity="1" x1="793" y1="254" x2="789" y2="261" />
	<line stroke="black" stroke-opacity="1" x1="793" y1="254" x2="800" y2="257" />
	<line stroke="black" stroke-opacity="1" x1="789" y1="261" x2="800" y2="257" />
</g>
<g>
	<line stroke="black" stroke-opacity="1" x1="369" y1="60" x2="412" y2="126" />
	<polygon fill="#000000" stroke="black" stroke-opacity="1" points="369,60 377,61 375,70 367,68" />
</g>
<g>
	<line stroke="black" stroke-opacity="1" x1="349" y1="274" x2="383" y2="237" />
	<line stroke="black" stroke-opacity="1" x1="388" y1="233" x2="379" y2="233" />
	<line stroke="black" stroke-opacity="1" x1="388" y1="233" x2="388" y2="241" />
	<line stroke="black" stroke-opacity="1" x1="379" y1="233" x2="388" y2="241" />
</g>
<g>
	<line stroke="black" stroke-opacity="1" x1="463" y1="322" x2="453" y2="238" />
	<line stroke="black" stroke-opacity="1" x1="453" y1="233" x2="447" y2="239" />
	<line stroke="black" stroke-opacity="1" x1="453" y1="233" x2="459" y2="238" />
	<line stroke="black" stroke-opacity="1" x1="447" y1="239" x2="459" y2="238" />
</g>
<g>
	<line stroke="black" stroke-opacity="1" x1="364" y1="327" x2="521" y2="434" />
	<polygon fill="#000000" stroke="black" stroke-opacity="1" points="364,327 372,325 373,333 365,335" />
</g>
<g>
	<line stroke="black" stroke-opacity="1" x1="521" y1="434" x2="796" y2="434" />
</g>
<g>
	<line stroke="black" stroke-opacity="1" x1="939" y1="310" x2="938" y2="301" />
	<line stroke="black" stroke-opacity="1" x1="939" y1="310" x2="930" y2="310" />
	<line stroke="black" stroke-opacity="1" x1="877" y1="254" x2="939" y2="310" />
</g>
<g>
	<line stroke="black" stroke-opacity="1" x1="705" y1="359" x2="711" y2="364" />
	<line stroke="black" stroke-opacity="1" x1="705" y1="359" x2="710" y2="352" />
	<line stroke="black" stroke-opacity="1" x1="923" y1="335" x2="705" y2="359" />
</g>
<g>
	<line stroke="black" stroke-opacity="1" x1="872" y1="386" x2="880" y2="387" />
	<line stroke="black" stroke-opacity="1" x1="872" y1="386" x2="873" y2="377" />
	<line stroke="black" stroke-opacity="1" x1="929" y1="351" x2="872" y2="386" />
</g>
<g>
	<line stroke="black" stroke-opacity="1" x1="348" y1="161" x2="343" y2="154" />
	<line stroke="black" stroke-opacity="1" x1="348" y1="161" x2="341" y2="165" />
	<line stroke="black" stroke-opacity="1" x1="252" y1="145" x2="348" y2="161" />
</g>
<g>
	<line stroke="black" stroke-opacity="1" x1="491" y1="363" x2="539" y2="413" />
	<polygon fill="#000000" stroke="black" stroke-opacity="1" points="491,363 499,363 499,371 490,371" />
</g>
<g>
	<line stroke="black" stroke-opacity="1" x1="539" y1="413" x2="796" y2="413" />
</g>
<g>
	<line stroke="black" stroke-opacity="1" x1="392" y1="301" x2="495" y2="304" />
	<polygon fill="#000000" stroke="black" stroke-opacity="1" points="392,301 398,295 403,301 397,307" />
</g>
<g>
	<line stroke="black" stroke-opacity="1" x1="961" y1="138" x2="954" y2="132" />
	<line stroke="black" stroke-opacity="1" x1="961" y1="138" x2="955" y2="144" />
	<line stroke="black" stroke-opacity="1" x1="886" y1="142" x2="961" y2="138" />
	<polygon fill="#000000" stroke="black" stroke-opacity="1" points="886,142 891,135 897,141 892,147" />
</g>
<g>
	<line stroke="black" stroke-opacity="1" x1="493" y1="338" x2="620" y2="363" />
	<polygon fill="#000000" stroke="black" stroke-opacity="1" points="493,338 500,333 504,340 497,345" />
</g>
<g>
	<line stroke="black" stroke-opacity="1" x1="493" y1="354" x2="620" y2="380" />
	<polygon fill="#000000" stroke="black" stroke-opacity="1" points="493,354 500,349 504,356 497,361" />
</g>
<g>
	<line stroke="black" stroke-opacity="1" x1="257" y1="306" x2="177" y2="312" />
	<polygon fill="#000000" stroke="black" stroke-opacity="1" points="257,306 251,312 245,306 250,300" />
</g>
<g>
	<line stroke="black" stroke-opacity="1" x1="283" y1="327" x2="194" y2="387" />
	<polygon fill="#000000" stroke="black" stroke-opacity="1" points="283,327 281,335 273,333 274,325" />
</g>
<g>
	<line stroke="black" stroke-opacity="1" x1="448" y1="348" x2="194" y2="410" />
	<polygon fill="#000000" stroke="black" stroke-opacity="1" points="448,348 443,355 436,350 440,343" />
</g>
<g>
	<line stroke="black" stroke-opacity="1" x1="330" y1="327" x2="323" y2="419" />
	<polygon fill="#000000" stroke="black" stroke-opacity="1" points="330,327 335,333 329,338 323,332" />
</g>
<g>
	<line stroke="black" stroke-opacity="1" x1="334" y1="505" x2="343" y2="477" />
	<line stroke="black" stroke-opacity="1" x1="346" y1="472" x2="338" y2="475" />
	<line stroke="black" stroke-opacity="1" x1="346" y1="472" x2="349" y2="479" />
	<line stroke="black" stroke-opacity="1" x1="338" y1="475" x2="349" y2="479" />
</g>
<g>
	<line stroke="black" stroke-opacity="1" x1="393" y1="501" x2="377" y2="477" />
	<line stroke="black" stroke-opacity="1" x1="374" y1="472" x2="372" y2="480" />
	<line stroke="black" stroke-opacity="1" x1="374" y1="472" x2="382" y2="473" />
	<line stroke="black" stroke-opacity="1" x1="372" y1="480" x2="382" y2="473" />
</g>
<g>
	<line stroke="black" stroke-opacity="1" x1="495" y1="304" x2="620" y2="339" />
</g>
<g>
	<text font-family="Helvetica" font-size="9" fill="#000000" xml:space="preserve" x="392" y="114">*</text>
</g>
<g>
	<text font-family="Helvetica" font-size="9" fill="#000000" xml:space="preserve" x="557" y="156">module</text>
</g>
<g>
	<text font-family="Helvetica" font-size="9" fill="#000000" xml:space="preserve" x="557" y="185">1</text>
</g>
<g>
	<text font-family="Helvetica" font-size="9" fill="#000000" xml:space="preserve" x="110" y="204">sequencer</text>
</g>
<g>
	<text font-family="Helvetica" font-size="9" fill="#000000" xml:space="preserve" x="757" y="379">outports</text>
</g>
<g>
	<text font-family="Helvetica" font-size="9" fill="#000000" xml:space="preserve" x="795" y="374">*</text>
</g>
<g>
	<text font-family="Helvetica" font-size="9" fill="#000000" xml:space="preserve" x="769" y="422">out</text>
</g>
<g>
	<text font-family="Helvetica" font-size="9" fill="#000000" xml:space="preserve" x="863" y="307">connections</text>
</g>
<g>
	<text font-family="Helvetica" font-size="9" fill="#000000" xml:space="preserve" x="924" y="336">*</text>
</g>
<g>
	<text font-family="Helvetica" font-size="9" fill="#000000" xml:space="preserve" x="715" y="346">target</text>
</g>
<g>
	<text font-family="Helvetica" font-size="9" fill="#000000" xml:space="preserve" x="715" y="375">1</text>
</g>
<g>
	<text font-family="Helvetica" font-size="9" fill="#000000" xml:space="preserve" x="882" y="368">source</text>
</g>
<g>
	<text font-family="Helvetica" font-size="9" fill="#000000" xml:space="preserve" x="882" y="397">1</text>
</g>
<g>
	<text font-family="Helvetica" font-size="9" fill="#000000" xml:space="preserve" x="263" y="148">sortedModules</text>
</g>
<g>
	<text font-family="Helvetica" font-size="9" fill="#000000" xml:space="preserve" x="333" y="179">*</text>
</g>
<g>
	<text font-family="Helvetica" font-size="9" fill="#000000" xml:space="preserve" x="769" y="401">out</text>
</g>
<g>
	<text font-family="Helvetica" font-size="9" fill="#000000" xml:space="preserve" x="920" y="126">buffer</text>
</g>
<g>
	<text font-family="Helvetica" font-size="9" fill="#000000" xml:space="preserve" x="944" y="155">1</text>
</g>
<g>
	<text font-family="Helvetica" font-size="9" fill="#000000" xml:space="preserve" x="600" y="352">in</text>
</g>
<g>
	<text font-family="Helvetica" font-size="9" fill="#000000" xml:space="preserve" x="589" y="370">freq</text>
</g>
<g>
	<text font-family="Helvetica" font-size="9" fill="#000000" xml:space="preserve" x="187" y="300">shape</text>
</g>
<g>
	<text font-family="Helvetica" font-size="9" fill="#000000" xml:space="preserve" x="204" y="369">k</text>
</g>
<g>
	<text font-family="Helvetica" font-size="9" fill="#000000" xml:space="preserve" x="204" y="396">k</text>
</g>
<g>
	<text font-family="Helvetica" font-size="9" fill="#000000" xml:space="preserve" x="334" y="407">generator</text>
</g>
<g>
	<text font-family="Helvetica" font-size="9" fill="#000000" xml:space="preserve" x="597" y="329">fm</text>
</g>
<g>
	<text font-family="Helvetica" font-size="9" fill="#000000" xml:space="preserve" x="631" y="315">inports</text>
</g>
<g>
	<text font-family="Helvetica" font-size="9" fill="#000000" xml:space="preserve" x="626" y="325">*</text>
</g>
<g>
	<text font-family="Helvetica" font-size="9" fill="#000000" xml:space="preserve" x="417" y="114">modules</text>
</g>
</svg>
