<?xml version="1.0" encoding="UTF-8" standalone="no"?>
<!-- Created with Bouml (http://bouml.free.fr/) -->
<!DOCTYPE svg PUBLIC "-//W3C//DTD SVG 1.1//EN" "http://www.w3.org/Graphics/SVG/1.1/DTD/svg11.dtd">
<svg width="829" height="487" version="1.1" xmlns="http://www.w3.org/2000/svg">
<g>
	<line stroke="black" stroke-dasharray="18,6"  stroke-opacity="1" x1="223" y1="46" x2="223" y2="487" />
</g>
<g>
	<rect fill="none" stroke="black" stroke-width="1" stroke-opacity="1" x="218" y="87" width="10" height="375" />
</g>
<g>
	<rect fill="#808080" stroke="none" stroke-opacity="1" x="135" y="9" width="3" height="22" />
	<rect fill="#808080" stroke="none" stroke-opacity="1" x="78" y="28" width="60" height="3" />
	<rect fill="#ffffc0" stroke="black" stroke-width="1" stroke-opacity="1" x="74" y="5" width="61" height="23" />
	<text font-family="Helvetica" font-size="9" fill="#000000" xml:space="preserve" text-decoration="underline" text-anchor="middle" x="105" y="21">pp1:PPort</text>
</g>
<g>
	<line stroke="black" stroke-dasharray="18,6"  stroke-opacity="1" x1="106" y1="46" x2="106" y2="487" />
</g>
<g>
	<rect fill="#808080" stroke="none" stroke-opacity="1" x="252" y="9" width="3" height="22" />
	<rect fill="#808080" stroke="none" stroke-opacity="1" x="195" y="28" width="60" height="3" />
	<rect fill="#ffffc0" stroke="black" stroke-width="1" stroke-opacity="1" x="191" y="5" width="61" height="23" />
	<text font-family="Helvetica" font-size="9" fill="#000000" xml:space="preserve" text-decoration="underline" text-anchor="middle" x="222" y="21">cp1:CPort</text>
</g>
<g>
	<rect fill="#808080" stroke="none" stroke-opacity="1" x="457" y="8" width="3" height="22" />
	<rect fill="#808080" stroke="none" stroke-opacity="1" x="400" y="27" width="60" height="3" />
	<rect fill="#ffffc0" stroke="black" stroke-width="1" stroke-opacity="1" x="396" y="4" width="61" height="23" />
	<text font-family="Helvetica" font-size="9" fill="#000000" xml:space="preserve" text-decoration="underline" text-anchor="middle" x="427" y="20">pp2:PPort</text>
</g>
<g>
	<line stroke="black" stroke-dasharray="18,6"  stroke-opacity="1" x1="428" y1="45" x2="428" y2="487" />
</g>
<g>
	<rect fill="#808080" stroke="none" stroke-opacity="1" x="520" y="8" width="3" height="22" />
	<rect fill="#808080" stroke="none" stroke-opacity="1" x="463" y="27" width="60" height="3" />
	<rect fill="#ffffc0" stroke="black" stroke-width="1" stroke-opacity="1" x="459" y="4" width="61" height="23" />
	<text font-family="Helvetica" font-size="9" fill="#000000" xml:space="preserve" text-decoration="underline" text-anchor="middle" x="490" y="20">cp2:CPort</text>
</g>
<g>
	<line stroke="black" stroke-dasharray="18,6"  stroke-opacity="1" x1="491" y1="45" x2="491" y2="487" />
</g>
<g>
	<line stroke="black" stroke-dasharray="18,6"  stroke-opacity="1" x1="23" y1="45" x2="23" y2="487" />
</g>
<g>
	<rect fill="#808080" stroke="none" stroke-opacity="1" x="709" y="8" width="3" height="22" />
	<rect fill="#808080" stroke="none" stroke-opacity="1" x="649" y="27" width="63" height="3" />
	<rect fill="#ffffc0" stroke="black" stroke-width="1" stroke-opacity="1" x="645" y="4" width="64" height="23" />
	<text font-family="Helvetica" font-size="9" fill="#000000" xml:space="preserve" text-decoration="underline" text-anchor="middle" x="677" y="20">tmp:CWire</text>
</g>
<g>
	<line stroke="black" stroke-dasharray="18,6"  stroke-opacity="1" x1="679" y1="45" x2="679" y2="129" />
</g>
<g>
	<line stroke="black" stroke-opacity="1" x1="676" y1="129" x2="682" y2="136" />
	<line stroke="black" stroke-opacity="1" x1="682" y1="129" x2="676" y2="136" />
</g>
<g>
	<rect fill="#808080" stroke="none" stroke-opacity="1" x="393" y="8" width="3" height="22" />
	<rect fill="#808080" stroke="none" stroke-opacity="1" x="295" y="27" width="101" height="3" />
	<rect fill="#ffffc0" stroke="black" stroke-width="1" stroke-opacity="1" x="291" y="4" width="102" height="23" />
	<text font-family="Helvetica" font-size="9" fill="#000000" xml:space="preserve" text-decoration="underline" text-anchor="middle" x="342" y="20">cvp1:CVirtualPort</text>
</g>
<g>
	<line stroke="black" stroke-dasharray="18,6"  stroke-opacity="1" x1="344" y1="45" x2="344" y2="487" />
</g>
<g>
	<rect fill="#808080" stroke="none" stroke-opacity="1" x="625" y="8" width="3" height="22" />
	<rect fill="#808080" stroke="none" stroke-opacity="1" x="527" y="27" width="101" height="3" />
	<rect fill="#ffffc0" stroke="black" stroke-width="1" stroke-opacity="1" x="523" y="4" width="102" height="23" />
	<text font-family="Helvetica" font-size="9" fill="#000000" xml:space="preserve" text-decoration="underline" text-anchor="middle" x="574" y="20">cvp2:CVirtualPort</text>
</g>
<g>
	<line stroke="black" stroke-dasharray="18,6"  stroke-opacity="1" x1="576" y1="45" x2="576" y2="487" />
</g>
<g>
	<rect fill="#808080" stroke="none" stroke-opacity="1" x="745" y="171" width="3" height="22" />
	<rect fill="#808080" stroke="none" stroke-opacity="1" x="670" y="190" width="78" height="3" />
	<rect fill="#ffffc0" stroke="black" stroke-width="1" stroke-opacity="1" x="666" y="167" width="79" height="23" />
	<text font-family="Helvetica" font-size="9" fill="#000000" xml:space="preserve" text-decoration="underline" text-anchor="middle" x="706" y="183">c:Connection</text>
</g>
<g>
	<line stroke="black" stroke-dasharray="18,6"  stroke-opacity="1" x1="707" y1="208" x2="707" y2="487" />
</g>
<g>
	<rect fill="#808080" stroke="none" stroke-opacity="1" x="761" y="282" width="3" height="22" />
	<rect fill="#808080" stroke="none" stroke-opacity="1" x="720" y="301" width="44" height="3" />
	<rect fill="#ffffc0" stroke="black" stroke-width="1" stroke-opacity="1" x="716" y="278" width="45" height="23" />
	<text font-family="Helvetica" font-size="9" fill="#000000" xml:space="preserve" text-decoration="underline" text-anchor="middle" x="739" y="294">:CWire</text>
</g>
<g>
	<line stroke="black" stroke-dasharray="18,6"  stroke-opacity="1" x1="740" y1="319" x2="740" y2="487" />
</g>
<g>
	<line stroke="black" stroke-dasharray="18,6"  stroke-opacity="1" x1="792" y1="333" x2="792" y2="487" />
</g>
<g>
	<polygon fill="#c0ffff" stroke="black" stroke-opacity="1" points="134,312 252,312 252,322 262,322 262,412 134,412 134,312" />
	<line stroke="black" stroke-opacity="1" x1="252" y1="312" x2="262" y2="322" />
	<text font-family="Helvetica" font-size="9" fill="#000000" xml:space="preserve" x="144" y="338">Création d'un fil</text>
	<text font-family="Helvetica" font-size="9" fill="#000000" xml:space="preserve" x="144" y="355">seulement si l'appel</text>
	<text font-family="Helvetica" font-size="9" fill="#000000" xml:space="preserve" x="144" y="372">à l'implémentation</text>
	<text font-family="Helvetica" font-size="9" fill="#000000" xml:space="preserve" x="144" y="389">de l'abstraction a</text>
	<text font-family="Helvetica" font-size="9" fill="#000000" xml:space="preserve" x="144" y="406">réussi</text>
</g>
<g>
	<ellipse fill="none" stroke="black" stroke-width="1" stroke-opacity="1" cx="22" cy="7" rx="3" ry="3" />
	<line stroke="black" stroke-opacity="1" x1="17" y1="13" x2="28" y2="13" />
	<line stroke="black" stroke-opacity="1" x1="22" y1="10" x2="22" y2="18" />
	<line stroke="black" stroke-opacity="1" x1="22" y1="18" x2="17" y2="23" />
	<line stroke="black" stroke-opacity="1" x1="22" y1="18" x2="27" y2="23" />
	<text font-family="Helvetica" font-size="9" fill="#000000" xml:space="preserve" text-anchor="middle" x="23" y="38">:User</text>
</g>
<g>
	<rect fill="#808080" stroke="none" stroke-opacity="1" x="813" y="296" width="3" height="22" />
	<rect fill="#808080" stroke="none" stroke-opacity="1" x="772" y="315" width="44" height="3" />
	<rect fill="#ffffc0" stroke="black" stroke-width="1" stroke-opacity="1" x="768" y="292" width="45" height="23" />
	<text font-family="Helvetica" font-size="9" fill="#000000" xml:space="preserve" text-decoration="underline" text-anchor="middle" x="791" y="308">:PWire</text>
</g>
<g>
	<polygon fill="#c0ffff" stroke="black" stroke-opacity="1" points="159,216 253,216 253,226 263,226 263,270 159,270 159,216" />
	<line stroke="black" stroke-opacity="1" x1="253" y1="216" x2="263" y2="226" />
	<text font-family="Helvetica" font-size="9" fill="#000000" xml:space="preserve" x="169" y="242">Implémentation</text>
	<text font-family="Helvetica" font-size="9" fill="#000000" xml:space="preserve" x="169" y="259">de l'abstraction</text>
</g>
<g>
	<rect fill="none" stroke="black" stroke-width="1" stroke-opacity="1" x="18" y="67" width="10" height="408" />
</g>
<g>
	<rect fill="none" stroke="black" stroke-width="1" stroke-opacity="1" x="101" y="66" width="10" height="405" />
</g>
<g>
	<rect fill="none" stroke="black" stroke-width="1" stroke-opacity="1" x="674" y="104" width="10" height="24" />
</g>
<g>
	<rect fill="none" stroke="black" stroke-width="1" stroke-opacity="1" x="339" y="132" width="10" height="319" />
</g>
<g>
	<rect fill="none" stroke="black" stroke-width="1" stroke-opacity="1" x="702" y="217" width="10" height="82" />
</g>
<g>
	<rect fill="none" stroke="black" stroke-width="1" stroke-opacity="1" x="735" y="328" width="10" height="24" />
</g>
<g>
	<rect fill="none" stroke="black" stroke-width="1" stroke-opacity="1" x="787" y="342" width="10" height="24" />
</g>
<g>
	<rect fill="none" stroke="black" stroke-width="1" stroke-opacity="1" x="486" y="148" width="10" height="33" />
</g>
<g>
	<rect fill="none" stroke="black" stroke-width="1" stroke-opacity="1" x="571" y="251" width="10" height="24" />
</g>
<g>
	<rect fill="none" stroke="black" stroke-width="1" stroke-opacity="1" x="735" y="387" width="10" height="24" />
</g>
<g>
	<rect fill="none" stroke="black" stroke-width="1" stroke-opacity="1" x="735" y="420" width="10" height="24" />
</g>
<g>
	<line stroke-dasharray="4,4" stroke="black" stroke-opacity="1" x1="263" y1="239" x2="338" y2="217" />
</g>
<g>
	<line stroke-dasharray="4,4" stroke="black" stroke-opacity="1" x1="262" y1="374" x2="338" y2="351" />
</g>
<g>
	<line stroke="black" stroke-opacity="1" x1="29" y1="72" x2="101" y2="72" />
	<polygon fill="#000000" stroke="none" points="101,72 97,68 97,76" />
</g>
<g>
	<line stroke="black" stroke-opacity="1" x1="112" y1="93" x2="218" y2="93" />
	<polygon fill="#000000" stroke="none" points="218,93 214,89 214,97" />
</g>
<g>
	<line stroke="black" stroke-opacity="1" x1="350" y1="343" x2="735" y2="343" />
	<polygon fill="#000000" stroke="none" points="735,343 731,339 731,347" />
</g>
<g>
	<line stroke="black" stroke-opacity="1" x1="350" y1="154" x2="486" y2="154" />
	<polygon fill="#000000" stroke="none" points="486,154 482,150 482,158" />
</g>
<g>
	<line stroke="black" stroke-opacity="1" x1="350" y1="392" x2="735" y2="392" />
	<polygon fill="#000000" stroke="none" points="735,392 731,388 731,396" />
</g>
<g>
	<line stroke="black" stroke-opacity="1" x1="350" y1="425" x2="735" y2="425" />
	<polygon fill="#000000" stroke="none" points="735,425 731,421 731,429" />
</g>
<g>
	<rect fill="none" stroke="black" stroke-width="1" stroke-opacity="1" x="345" y="212" width="10" height="106" />
</g>
<g>
	<line stroke="black" stroke-opacity="1" x1="229" y1="111" x2="674" y2="111" />
	<polygon fill="#000000" stroke="none" points="674,111 670,107 670,115" />
</g>
<g>
	<line stroke="black" stroke-opacity="1" x1="350" y1="360" x2="787" y2="360" />
	<polygon fill="#000000" stroke="none" points="787,360 783,356 783,364" />
</g>
<g>
	<line stroke="black" stroke-opacity="1" x1="229" y1="138" x2="339" y2="138" />
	<polygon fill="#000000" stroke="none" points="339,138 335,134 335,142" />
</g>
<g>
	<path fill="none" stroke="black" stroke-opacity="1" d="M 357 213 L 374 213 L 374 220 L 357 220" />
	<polygon fill="#000000" stroke="none" points="357,220 361,224 361,216" />
</g>
<g>
	<rect fill="none" stroke="black" stroke-width="1" stroke-opacity="1" x="351" y="286" width="10" height="24" />
</g>
<g>
	<line stroke="black" stroke-opacity="1" x1="356" y1="236" x2="702" y2="236" />
	<polygon fill="#000000" stroke="none" points="702,236 698,232 698,240" />
</g>
<g>
	<line stroke="black" stroke-opacity="1" x1="582" y1="257" x2="702" y2="257" />
	<polygon fill="#000000" stroke="none" points="582,257 586,253 586,261" />
</g>
<g>
	<line stroke="black" stroke-opacity="1" x1="362" y1="291" x2="702" y2="291" />
	<polygon fill="#000000" stroke="none" points="362,291 366,287 366,295" />
</g>
<g>
	<text font-family="Helvetica" font-size="9" fill="#000000" xml:space="preserve" x="28" y="62">1: dropEvent()</text>
</g>
<g>
	<text font-family="Helvetica" font-size="9" fill="#000000" xml:space="preserve" x="113" y="85">2: drop(target = cp2)</text>
</g>
<g>
	<text font-family="Helvetica" font-size="9" fill="#000000" xml:space="preserve" x="264" y="104">3: delete</text>
</g>
<g>
	<text font-family="Helvetica" font-size="9" fill="#000000" xml:space="preserve" x="230" y="131">4: connect(cp1, cp2)</text>
</g>
<g>
	<text font-family="Helvetica" font-size="9" fill="#000000" xml:space="preserve" x="353" y="206">6: connect(cvp2)</text>
</g>
<g>
	<text font-family="Helvetica" font-size="9" fill="#000000" xml:space="preserve" x="368" y="147">5: getVirtualPort()</text>
</g>
<g>
	<text font-family="Helvetica" font-size="9" fill="#000000" xml:space="preserve" x="411" y="170">cvp2</text>
</g>
<g>
	<text font-family="Helvetica" font-size="9" fill="#000000" xml:space="preserve" x="589" y="249">7: addConnection(c)</text>
</g>
<g>
	<text font-family="Helvetica" font-size="9" fill="#000000" xml:space="preserve" x="463" y="283">8: addConnection(c)</text>
</g>
<g>
	<text font-family="Helvetica" font-size="9" fill="#000000" xml:space="preserve" x="532" y="384">11: setInPort(cp1)</text>
</g>
<g>
	<text font-family="Helvetica" font-size="9" fill="#000000" xml:space="preserve" x="528" y="416">12: setOutPort(cp2)</text>
</g>
<g>
	<text font-family="Helvetica" font-size="9" fill="#000000" xml:space="preserve" x="516" y="336">9: create</text>
</g>
<g>
	<text font-family="Helvetica" font-size="9" fill="#000000" xml:space="preserve" x="513" y="353">10: create</text>
</g>
<g>
	<line stroke="black" stroke-opacity="1" stroke-dasharray="4,4" x1="350" y1="176" x2="486" y2="176" />
	<path fill="none" stroke="black" stroke-opacity="1" d="M 354 172 L 350 176 L 354 180" />
</g>
</svg>
