<?xml version="1.0" encoding="UTF-8" standalone="no"?>
<!-- Created with Bouml (http://bouml.free.fr/) -->
<!DOCTYPE svg PUBLIC "-//W3C//DTD SVG 1.1//EN" "http://www.w3.org/Graphics/SVG/1.1/DTD/svg11.dtd">
<svg width="829" height="456" version="1.1" xmlns="http://www.w3.org/2000/svg">
<g>
	<line stroke="black" stroke-dasharray="18,6"  stroke-opacity="1" x1="94" y1="45" x2="94" y2="456" />
</g>
<g>
	<rect fill="#808080" stroke="none" stroke-opacity="1" x="123" y="8" width="3" height="22" />
	<rect fill="#808080" stroke="none" stroke-opacity="1" x="66" y="27" width="60" height="3" />
	<rect fill="#ffffc0" stroke="black" stroke-width="1" stroke-opacity="1" x="62" y="4" width="61" height="23" />
	<text font-family="Helvetica" font-size="9" fill="#000000" xml:space="preserve" text-decoration="underline" text-anchor="middle" x="93" y="20">pp1:PPort</text>
</g>
<g>
	<rect fill="#808080" stroke="none" stroke-opacity="1" x="233" y="8" width="3" height="22" />
	<rect fill="#808080" stroke="none" stroke-opacity="1" x="176" y="27" width="60" height="3" />
	<rect fill="#ffffc0" stroke="black" stroke-width="1" stroke-opacity="1" x="172" y="4" width="61" height="23" />
	<text font-family="Helvetica" font-size="9" fill="#000000" xml:space="preserve" text-decoration="underline" text-anchor="middle" x="203" y="20">cp1:CPort</text>
</g>
<g>
	<line stroke="black" stroke-dasharray="18,6"  stroke-opacity="1" x1="204" y1="45" x2="204" y2="456" />
</g>
<g>
	<rect fill="#808080" stroke="none" stroke-opacity="1" x="458" y="8" width="3" height="22" />
	<rect fill="#808080" stroke="none" stroke-opacity="1" x="401" y="27" width="60" height="3" />
	<rect fill="#ffffc0" stroke="black" stroke-width="1" stroke-opacity="1" x="397" y="4" width="61" height="23" />
	<text font-family="Helvetica" font-size="9" fill="#000000" xml:space="preserve" text-decoration="underline" text-anchor="middle" x="428" y="20">pp2:PPort</text>
</g>
<g>
	<line stroke="black" stroke-dasharray="18,6"  stroke-opacity="1" x1="429" y1="45" x2="429" y2="456" />
</g>
<g>
	<rect fill="#808080" stroke="none" stroke-opacity="1" x="527" y="8" width="3" height="22" />
	<rect fill="#808080" stroke="none" stroke-opacity="1" x="470" y="27" width="60" height="3" />
	<rect fill="#ffffc0" stroke="black" stroke-width="1" stroke-opacity="1" x="466" y="4" width="61" height="23" />
	<text font-family="Helvetica" font-size="9" fill="#000000" xml:space="preserve" text-decoration="underline" text-anchor="middle" x="497" y="20">cp2:CPort</text>
</g>
<g>
	<line stroke="black" stroke-dasharray="18,6"  stroke-opacity="1" x1="498" y1="45" x2="498" y2="456" />
</g>
<g>
	<line stroke="black" stroke-dasharray="18,6"  stroke-opacity="1" x1="23" y1="45" x2="23" y2="456" />
</g>
<g>
	<rect fill="#808080" stroke="none" stroke-opacity="1" x="709" y="8" width="3" height="22" />
	<rect fill="#808080" stroke="none" stroke-opacity="1" x="649" y="27" width="63" height="3" />
	<rect fill="#ffffc0" stroke="black" stroke-width="1" stroke-opacity="1" x="645" y="4" width="64" height="23" />
	<text font-family="Helvetica" font-size="9" fill="#000000" xml:space="preserve" text-decoration="underline" text-anchor="middle" x="677" y="20">tmp:CWire</text>
</g>
<g>
	<line stroke="black" stroke-dasharray="18,6"  stroke-opacity="1" x1="679" y1="45" x2="679" y2="129" />
</g>
<g>
	<line stroke="black" stroke-opacity="1" x1="676" y1="129" x2="682" y2="136" />
	<line stroke="black" stroke-opacity="1" x1="682" y1="129" x2="676" y2="136" />
</g>
<g>
	<rect fill="#808080" stroke="none" stroke-opacity="1" x="365" y="8" width="3" height="22" />
	<rect fill="#808080" stroke="none" stroke-opacity="1" x="267" y="27" width="101" height="3" />
	<rect fill="#ffffc0" stroke="black" stroke-width="1" stroke-opacity="1" x="263" y="4" width="102" height="23" />
	<text font-family="Helvetica" font-size="9" fill="#000000" xml:space="preserve" text-decoration="underline" text-anchor="middle" x="314" y="20">cvp1:CVirtualPort</text>
</g>
<g>
	<line stroke="black" stroke-dasharray="18,6"  stroke-opacity="1" x1="316" y1="45" x2="316" y2="456" />
</g>
<g>
	<rect fill="#808080" stroke="none" stroke-opacity="1" x="634" y="8" width="3" height="22" />
	<rect fill="#808080" stroke="none" stroke-opacity="1" x="536" y="27" width="101" height="3" />
	<rect fill="#ffffc0" stroke="black" stroke-width="1" stroke-opacity="1" x="532" y="4" width="102" height="23" />
	<text font-family="Helvetica" font-size="9" fill="#000000" xml:space="preserve" text-decoration="underline" text-anchor="middle" x="583" y="20">cvp2:CVirtualPort</text>
</g>
<g>
	<line stroke="black" stroke-dasharray="18,6"  stroke-opacity="1" x1="585" y1="45" x2="585" y2="456" />
</g>
<g>
	<polygon fill="#c0ffff" stroke="black" stroke-opacity="1" points="159,216 253,216 253,226 263,226 263,270 159,270 159,216" />
	<line stroke="black" stroke-opacity="1" x1="253" y1="216" x2="263" y2="226" />
	<text font-family="Helvetica" font-size="9" fill="#000000" xml:space="preserve" x="169" y="242">Implémentation</text>
	<text font-family="Helvetica" font-size="9" fill="#000000" xml:space="preserve" x="169" y="259">de l'abstraction</text>
</g>
<g>
	<rect fill="#808080" stroke="none" stroke-opacity="1" x="740" y="171" width="3" height="22" />
	<rect fill="#808080" stroke="none" stroke-opacity="1" x="665" y="190" width="78" height="3" />
	<rect fill="#ffffc0" stroke="black" stroke-width="1" stroke-opacity="1" x="661" y="167" width="79" height="23" />
	<text font-family="Helvetica" font-size="9" fill="#000000" xml:space="preserve" text-decoration="underline" text-anchor="middle" x="701" y="183">c:Connection</text>
</g>
<g>
	<line stroke="black" stroke-dasharray="18,6"  stroke-opacity="1" x1="702" y1="208" x2="702" y2="456" />
</g>
<g>
	<rect fill="#808080" stroke="none" stroke-opacity="1" x="761" y="282" width="3" height="22" />
	<rect fill="#808080" stroke="none" stroke-opacity="1" x="720" y="301" width="44" height="3" />
	<rect fill="#ffffc0" stroke="black" stroke-width="1" stroke-opacity="1" x="716" y="278" width="45" height="23" />
	<text font-family="Helvetica" font-size="9" fill="#000000" xml:space="preserve" text-decoration="underline" text-anchor="middle" x="739" y="294">:CWire</text>
</g>
<g>
	<line stroke="black" stroke-dasharray="18,6"  stroke-opacity="1" x1="740" y1="319" x2="740" y2="456" />
</g>
<g>
	<line stroke="black" stroke-dasharray="18,6"  stroke-opacity="1" x1="792" y1="333" x2="792" y2="456" />
</g>
<g>
	<polygon fill="#c0ffff" stroke="black" stroke-opacity="1" points="134,312 252,312 252,322 262,322 262,412 134,412 134,312" />
	<line stroke="black" stroke-opacity="1" x1="252" y1="312" x2="262" y2="322" />
	<text font-family="Helvetica" font-size="9" fill="#000000" xml:space="preserve" x="144" y="338">Création d'un fil</text>
	<text font-family="Helvetica" font-size="9" fill="#000000" xml:space="preserve" x="144" y="355">seulement si l'appel</text>
	<text font-family="Helvetica" font-size="9" fill="#000000" xml:space="preserve" x="144" y="372">à l'implémentation</text>
	<text font-family="Helvetica" font-size="9" fill="#000000" xml:space="preserve" x="144" y="389">de l'abstraction a</text>
	<text font-family="Helvetica" font-size="9" fill="#000000" xml:space="preserve" x="144" y="406">réussi</text>
</g>
<g>
	<ellipse fill="none" stroke="black" stroke-width="1" stroke-opacity="1" cx="22" cy="7" rx="3" ry="3" />
	<line stroke="black" stroke-opacity="1" x1="17" y1="13" x2="28" y2="13" />
	<line stroke="black" stroke-opacity="1" x1="22" y1="10" x2="22" y2="18" />
	<line stroke="black" stroke-opacity="1" x1="22" y1="18" x2="17" y2="23" />
	<line stroke="black" stroke-opacity="1" x1="22" y1="18" x2="27" y2="23" />
	<text font-family="Helvetica" font-size="9" fill="#000000" xml:space="preserve" text-anchor="middle" x="23" y="38">:User</text>
</g>
<g>
	<rect fill="#808080" stroke="none" stroke-opacity="1" x="813" y="296" width="3" height="22" />
	<rect fill="#808080" stroke="none" stroke-opacity="1" x="772" y="315" width="44" height="3" />
	<rect fill="#ffffc0" stroke="black" stroke-width="1" stroke-opacity="1" x="768" y="292" width="45" height="23" />
	<text font-family="Helvetica" font-size="9" fill="#000000" xml:space="preserve" text-decoration="underline" text-anchor="middle" x="791" y="308">:PWire</text>
</g>
<g>
	<rect fill="none" stroke="black" stroke-width="1" stroke-opacity="1" x="18" y="66" width="10" height="39" />
</g>
<g>
	<rect fill="none" stroke="black" stroke-width="1" stroke-opacity="1" x="89" y="66" width="10" height="31" />
</g>
<g>
	<rect fill="none" stroke="black" stroke-width="1" stroke-opacity="1" x="199" y="86" width="10" height="100" />
</g>
<g>
	<rect fill="none" stroke="black" stroke-width="1" stroke-opacity="1" x="674" y="104" width="10" height="24" />
</g>
<g>
	<rect fill="none" stroke="black" stroke-width="1" stroke-opacity="1" x="311" y="132" width="10" height="311" />
</g>
<g>
	<rect fill="none" stroke="black" stroke-width="1" stroke-opacity="1" x="697" y="217" width="10" height="82" />
</g>
<g>
	<rect fill="none" stroke="black" stroke-width="1" stroke-opacity="1" x="735" y="328" width="10" height="24" />
</g>
<g>
	<rect fill="none" stroke="black" stroke-width="1" stroke-opacity="1" x="787" y="342" width="10" height="24" />
</g>
<g>
	<rect fill="none" stroke="black" stroke-width="1" stroke-opacity="1" x="493" y="148" width="10" height="33" />
</g>
<g>
	<rect fill="none" stroke="black" stroke-width="1" stroke-opacity="1" x="580" y="251" width="10" height="24" />
</g>
<g>
	<rect fill="none" stroke="black" stroke-width="1" stroke-opacity="1" x="735" y="387" width="10" height="24" />
</g>
<g>
	<rect fill="none" stroke="black" stroke-width="1" stroke-opacity="1" x="735" y="420" width="10" height="24" />
</g>
<g>
	<line stroke-dasharray="4,4" stroke="black" stroke-opacity="1" x1="263" y1="239" x2="310" y2="214" />
</g>
<g>
	<line stroke-dasharray="4,4" stroke="black" stroke-opacity="1" x1="262" y1="374" x2="310" y2="345" />
</g>
<g>
	<line stroke="black" stroke-opacity="1" x1="29" y1="71" x2="89" y2="71" />
	<polygon fill="#000000" stroke="none" points="89,71 85,67 85,75" />
</g>
<g>
	<line stroke="black" stroke-opacity="1" x1="100" y1="92" x2="199" y2="92" />
	<polygon fill="#000000" stroke="none" points="199,92 195,88 195,96" />
</g>
<g>
	<line stroke="black" stroke-opacity="1" x1="322" y1="343" x2="735" y2="343" />
	<polygon fill="#000000" stroke="none" points="735,343 731,339 731,347" />
</g>
<g>
	<line stroke="black" stroke-opacity="1" x1="322" y1="154" x2="493" y2="154" />
	<polygon fill="#000000" stroke="none" points="493,154 489,150 489,158" />
</g>
<g>
	<line stroke="black" stroke-opacity="1" x1="322" y1="392" x2="735" y2="392" />
	<polygon fill="#000000" stroke="none" points="735,392 731,388 731,396" />
</g>
<g>
	<line stroke="black" stroke-opacity="1" x1="322" y1="425" x2="735" y2="425" />
	<polygon fill="#000000" stroke="none" points="735,425 731,421 731,429" />
</g>
<g>
	<rect fill="none" stroke="black" stroke-width="1" stroke-opacity="1" x="317" y="212" width="10" height="106" />
</g>
<g>
	<line stroke="black" stroke-opacity="1" x1="210" y1="110" x2="674" y2="110" />
	<polygon fill="#000000" stroke="none" points="674,110 670,106 670,114" />
</g>
<g>
	<line stroke="black" stroke-opacity="1" x1="322" y1="360" x2="787" y2="360" />
	<polygon fill="#000000" stroke="none" points="787,360 783,356 783,364" />
</g>
<g>
	<line stroke="black" stroke-opacity="1" x1="210" y1="137" x2="311" y2="137" />
	<polygon fill="#000000" stroke="none" points="311,137 307,133 307,141" />
</g>
<g>
	<path fill="none" stroke="black" stroke-opacity="1" d="M 329 213 L 346 213 L 346 220 L 329 220" />
	<polygon fill="#000000" stroke="none" points="329,220 333,224 333,216" />
</g>
<g>
	<rect fill="none" stroke="black" stroke-width="1" stroke-opacity="1" x="323" y="286" width="10" height="24" />
</g>
<g>
	<line stroke="black" stroke-opacity="1" x1="328" y1="236" x2="697" y2="236" />
	<polygon fill="#000000" stroke="none" points="697,236 693,232 693,240" />
</g>
<g>
	<line stroke="black" stroke-opacity="1" x1="591" y1="257" x2="697" y2="257" />
	<polygon fill="#000000" stroke="none" points="591,257 595,253 595,261" />
</g>
<g>
	<line stroke="black" stroke-opacity="1" x1="334" y1="291" x2="697" y2="291" />
	<polygon fill="#000000" stroke="none" points="334,291 338,287 338,295" />
</g>
<g>
	<text font-family="Helvetica" font-size="9" fill="#000000" xml:space="preserve" x="28" y="61">dropEvent()</text>
</g>
<g>
	<text font-family="Helvetica" font-size="9" fill="#000000" xml:space="preserve" x="101" y="84">drop(target = pp2)</text>
</g>
<g>
	<text font-family="Helvetica" font-size="9" fill="#000000" xml:space="preserve" x="257" y="104">delete</text>
</g>
<g>
	<text font-family="Helvetica" font-size="9" fill="#000000" xml:space="preserve" x="211" y="130">connect(cp1, cp2)</text>
</g>
<g>
	<text font-family="Helvetica" font-size="9" fill="#000000" xml:space="preserve" x="325" y="206">connect(cvp2)</text>
</g>
<g>
	<text font-family="Helvetica" font-size="9" fill="#000000" xml:space="preserve" x="340" y="147">getVirtualPort()</text>
</g>
<g>
	<text font-family="Helvetica" font-size="9" fill="#000000" xml:space="preserve" x="383" y="170">cvp2</text>
</g>
<g>
	<text font-family="Helvetica" font-size="9" fill="#000000" xml:space="preserve" x="598" y="249">addConnection(c)</text>
</g>
<g>
	<text font-family="Helvetica" font-size="9" fill="#000000" xml:space="preserve" x="435" y="283">addConnection(c)</text>
</g>
<g>
	<text font-family="Helvetica" font-size="9" fill="#000000" xml:space="preserve" x="504" y="384">setInPort(cp1)</text>
</g>
<g>
	<text font-family="Helvetica" font-size="9" fill="#000000" xml:space="preserve" x="500" y="416">setOutPort(cp2)</text>
</g>
<g>
	<line stroke="black" stroke-opacity="1" stroke-dasharray="4,4" x1="322" y1="176" x2="493" y2="176" />
	<path fill="none" stroke="black" stroke-opacity="1" d="M 326 172 L 322 176 L 326 180" />
</g>
</svg>
