<?xml version="1.0" encoding="UTF-8" standalone="no"?>
<!-- Created with Bouml (http://bouml.free.fr/) -->
<!DOCTYPE svg PUBLIC "-//W3C//DTD SVG 1.1//EN" "http://www.w3.org/Graphics/SVG/1.1/DTD/svg11.dtd">
<svg width="857" height="351" version="1.1" xmlns="http://www.w3.org/2000/svg">
<g>
	<rect fill="#808080" stroke="none" stroke-opacity="1" x="414" y="168" width="3" height="33" />
	<rect fill="#808080" stroke="none" stroke-opacity="1" x="338" y="198" width="79" height="3" />
	<rect fill="#ffffc0" stroke="black" stroke-width="1" stroke-opacity="1" x="334" y="164" width="80" height="34" />
	<text font-family="Sans Serif" font-size="9" fill="#000000" xml:space="preserve" font-weight="bold" text-anchor="middle" x="374" y="175">CSynthPro</text>
	<line stroke="black" stroke-opacity="1" x1="334" y1="183" x2="414" y2="183" />
	<line stroke="black" stroke-opacity="1" x1="334" y1="191" x2="414" y2="191" />
</g>
<g>
	<rect fill="#808080" stroke="none" stroke-opacity="1" x="415" y="37" width="3" height="33" />
	<rect fill="#808080" stroke="none" stroke-opacity="1" x="347" y="67" width="71" height="3" />
	<rect fill="#ffffc0" stroke="black" stroke-width="1" stroke-opacity="1" x="343" y="33" width="72" height="34" />
	<text font-family="Sans Serif" font-size="9" fill="#000000" xml:space="preserve" font-weight="bold" text-anchor="middle" x="379" y="44">SynthPro</text>
	<line stroke="black" stroke-opacity="1" x1="343" y1="52" x2="415" y2="52" />
	<line stroke="black" stroke-opacity="1" x1="343" y1="60" x2="415" y2="60" />
</g>
<g>
	<rect fill="#808080" stroke="none" stroke-opacity="1" x="631" y="166" width="3" height="33" />
	<rect fill="#808080" stroke="none" stroke-opacity="1" x="555" y="196" width="79" height="3" />
	<rect fill="#ffffc0" stroke="black" stroke-width="1" stroke-opacity="1" x="551" y="162" width="80" height="34" />
	<text font-family="Sans Serif" font-size="9" fill="#000000" xml:space="preserve" font-weight="bold" text-anchor="middle" x="591" y="173">PSynthPro</text>
	<line stroke="black" stroke-opacity="1" x1="551" y1="181" x2="631" y2="181" />
	<line stroke="black" stroke-opacity="1" x1="551" y1="189" x2="631" y2="189" />
</g>
<g>
	<rect fill="#808080" stroke="none" stroke-opacity="1" x="561" y="41" width="3" height="33" />
	<rect fill="#808080" stroke="none" stroke-opacity="1" x="461" y="71" width="103" height="3" />
	<rect fill="#ffffc0" stroke="black" stroke-width="1" stroke-opacity="1" x="457" y="37" width="104" height="34" />
	<text font-family="Sans Serif" font-size="9" fill="#000000" xml:space="preserve" font-weight="bold" text-anchor="middle" x="509" y="48">QMainWindow</text>
	<line stroke="black" stroke-opacity="1" x1="457" y1="56" x2="561" y2="56" />
	<line stroke="black" stroke-opacity="1" x1="457" y1="64" x2="561" y2="64" />
</g>
<g>
	<rect fill="#808080" stroke="none" stroke-opacity="1" x="841" y="163" width="3" height="33" />
	<rect fill="#808080" stroke="none" stroke-opacity="1" x="755" y="193" width="89" height="3" />
	<rect fill="#ffffc0" stroke="black" stroke-width="1" stroke-opacity="1" x="751" y="159" width="90" height="34" />
	<text font-family="Sans Serif" font-size="9" fill="#000000" xml:space="preserve" font-weight="bold" text-anchor="middle" x="796" y="170">ModuleView</text>
	<line stroke="black" stroke-opacity="1" x1="751" y1="178" x2="841" y2="178" />
	<line stroke="black" stroke-opacity="1" x1="751" y1="186" x2="841" y2="186" />
</g>
<g>
	<rect fill="#808080" stroke="none" stroke-opacity="1" x="592" y="299" width="3" height="33" />
	<rect fill="#808080" stroke="none" stroke-opacity="1" x="484" y="329" width="111" height="3" />
	<rect fill="#ffffc0" stroke="black" stroke-width="1" stroke-opacity="1" x="480" y="295" width="112" height="34" />
	<text font-family="Sans Serif" font-size="9" fill="#000000" xml:space="preserve" font-weight="bold" text-anchor="middle" x="536" y="306">QGraphicScene</text>
	<line stroke="black" stroke-opacity="1" x1="480" y1="314" x2="592" y2="314" />
	<line stroke="black" stroke-opacity="1" x1="480" y1="322" x2="592" y2="322" />
</g>
<g>
	<rect fill="#808080" stroke="none" stroke-opacity="1" x="308" y="38" width="3" height="95" />
	<rect fill="#808080" stroke="none" stroke-opacity="1" x="214" y="130" width="97" height="3" />
	<rect fill="#ffffc0" stroke="black" stroke-width="1" stroke-opacity="1" x="210" y="34" width="98" height="96" />
	<text font-family="Sans Serif" font-size="9" fill="#000000" xml:space="preserve" font-weight="bold" font-style="italic" text-anchor="middle" x="259" y="45">Module</text>
	<line stroke="black" stroke-opacity="1" x1="210" y1="53" x2="308" y2="53" />
	<line stroke="black" stroke-opacity="1" x1="210" y1="61" x2="308" y2="61" />
	<text font-family="Sans Serif" font-size="9" fill="#000000" xml:space="preserve" x="214" y="72">requirements()</text>
	<text font-family="Sans Serif" font-size="9" fill="#000000" xml:space="preserve" x="214" y="89">process()</text>
	<text font-family="Sans Serif" font-size="9" fill="#000000" xml:space="preserve" font-style="italic" x="214" y="106">ownProcess()</text>
	<text font-family="Sans Serif" font-size="9" fill="#000000" xml:space="preserve" x="214" y="123">fetchInput()</text>
</g>
<g>
	<rect fill="#808080" stroke="none" stroke-opacity="1" x="98" y="161" width="3" height="33" />
	<rect fill="#808080" stroke="none" stroke-opacity="1" x="36" y="191" width="65" height="3" />
	<rect fill="#ffffc0" stroke="black" stroke-width="1" stroke-opacity="1" x="32" y="157" width="66" height="34" />
	<text font-family="Sans Serif" font-size="9" fill="#000000" xml:space="preserve" font-weight="bold" text-anchor="middle" x="65" y="168">PModule</text>
	<line stroke="black" stroke-opacity="1" x1="32" y1="176" x2="98" y2="176" />
	<line stroke="black" stroke-opacity="1" x1="32" y1="184" x2="98" y2="184" />
</g>
<g>
	<rect fill="#808080" stroke="none" stroke-opacity="1" x="218" y="242" width="3" height="33" />
	<rect fill="#808080" stroke="none" stroke-opacity="1" x="178" y="272" width="43" height="3" />
	<rect fill="#ffffc0" stroke="black" stroke-width="1" stroke-opacity="1" x="174" y="238" width="44" height="34" />
	<text font-family="Sans Serif" font-size="9" fill="#000000" xml:space="preserve" font-weight="bold" text-anchor="middle" x="196" y="249">CVCO</text>
	<line stroke="black" stroke-opacity="1" x1="174" y1="257" x2="218" y2="257" />
	<line stroke="black" stroke-opacity="1" x1="174" y1="265" x2="218" y2="265" />
</g>
<g>
	<rect fill="#808080" stroke="none" stroke-opacity="1" x="124" y="46" width="3" height="33" />
	<rect fill="#808080" stroke="none" stroke-opacity="1" x="20" y="76" width="107" height="3" />
	<rect fill="#ffffc0" stroke="black" stroke-width="1" stroke-opacity="1" x="16" y="42" width="108" height="34" />
	<text font-family="Sans Serif" font-size="9" fill="#000000" xml:space="preserve" font-weight="bold" text-anchor="middle" x="70" y="53">QGraphicsItem</text>
	<line stroke="black" stroke-opacity="1" x1="16" y1="61" x2="124" y2="61" />
	<line stroke="black" stroke-opacity="1" x1="16" y1="69" x2="124" y2="69" />
</g>
<g>
	<rect fill="#808080" stroke="none" stroke-opacity="1" x="268" y="171" width="3" height="33" />
	<rect fill="#808080" stroke="none" stroke-opacity="1" x="206" y="201" width="65" height="3" />
	<rect fill="#ffffc0" stroke="black" stroke-width="1" stroke-opacity="1" x="202" y="167" width="66" height="34" />
	<text font-family="Sans Serif" font-size="9" fill="#000000" xml:space="preserve" font-weight="bold" text-anchor="middle" x="235" y="178">CModule</text>
	<line stroke="black" stroke-opacity="1" x1="202" y1="186" x2="268" y2="186" />
	<line stroke="black" stroke-opacity="1" x1="202" y1="194" x2="268" y2="194" />
</g>
<g>
	<rect fill="#808080" stroke="none" stroke-opacity="1" x="74" y="271" width="3" height="33" />
	<rect fill="#808080" stroke="none" stroke-opacity="1" x="34" y="301" width="43" height="3" />
	<rect fill="#ffffc0" stroke="black" stroke-width="1" stroke-opacity="1" x="30" y="267" width="44" height="34" />
	<text font-family="Sans Serif" font-size="9" fill="#000000" xml:space="preserve" font-weight="bold" text-anchor="middle" x="52" y="278">PVCO</text>
	<line stroke="black" stroke-opacity="1" x1="30" y1="286" x2="74" y2="286" />
	<line stroke="black" stroke-opacity="1" x1="30" y1="294" x2="74" y2="294" />
</g>
<g>
	<rect fill="#808080" stroke="none" stroke-opacity="1" x="151" y="305" width="3" height="33" />
	<rect fill="#808080" stroke="none" stroke-opacity="1" x="113" y="335" width="41" height="3" />
	<rect fill="#ffffc0" stroke="black" stroke-width="1" stroke-opacity="1" x="109" y="301" width="42" height="34" />
	<text font-family="Sans Serif" font-size="9" fill="#000000" xml:space="preserve" font-weight="bold" text-anchor="middle" x="130" y="312">PVCF</text>
	<line stroke="black" stroke-opacity="1" x1="109" y1="320" x2="151" y2="320" />
	<line stroke="black" stroke-opacity="1" x1="109" y1="328" x2="151" y2="328" />
</g>
<g>
	<rect fill="#808080" stroke="none" stroke-opacity="1" x="306" y="263" width="3" height="33" />
	<rect fill="#808080" stroke="none" stroke-opacity="1" x="268" y="293" width="41" height="3" />
	<rect fill="#ffffc0" stroke="black" stroke-width="1" stroke-opacity="1" x="264" y="259" width="42" height="34" />
	<text font-family="Sans Serif" font-size="9" fill="#000000" xml:space="preserve" font-weight="bold" text-anchor="middle" x="285" y="270">CVCF</text>
	<line stroke="black" stroke-opacity="1" x1="264" y1="278" x2="306" y2="278" />
	<line stroke="black" stroke-opacity="1" x1="264" y1="286" x2="306" y2="286" />
</g>
<g>
	<rect fill="#808080" stroke="none" stroke-opacity="1" x="788" y="44" width="3" height="33" />
	<rect fill="#808080" stroke="none" stroke-opacity="1" x="690" y="74" width="101" height="3" />
	<rect fill="#ffffc0" stroke="black" stroke-width="1" stroke-opacity="1" x="686" y="40" width="102" height="34" />
	<text font-family="Sans Serif" font-size="9" fill="#000000" xml:space="preserve" font-weight="bold" text-anchor="middle" x="737" y="51">QGraphicView</text>
	<line stroke="black" stroke-opacity="1" x1="686" y1="59" x2="788" y2="59" />
	<line stroke="black" stroke-opacity="1" x1="686" y1="67" x2="788" y2="67" />
</g>
<g>
	<line stroke="black" stroke-opacity="1" x1="376" y1="163" x2="378" y2="76" />
	<line stroke="black" stroke-opacity="1" x1="379" y1="71" x2="372" y2="76" />
	<line stroke="black" stroke-opacity="1" x1="379" y1="71" x2="384" y2="77" />
	<line stroke="black" stroke-opacity="1" x1="372" y1="76" x2="384" y2="77" />
</g>
<g>
	<line stroke="black" stroke-opacity="1" x1="579" y1="161" x2="526" y2="80" />
	<line stroke="black" stroke-opacity="1" x1="523" y1="75" x2="521" y2="83" />
	<line stroke="black" stroke-opacity="1" x1="523" y1="75" x2="531" y2="76" />
	<line stroke="black" stroke-opacity="1" x1="521" y1="83" x2="531" y2="76" />
</g>
<g>
	<line stroke="black" stroke-opacity="1" x1="418" y1="182" x2="550" y2="181" />
</g>
<g>
	<line stroke="black" stroke-opacity="1" x1="635" y1="180" x2="750" y2="178" />
	<polygon fill="#000000" stroke="black" stroke-opacity="1" points="635,180 640,173 646,179 641,185" />
</g>
<g>
	<line stroke="black" stroke-opacity="1" x1="397" y1="202" x2="513" y2="294" />
</g>
<g>
	<line stroke="black" stroke-opacity="1" x1="572" y1="294" x2="580" y2="296" />
	<line stroke="black" stroke-opacity="1" x1="572" y1="294" x2="574" y2="285" />
	<line stroke="black" stroke-opacity="1" x1="759" y1="197" x2="572" y2="294" />
</g>
<g>
	<line stroke="black" stroke-opacity="1" x1="67" y1="156" x2="69" y2="85" />
	<line stroke="black" stroke-opacity="1" x1="70" y1="80" x2="63" y2="85" />
	<line stroke="black" stroke-opacity="1" x1="70" y1="80" x2="75" y2="86" />
	<line stroke="black" stroke-opacity="1" x1="63" y1="85" x2="75" y2="86" />
</g>
<g>
	<line stroke="black" stroke-opacity="1" x1="240" y1="166" x2="245" y2="139" />
	<line stroke="black" stroke-opacity="1" x1="247" y1="134" x2="239" y2="138" />
	<line stroke="black" stroke-opacity="1" x1="247" y1="134" x2="251" y2="141" />
	<line stroke="black" stroke-opacity="1" x1="239" y1="138" x2="251" y2="141" />
</g>
<g>
	<line stroke="black" stroke-opacity="1" x1="207" y1="237" x2="220" y2="210" />
	<line stroke="black" stroke-opacity="1" x1="223" y1="205" x2="214" y2="207" />
	<line stroke="black" stroke-opacity="1" x1="223" y1="205" x2="225" y2="213" />
	<line stroke="black" stroke-opacity="1" x1="214" y1="207" x2="225" y2="213" />
</g>
<g>
	<line stroke="black" stroke-opacity="1" x1="55" y1="266" x2="63" y2="200" />
	<line stroke="black" stroke-opacity="1" x1="64" y1="195" x2="57" y2="200" />
	<line stroke="black" stroke-opacity="1" x1="64" y1="195" x2="69" y2="201" />
	<line stroke="black" stroke-opacity="1" x1="57" y1="200" x2="69" y2="201" />
</g>
<g>
	<line stroke="black" stroke-opacity="1" x1="276" y1="258" x2="248" y2="210" />
	<line stroke="black" stroke-opacity="1" x1="246" y1="205" x2="243" y2="213" />
	<line stroke="black" stroke-opacity="1" x1="246" y1="205" x2="254" y2="207" />
	<line stroke="black" stroke-opacity="1" x1="243" y1="213" x2="254" y2="207" />
</g>
<g>
	<line stroke="black" stroke-opacity="1" x1="787" y1="158" x2="750" y2="83" />
	<line stroke="black" stroke-opacity="1" x1="748" y1="78" x2="745" y2="86" />
	<line stroke="black" stroke-opacity="1" x1="748" y1="78" x2="756" y2="80" />
	<line stroke="black" stroke-opacity="1" x1="745" y1="86" x2="756" y2="80" />
</g>
<g>
	<line stroke="black" stroke-opacity="1" x1="122" y1="300" x2="76" y2="200" />
	<line stroke="black" stroke-opacity="1" x1="74" y1="195" x2="71" y2="202" />
	<line stroke="black" stroke-opacity="1" x1="74" y1="195" x2="81" y2="197" />
	<line stroke="black" stroke-opacity="1" x1="71" y1="202" x2="81" y2="197" />
</g>
<g>
	<text font-family="Sans Serif" font-size="9" fill="#000000" xml:space="preserve" x="472" y="170">presentation</text>
</g>
<g>
	<text font-family="Sans Serif" font-size="9" fill="#000000" xml:space="preserve" x="418" y="171">controle</text>
</g>
<g>
	<text font-family="Sans Serif" font-size="9" fill="#000000" xml:space="preserve" x="633" y="169">moduleView</text>
</g>
<g>
	<text font-family="Sans Serif" font-size="9" fill="#000000" xml:space="preserve" x="462" y="289">scene</text>
</g>
<g>
	<text font-family="Sans Serif" font-size="9" fill="#000000" xml:space="preserve" x="575" y="277">scene</text>
</g>
</svg>
