<?xml version="1.0" encoding="UTF-8" standalone="no"?>
<!-- Created with Bouml (http://bouml.free.fr/) -->
<!DOCTYPE svg PUBLIC "-//W3C//DTD SVG 1.1//EN" "http://www.w3.org/Graphics/SVG/1.1/DTD/svg11.dtd">
<svg width="428" height="207" version="1.1" xmlns="http://www.w3.org/2000/svg">
<g>
	<rect fill="#808080" stroke="none" stroke-opacity="1" x="126" y="6" width="3" height="35" />
	<rect fill="#808080" stroke="none" stroke-opacity="1" x="82" y="38" width="47" height="3" />
	<rect fill="#ffffc0" stroke="black" stroke-width="1" stroke-opacity="1" x="78" y="2" width="48" height="36" />
	<text font-family="Helvetica" font-size="9" fill="#000000" xml:space="preserve" font-weight="bold" font-style="italic" text-anchor="middle" x="102" y="13">Module</text>
</g>
<g>
	<rect fill="#808080" stroke="none" stroke-opacity="1" x="412" y="80" width="3" height="35" />
	<rect fill="#808080" stroke="none" stroke-opacity="1" x="360" y="112" width="55" height="3" />
	<rect fill="#ffffc0" stroke="black" stroke-width="1" stroke-opacity="1" x="356" y="76" width="56" height="36" />
	<text font-family="Helvetica" font-size="9" fill="#000000" xml:space="preserve" font-weight="bold" text-anchor="middle" x="384" y="87">PModule</text>
</g>
<g>
	<rect fill="#808080" stroke="none" stroke-opacity="1" x="43" y="81" width="3" height="35" />
	<rect fill="#808080" stroke="none" stroke-opacity="1" x="7" y="113" width="39" height="3" />
	<rect fill="#ffffc0" stroke="black" stroke-width="1" stroke-opacity="1" x="3" y="77" width="40" height="36" />
	<text font-family="Helvetica" font-size="9" fill="#000000" xml:space="preserve" font-weight="bold" text-anchor="middle" x="23" y="88">VCF</text>
</g>
<g>
	<rect fill="#808080" stroke="none" stroke-opacity="1" x="205" y="80" width="3" height="35" />
	<rect fill="#808080" stroke="none" stroke-opacity="1" x="151" y="112" width="57" height="3" />
	<rect fill="#ffffc0" stroke="black" stroke-width="1" stroke-opacity="1" x="147" y="76" width="58" height="36" />
	<text font-family="Helvetica" font-size="9" fill="#000000" xml:space="preserve" font-weight="bold" text-anchor="middle" x="176" y="87">CModule</text>
</g>
<g>
	<rect fill="#808080" stroke="none" stroke-opacity="1" x="404" y="159" width="3" height="35" />
	<rect fill="#808080" stroke="none" stroke-opacity="1" x="368" y="191" width="39" height="3" />
	<rect fill="#ffffc0" stroke="black" stroke-width="1" stroke-opacity="1" x="364" y="155" width="40" height="36" />
	<text font-family="Helvetica" font-size="9" fill="#000000" xml:space="preserve" font-weight="bold" text-anchor="middle" x="384" y="166">PVCF</text>
</g>
<g>
	<line stroke="black" stroke-opacity="1" x1="44" y1="76" x2="74" y2="46" />
	<line stroke="black" stroke-opacity="1" x1="79" y1="42" x2="70" y2="41" />
	<line stroke="black" stroke-opacity="1" x1="79" y1="42" x2="78" y2="50" />
	<line stroke="black" stroke-opacity="1" x1="70" y1="41" x2="78" y2="50" />
</g>
<g>
	<line stroke="black" stroke-opacity="1" x1="157" y1="75" x2="128" y2="46" />
	<line stroke="black" stroke-opacity="1" x1="124" y1="42" x2="124" y2="50" />
	<line stroke="black" stroke-opacity="1" x1="124" y1="42" x2="132" y2="42" />
	<line stroke="black" stroke-opacity="1" x1="124" y1="50" x2="132" y2="42" />
</g>
<g>
	<line stroke="black" stroke-opacity="1" x1="209" y1="96" x2="355" y2="96" />
	<polygon fill="#000000" stroke="black" stroke-opacity="1" points="209,96 215,90 221,96 215,102" />
</g>
<g>
	<line stroke="black" stroke-opacity="1" x1="386" y1="154" x2="386" y2="122" />
	<line stroke="black" stroke-opacity="1" x1="386" y1="116" x2="380" y2="122" />
	<line stroke="black" stroke-opacity="1" x1="386" y1="116" x2="392" y2="122" />
	<line stroke="black" stroke-opacity="1" x1="380" y1="122" x2="392" y2="122" />
</g>
<g>
	<rect fill="#808080" stroke="none" stroke-opacity="1" x="117" y="155" width="3" height="35" />
	<rect fill="#808080" stroke="none" stroke-opacity="1" x="81" y="187" width="39" height="3" />
	<rect fill="#ffffc0" stroke="black" stroke-width="1" stroke-opacity="1" x="77" y="151" width="40" height="36" />
	<text font-family="Helvetica" font-size="9" fill="#000000" xml:space="preserve" font-weight="bold" text-anchor="middle" x="97" y="162">CVCF</text>
</g>
<g>
	<line stroke="black" stroke-opacity="1" x1="118" y1="150" x2="148" y2="120" />
	<line stroke="black" stroke-opacity="1" x1="153" y1="116" x2="144" y2="115" />
	<line stroke="black" stroke-opacity="1" x1="153" y1="116" x2="152" y2="124" />
	<line stroke="black" stroke-opacity="1" x1="144" y1="115" x2="152" y2="124" />
</g>
<g>
	<line stroke="black" stroke-opacity="1" x1="78" y1="150" x2="49" y2="121" />
	<line stroke="black" stroke-opacity="1" x1="45" y1="117" x2="45" y2="125" />
	<line stroke="black" stroke-opacity="1" x1="45" y1="117" x2="53" y2="117" />
	<line stroke="black" stroke-opacity="1" x1="45" y1="125" x2="53" y2="117" />
</g>
<g>
	<text font-family="Helvetica" font-size="9" fill="#000000" xml:space="preserve" x="277" y="84">presentation</text>
</g>
<g>
	<text font-family="Helvetica" font-size="9" fill="#000000" xml:space="preserve" x="219" y="84">control</text>
</g>
</svg>
