<?xml version="1.0" encoding="UTF-8" standalone="no"?>
<!-- Created with Bouml (http://bouml.free.fr/) -->
<!DOCTYPE svg PUBLIC "-//W3C//DTD SVG 1.1//EN" "http://www.w3.org/Graphics/SVG/1.1/DTD/svg11.dtd">
<svg width="1036" height="536" version="1.1" xmlns="http://www.w3.org/2000/svg">
<g>
	<rect fill="none" stroke="black" stroke-width="1" stroke-opacity="1" x="193" y="25" width="108" height="19" />
	<rect fill="none" stroke="black" stroke-width="1" stroke-opacity="1" x="193" y="44" width="272" height="261" />
	<text font-family="Helvetica" font-size="9" fill="#000000" xml:space="preserve" text-anchor="middle" x="329" y="56">module</text>
</g>
<g>
	<rect fill="#808080" stroke="none" stroke-opacity="1" x="265" y="255" width="3" height="35" />
	<rect fill="#808080" stroke="none" stroke-opacity="1" x="229" y="287" width="39" height="3" />
	<rect fill="#ffffc0" stroke="black" stroke-width="1" stroke-opacity="1" x="225" y="251" width="40" height="36" />
	<text font-family="Helvetica" font-size="9" fill="#000000" xml:space="preserve" font-weight="bold" text-anchor="middle" x="245" y="262">VCO</text>
	<line stroke="black" stroke-opacity="1" x1="225" y1="271" x2="265" y2="271" />
	<line stroke="black" stroke-opacity="1" x1="225" y1="279" x2="265" y2="279" />
</g>
<g>
	<rect fill="#808080" stroke="none" stroke-opacity="1" x="152" y="170" width="3" height="65" />
	<rect fill="#808080" stroke="none" stroke-opacity="1" x="30" y="232" width="125" height="3" />
	<rect fill="#ffffc0" stroke="black" stroke-width="1" stroke-opacity="1" x="26" y="166" width="126" height="66" />
	<text font-family="Helvetica" font-size="9" fill="#000000" xml:space="preserve" font-weight="bold" text-anchor="middle" x="89" y="177">Sequencer</text>
	<line stroke="black" stroke-opacity="1" x1="26" y1="186" x2="152" y2="186" />
	<line stroke="black" stroke-opacity="1" x1="26" y1="194" x2="152" y2="194" />
	<text font-family="Helvetica" font-size="9" fill="#000000" xml:space="preserve" font-weight="bold" x="30" y="205">+</text>
	<text font-family="Helvetica" font-size="9" fill="#000000" xml:space="preserve" x="44" y="205">process()</text>
	<text font-family="Helvetica" font-size="9" fill="#000000" xml:space="preserve" font-weight="bold" x="30" y="223">+</text>
	<text font-family="Helvetica" font-size="9" fill="#000000" xml:space="preserve" x="44" y="223">scheduleModules()</text>
</g>
<g>
	<rect fill="none" stroke="black" stroke-width="1" stroke-opacity="1" x="27" y="308" width="113" height="19" />
	<rect fill="none" stroke="black" stroke-width="1" stroke-opacity="1" x="27" y="327" width="286" height="197" />
	<text font-family="Helvetica" font-size="9" fill="#000000" xml:space="preserve" text-anchor="middle" x="170" y="339">wavegenerator</text>
</g>
<g>
	<rect fill="none" stroke="black" stroke-width="1" stroke-opacity="1" x="500" y="8" width="209" height="19" />
	<rect fill="none" stroke="black" stroke-width="1" stroke-opacity="1" x="500" y="27" width="524" height="495" />
	<text font-family="Helvetica" font-size="9" fill="#000000" xml:space="preserve" text-anchor="middle" x="762" y="39">component</text>
</g>
<g>
	<rect fill="#808080" stroke="none" stroke-opacity="1" x="156" y="68" width="3" height="35" />
	<rect fill="#808080" stroke="none" stroke-opacity="1" x="100" y="100" width="59" height="3" />
	<rect fill="#ffffc0" stroke="black" stroke-width="1" stroke-opacity="1" x="96" y="64" width="60" height="36" />
	<text font-family="Helvetica" font-size="9" fill="#000000" xml:space="preserve" font-weight="bold" text-anchor="middle" x="126" y="75">SynthPro</text>
	<line stroke="black" stroke-opacity="1" x1="96" y1="84" x2="156" y2="84" />
	<line stroke="black" stroke-opacity="1" x1="96" y1="92" x2="156" y2="92" />
</g>
<g>
	<rect fill="#808080" stroke="none" stroke-opacity="1" x="426" y="92" width="3" height="101" />
	<rect fill="#808080" stroke="none" stroke-opacity="1" x="264" y="190" width="165" height="3" />
	<rect fill="#ffffc0" stroke="black" stroke-width="1" stroke-opacity="1" x="260" y="88" width="166" height="102" />
	<text font-family="Helvetica" font-size="9" fill="#000000" xml:space="preserve" font-weight="bold" font-style="italic" text-anchor="middle" x="343" y="99">Module</text>
	<line stroke="black" stroke-opacity="1" x1="260" y1="108" x2="426" y2="108" />
	<line stroke="black" stroke-opacity="1" x1="260" y1="116" x2="426" y2="116" />
	<text font-family="Helvetica" font-size="9" fill="#000000" xml:space="preserve" font-weight="bold" x="264" y="127">+</text>
	<text font-family="Helvetica" font-size="9" fill="#000000" xml:space="preserve" x="278" y="127">requirements() : Module [*]</text>
	<text font-family="Helvetica" font-size="9" fill="#000000" xml:space="preserve" font-weight="bold" x="264" y="145">+</text>
	<text font-family="Helvetica" font-size="9" fill="#000000" xml:space="preserve" x="278" y="145">process()</text>
	<text font-family="Helvetica" font-size="9" fill="#000000" xml:space="preserve" font-weight="bold" x="264" y="163">#</text>
	<text font-family="Helvetica" font-size="9" fill="#000000" xml:space="preserve" x="278" y="163">fetchInput()</text>
	<text font-family="Helvetica" font-size="9" fill="#000000" xml:space="preserve" font-weight="bold" x="264" y="181">#</text>
	<text font-family="Helvetica" font-size="9" fill="#000000" xml:space="preserve" font-style="italic" x="278" y="181">ownProcess()</text>
</g>
<g>
	<rect fill="#808080" stroke="none" stroke-opacity="1" x="415" y="248" width="3" height="35" />
	<rect fill="#808080" stroke="none" stroke-opacity="1" x="379" y="280" width="39" height="3" />
	<rect fill="#ffffc0" stroke="black" stroke-width="1" stroke-opacity="1" x="375" y="244" width="40" height="36" />
	<text font-family="Helvetica" font-size="9" fill="#000000" xml:space="preserve" font-weight="bold" text-anchor="middle" x="395" y="255">VCF</text>
	<line stroke="black" stroke-opacity="1" x1="375" y1="264" x2="415" y2="264" />
	<line stroke="black" stroke-opacity="1" x1="375" y1="272" x2="415" y2="272" />
</g>
<g>
	<line stroke="black" stroke-opacity="1" x1="662" y1="284" x2="657" y2="210" />
	<line stroke="black" stroke-opacity="1" x1="657" y1="205" x2="651" y2="211" />
	<line stroke="black" stroke-opacity="1" x1="657" y1="205" x2="663" y2="210" />
	<line stroke="black" stroke-opacity="1" x1="651" y1="211" x2="663" y2="210" />
</g>
<g>
	<line stroke="black" stroke-opacity="1" x1="788" y1="405" x2="784" y2="397" />
	<line stroke="black" stroke-opacity="1" x1="788" y1="405" x2="780" y2="408" />
	<line stroke="black" stroke-opacity="1" x1="419" y1="271" x2="788" y2="405" />
	<polygon fill="#000000" stroke="black" stroke-opacity="1" points="419,271 426,267 430,275 422,278" />
</g>
<g>
	<line stroke="black" stroke-opacity="1" x1="160" y1="91" x2="259" y2="117" />
	<polygon fill="#000000" stroke="black" stroke-opacity="1" points="160,91 167,86 171,94 164,98" />
</g>
<g>
	<line stroke="black" stroke-opacity="1" x1="259" y1="160" x2="251" y2="155" />
	<line stroke="black" stroke-opacity="1" x1="259" y1="160" x2="254" y2="167" />
	<line stroke="black" stroke-opacity="1" x1="156" y1="185" x2="259" y2="160" />
</g>
<g>
	<line stroke="black" stroke-opacity="1" x1="880" y1="305" x2="888" y2="303" />
	<line stroke="black" stroke-opacity="1" x1="880" y1="305" x2="878" y2="296" />
	<line stroke="black" stroke-opacity="1" x1="914" y1="260" x2="880" y2="305" />
</g>
<g>
	<line stroke="black" stroke-opacity="1" x1="206" y1="464" x2="186" y2="431" />
	<line stroke="black" stroke-opacity="1" x1="183" y1="426" x2="180" y2="434" />
	<line stroke="black" stroke-opacity="1" x1="183" y1="426" x2="191" y2="428" />
	<line stroke="black" stroke-opacity="1" x1="180" y1="434" x2="191" y2="428" />
</g>
<g>
	<line stroke="black" stroke-opacity="1" x1="695" y1="302" x2="702" y2="306" />
	<line stroke="black" stroke-opacity="1" x1="695" y1="302" x2="699" y2="294" />
	<line stroke="black" stroke-opacity="1" x1="891" y1="248" x2="695" y2="302" />
</g>
<g>
	<line stroke="black" stroke-opacity="1" x1="843" y1="305" x2="741" y2="209" />
	<line stroke="black" stroke-opacity="1" x1="737" y1="205" x2="737" y2="213" />
	<line stroke="black" stroke-opacity="1" x1="737" y1="205" x2="745" y2="204" />
	<line stroke="black" stroke-opacity="1" x1="737" y1="213" x2="745" y2="204" />
</g>
<g>
	<line stroke="black" stroke-opacity="1" x1="430" y1="170" x2="837" y2="315" />
	<polygon fill="#000000" stroke="black" stroke-opacity="1" points="430,170 437,166 441,174 433,177" />
</g>
<g>
	<line stroke="black" stroke-opacity="1" x1="261" y1="250" x2="299" y2="198" />
	<line stroke="black" stroke-opacity="1" x1="303" y1="194" x2="294" y2="195" />
	<line stroke="black" stroke-opacity="1" x1="303" y1="194" x2="304" y2="202" />
	<line stroke="black" stroke-opacity="1" x1="294" y1="195" x2="304" y2="202" />
</g>
<g>
	<line stroke="black" stroke-opacity="1" x1="871" y1="122" x2="864" y2="116" />
	<line stroke="black" stroke-opacity="1" x1="871" y1="122" x2="865" y2="128" />
	<line stroke="black" stroke-opacity="1" x1="786" y1="125" x2="871" y2="122" />
	<polygon fill="#000000" stroke="black" stroke-opacity="1" points="786,125 791,118 797,124 792,130" />
</g>
<g>
	<line stroke="black" stroke-opacity="1" x1="788" y1="423" x2="783" y2="415" />
	<line stroke="black" stroke-opacity="1" x1="788" y1="423" x2="780" y2="427" />
	<line stroke="black" stroke-opacity="1" x1="269" y1="269" x2="788" y2="423" />
	<polygon fill="#000000" stroke="black" stroke-opacity="1" points="269,269 276,264 280,272 273,276" />
</g>
<g>
	<line stroke="black" stroke-opacity="1" x1="558" y1="402" x2="557" y2="393" />
	<line stroke="black" stroke-opacity="1" x1="558" y1="402" x2="549" y2="402" />
	<line stroke="black" stroke-opacity="1" x1="419" y1="283" x2="558" y2="402" />
	<polygon fill="#000000" stroke="black" stroke-opacity="1" points="419,283 427,282 428,290 419,291" />
</g>
<g>
	<line stroke="black" stroke-opacity="1" x1="387" y1="243" x2="368" y2="199" />
	<line stroke="black" stroke-opacity="1" x1="366" y1="194" x2="362" y2="201" />
	<line stroke="black" stroke-opacity="1" x1="366" y1="194" x2="373" y2="197" />
	<line stroke="black" stroke-opacity="1" x1="362" y1="201" x2="373" y2="197" />
</g>
<g>
	<line stroke="black" stroke-opacity="1" x1="110" y1="463" x2="138" y2="430" />
	<line stroke="black" stroke-opacity="1" x1="142" y1="426" x2="133" y2="426" />
	<line stroke="black" stroke-opacity="1" x1="142" y1="426" x2="142" y2="434" />
	<line stroke="black" stroke-opacity="1" x1="133" y1="426" x2="142" y2="434" />
</g>
<g>
	<line stroke="black" stroke-opacity="1" x1="210" y1="373" x2="217" y2="368" />
	<line stroke="black" stroke-opacity="1" x1="210" y1="373" x2="205" y2="365" />
	<line stroke="black" stroke-opacity="1" x1="233" y1="291" x2="210" y2="373" />
</g>
<g>
	<line stroke="black" stroke-opacity="1" x1="891" y1="224" x2="887" y2="216" />
	<line stroke="black" stroke-opacity="1" x1="891" y1="224" x2="883" y2="227" />
	<line stroke="black" stroke-opacity="1" x1="786" y1="181" x2="891" y2="224" />
	<polygon fill="#000000" stroke="black" stroke-opacity="1" points="786,181 793,177 797,185 789,188" />
</g>
<g>
	<line stroke="black" stroke-opacity="1" x1="430" y1="185" x2="634" y2="295" />
	<polygon fill="#000000" stroke="black" stroke-opacity="1" points="430,185 438,182 440,190 432,193" />
</g>
<g>
	<rect fill="#808080" stroke="none" stroke-opacity="1" x="964" y="224" width="3" height="35" />
	<rect fill="#808080" stroke="none" stroke-opacity="1" x="896" y="256" width="71" height="3" />
	<rect fill="#ffffc0" stroke="black" stroke-width="1" stroke-opacity="1" x="892" y="220" width="72" height="36" />
	<text font-family="Helvetica" font-size="9" fill="#000000" xml:space="preserve" font-weight="bold" text-anchor="middle" x="928" y="231">Connection</text>
	<line stroke="black" stroke-opacity="1" x1="892" y1="240" x2="964" y2="240" />
	<line stroke="black" stroke-opacity="1" x1="892" y1="248" x2="964" y2="248" />
</g>
<g>
	<rect fill="#808080" stroke="none" stroke-opacity="1" x="913" y="401" width="3" height="59" />
	<rect fill="#808080" stroke="none" stroke-opacity="1" x="793" y="457" width="123" height="3" />
	<rect fill="#ffffc0" stroke="black" stroke-width="1" stroke-opacity="1" x="789" y="397" width="124" height="60" />
	<text font-family="Helvetica" font-size="9" fill="#000000" xml:space="preserve" font-weight="bold" text-anchor="middle" x="851" y="408">Selector</text>
	<line stroke="black" stroke-opacity="1" x1="789" y1="417" x2="913" y2="417" />
	<text font-family="Helvetica" font-size="9" fill="#000000" xml:space="preserve" font-weight="bold" x="793" y="428">-</text>
	<text font-family="Helvetica" font-size="9" fill="#000000" xml:space="preserve" x="807" y="428">choices : Integer [*]</text>
	<line stroke="black" stroke-opacity="1" x1="789" y1="437" x2="913" y2="437" />
	<text font-family="Helvetica" font-size="9" fill="#000000" xml:space="preserve" font-weight="bold" x="793" y="448">+</text>
	<text font-family="Helvetica" font-size="9" fill="#000000" xml:space="preserve" x="807" y="448">choice() : Integer</text>
</g>
<g>
	<rect fill="#808080" stroke="none" stroke-opacity="1" x="782" y="55" width="3" height="149" />
	<rect fill="#808080" stroke="none" stroke-opacity="1" x="528" y="201" width="257" height="3" />
	<rect fill="#ffffc0" stroke="black" stroke-width="1" stroke-opacity="1" x="524" y="51" width="258" height="150" />
	<text font-family="Helvetica" font-size="9" fill="#000000" xml:space="preserve" font-weight="bold" font-style="italic" text-anchor="middle" x="653" y="62">VirtualPort</text>
	<line stroke="black" stroke-opacity="1" x1="524" y1="71" x2="782" y2="71" />
	<text font-family="Helvetica" font-size="9" fill="#000000" xml:space="preserve" font-weight="bold" x="528" y="82">-</text>
	<text font-family="Helvetica" font-size="9" fill="#000000" xml:space="preserve" x="542" y="82">name : String</text>
	<text font-family="Helvetica" font-size="9" fill="#000000" xml:space="preserve" font-weight="bold" x="528" y="100">-</text>
	<text font-family="Helvetica" font-size="9" fill="#000000" xml:space="preserve" x="542" y="100">replicable : Boolean</text>
	<text font-family="Helvetica" font-size="9" fill="#000000" xml:space="preserve" font-weight="bold" x="528" y="118">-</text>
	<text font-family="Helvetica" font-size="9" fill="#000000" xml:space="preserve" x="542" y="118">gate : Boolean</text>
	<line stroke="black" stroke-opacity="1" x1="524" y1="127" x2="782" y2="127" />
	<text font-family="Helvetica" font-size="9" fill="#000000" xml:space="preserve" font-weight="bold" x="528" y="138">+</text>
	<text font-family="Helvetica" font-size="9" fill="#000000" xml:space="preserve" x="542" y="138">connect(in other : VirtualPort) : Connection</text>
	<text font-family="Helvetica" font-size="9" fill="#000000" xml:space="preserve" font-weight="bold" x="528" y="156">+</text>
	<text font-family="Helvetica" font-size="9" fill="#000000" xml:space="preserve" x="542" y="156">disconnect(in  : Connection) : Boolean</text>
	<text font-family="Helvetica" font-size="9" fill="#000000" xml:space="preserve" font-weight="bold" x="528" y="174">+</text>
	<text font-family="Helvetica" font-size="9" fill="#000000" xml:space="preserve" x="542" y="174">connectable(in other : VirtualPort) : Boolean</text>
	<text font-family="Helvetica" font-size="9" fill="#000000" xml:space="preserve" font-weight="bold" x="528" y="192">+</text>
	<text font-family="Helvetica" font-size="9" fill="#000000" xml:space="preserve" x="542" y="192">available() : Boolean</text>
</g>
<g>
	<rect fill="#808080" stroke="none" stroke-opacity="1" x="890" y="310" width="3" height="35" />
	<rect fill="#808080" stroke="none" stroke-opacity="1" x="842" y="342" width="51" height="3" />
	<rect fill="#ffffc0" stroke="black" stroke-width="1" stroke-opacity="1" x="838" y="306" width="52" height="36" />
	<text font-family="Helvetica" font-size="9" fill="#000000" xml:space="preserve" font-weight="bold" text-anchor="middle" x="864" y="317">OutPort</text>
	<line stroke="black" stroke-opacity="1" x1="838" y1="326" x2="890" y2="326" />
	<line stroke="black" stroke-opacity="1" x1="838" y1="334" x2="890" y2="334" />
</g>
<g>
	<rect fill="#808080" stroke="none" stroke-opacity="1" x="691" y="289" width="3" height="47" />
	<rect fill="#808080" stroke="none" stroke-opacity="1" x="639" y="333" width="55" height="3" />
	<rect fill="#ffffc0" stroke="black" stroke-width="1" stroke-opacity="1" x="635" y="285" width="56" height="48" />
	<text font-family="Helvetica" font-size="9" fill="#000000" xml:space="preserve" font-weight="bold" text-anchor="middle" x="663" y="296">InPort</text>
	<line stroke="black" stroke-opacity="1" x1="635" y1="305" x2="691" y2="305" />
	<line stroke="black" stroke-opacity="1" x1="635" y1="313" x2="691" y2="313" />
	<text font-family="Helvetica" font-size="9" fill="#000000" xml:space="preserve" font-weight="bold" x="639" y="324">+</text>
	<text font-family="Helvetica" font-size="9" fill="#000000" xml:space="preserve" x="653" y="324">fetch()</text>
</g>
<g>
	<rect fill="#808080" stroke="none" stroke-opacity="1" x="651" y="407" width="3" height="77" />
	<rect fill="#808080" stroke="none" stroke-opacity="1" x="561" y="481" width="93" height="3" />
	<rect fill="#ffffc0" stroke="black" stroke-width="1" stroke-opacity="1" x="557" y="403" width="94" height="78" />
	<text font-family="Helvetica" font-size="9" fill="#000000" xml:space="preserve" font-weight="bold" text-anchor="middle" x="604" y="414">Dimmer</text>
	<line stroke="black" stroke-opacity="1" x1="557" y1="423" x2="651" y2="423" />
	<text font-family="Helvetica" font-size="9" fill="#000000" xml:space="preserve" font-weight="bold" x="561" y="434">-</text>
	<text font-family="Helvetica" font-size="9" fill="#000000" xml:space="preserve" x="575" y="434">min : Real</text>
	<text font-family="Helvetica" font-size="9" fill="#000000" xml:space="preserve" font-weight="bold" x="561" y="452">-</text>
	<text font-family="Helvetica" font-size="9" fill="#000000" xml:space="preserve" x="575" y="452">max : Real</text>
	<line stroke="black" stroke-opacity="1" x1="557" y1="461" x2="651" y2="461" />
	<text font-family="Helvetica" font-size="9" fill="#000000" xml:space="preserve" font-weight="bold" x="561" y="472">+</text>
	<text font-family="Helvetica" font-size="9" fill="#000000" xml:space="preserve" x="575" y="472">value() : Real</text>
</g>
<g>
	<rect fill="#808080" stroke="none" stroke-opacity="1" x="982" y="91" width="3" height="65" />
	<rect fill="#808080" stroke="none" stroke-opacity="1" x="876" y="153" width="109" height="3" />
	<rect fill="#ffffc0" stroke="black" stroke-width="1" stroke-opacity="1" x="872" y="87" width="110" height="66" />
	<text font-family="Helvetica" font-size="9" fill="#000000" xml:space="preserve" font-weight="bold" text-anchor="middle" x="927" y="98">Buffer</text>
	<line stroke="black" stroke-opacity="1" x1="872" y1="107" x2="982" y2="107" />
	<line stroke="black" stroke-opacity="1" x1="872" y1="115" x2="982" y2="115" />
	<text font-family="Helvetica" font-size="9" fill="#000000" xml:space="preserve" font-weight="bold" x="876" y="126">+</text>
	<text font-family="Helvetica" font-size="9" fill="#000000" xml:space="preserve" x="890" y="126">length() : Integer</text>
	<text font-family="Helvetica" font-size="9" fill="#000000" xml:space="preserve" font-weight="bold" x="876" y="144">+</text>
	<text font-family="Helvetica" font-size="9" fill="#000000" xml:space="preserve" x="890" y="144">data() : Real [*]</text>
</g>
<g>
	<rect fill="#808080" stroke="none" stroke-opacity="1" x="115" y="468" width="3" height="35" />
	<rect fill="#808080" stroke="none" stroke-opacity="1" x="71" y="500" width="47" height="3" />
	<rect fill="#ffffc0" stroke="black" stroke-width="1" stroke-opacity="1" x="67" y="464" width="48" height="36" />
	<text font-family="Helvetica" font-size="9" fill="#000000" xml:space="preserve" font-weight="bold" text-anchor="middle" x="91" y="475">Square</text>
	<line stroke="black" stroke-opacity="1" x1="67" y1="484" x2="115" y2="484" />
	<line stroke="black" stroke-opacity="1" x1="67" y1="492" x2="115" y2="492" />
</g>
<g>
	<rect fill="#808080" stroke="none" stroke-opacity="1" x="237" y="469" width="3" height="35" />
	<rect fill="#808080" stroke="none" stroke-opacity="1" x="201" y="501" width="39" height="3" />
	<rect fill="#ffffc0" stroke="black" stroke-width="1" stroke-opacity="1" x="197" y="465" width="40" height="36" />
	<text font-family="Helvetica" font-size="9" fill="#000000" xml:space="preserve" font-weight="bold" text-anchor="middle" x="217" y="476">Saw</text>
	<line stroke="black" stroke-opacity="1" x1="197" y1="485" x2="237" y2="485" />
	<line stroke="black" stroke-opacity="1" x1="197" y1="493" x2="237" y2="493" />
</g>
<g>
	<line stroke="black" stroke-opacity="1" x1="556" y1="447" x2="553" y2="438" />
	<line stroke="black" stroke-opacity="1" x1="556" y1="447" x2="547" y2="449" />
	<line stroke="black" stroke-opacity="1" x1="269" y1="282" x2="556" y2="447" />
	<polygon fill="#000000" stroke="black" stroke-opacity="1" points="269,282 277,279 279,287 271,290" />
</g>
<g>
	<rect fill="#808080" stroke="none" stroke-opacity="1" x="277" y="378" width="3" height="47" />
	<rect fill="#808080" stroke="none" stroke-opacity="1" x="61" y="422" width="219" height="3" />
	<rect fill="#ffffc0" stroke="black" stroke-width="1" stroke-opacity="1" x="57" y="374" width="220" height="48" />
	<text font-family="Helvetica" font-size="9" fill="#000000" xml:space="preserve" font-weight="bold" font-style="italic" text-anchor="middle" x="167" y="385">WaveGenarator</text>
	<line stroke="black" stroke-opacity="1" x1="57" y1="394" x2="277" y2="394" />
	<line stroke="black" stroke-opacity="1" x1="57" y1="402" x2="277" y2="402" />
	<text font-family="Helvetica" font-size="9" fill="#000000" xml:space="preserve" font-weight="bold" x="61" y="413">+</text>
	<text font-family="Helvetica" font-size="9" fill="#000000" xml:space="preserve" font-style="italic" x="75" y="413">generate(in in : Buffer, in out : Buffer)</text>
</g>
<g>
	<text font-family="Helvetica" font-size="9" fill="#000000" xml:space="preserve" x="705" y="288">target</text>
</g>
<g>
	<text font-family="Helvetica" font-size="9" fill="#000000" xml:space="preserve" x="705" y="317">1</text>
</g>
<g>
	<text font-family="Helvetica" font-size="9" fill="#000000" xml:space="preserve" x="869" y="208">connections</text>
</g>
<g>
	<text font-family="Helvetica" font-size="9" fill="#000000" xml:space="preserve" x="244" y="136">*</text>
</g>
<g>
	<text font-family="Helvetica" font-size="9" fill="#000000" xml:space="preserve" x="830" y="110">buffer</text>
</g>
<g>
	<text font-family="Helvetica" font-size="9" fill="#000000" xml:space="preserve" x="625" y="305">*</text>
</g>
<g>
	<text font-family="Helvetica" font-size="9" fill="#000000" xml:space="preserve" x="222" y="361">waveGenerator</text>
</g>
<g>
	<text font-family="Helvetica" font-size="9" fill="#000000" xml:space="preserve" x="211" y="103">modules</text>
</g>
<g>
	<text font-family="Helvetica" font-size="9" fill="#000000" xml:space="preserve" x="829" y="324">*</text>
</g>
<g>
	<text font-family="Helvetica" font-size="9" fill="#000000" xml:space="preserve" x="854" y="139">1</text>
</g>
<g>
	<text font-family="Helvetica" font-size="9" fill="#000000" xml:space="preserve" x="751" y="413">sape</text>
</g>
<g>
	<text font-family="Helvetica" font-size="9" fill="#000000" xml:space="preserve" x="749" y="387">filterType</text>
</g>
<g>
	<text font-family="Helvetica" font-size="9" fill="#000000" xml:space="preserve" x="876" y="245">*</text>
</g>
<g>
	<text font-family="Helvetica" font-size="9" fill="#000000" xml:space="preserve" x="195" y="361">1</text>
</g>
<g>
	<text font-family="Helvetica" font-size="9" fill="#000000" xml:space="preserve" x="244" y="175">*</text>
</g>
<g>
	<text font-family="Helvetica" font-size="9" fill="#000000" xml:space="preserve" x="170" y="160">sortedModules</text>
</g>
<g>
	<text font-family="Helvetica" font-size="9" fill="#000000" xml:space="preserve" x="527" y="440">vfm</text>
</g>
<g>
	<text font-family="Helvetica" font-size="9" fill="#000000" xml:space="preserve" x="896" y="293">source</text>
</g>
<g>
	<text font-family="Helvetica" font-size="9" fill="#000000" xml:space="preserve" x="869" y="293">1</text>
</g>
<g>
	<text font-family="Helvetica" font-size="9" fill="#000000" xml:space="preserve" x="508" y="396">cutFreq</text>
</g>
</svg>
