<?xml version="1.0" encoding="UTF-8" standalone="no"?>
<!-- Created with Bouml (http://bouml.free.fr/) -->
<!DOCTYPE svg PUBLIC "-//W3C//DTD SVG 1.1//EN" "http://www.w3.org/Graphics/SVG/1.1/DTD/svg11.dtd">
<svg width="582" height="374" version="1.1" xmlns="http://www.w3.org/2000/svg">
<g>
	<rect fill="#808080" stroke="none" stroke-opacity="1" x="171" y="136" width="3" height="55" />
	<rect fill="#808080" stroke="none" stroke-opacity="1" x="45" y="188" width="129" height="3" />
	<rect fill="#ffffc0" stroke="black" stroke-width="1" stroke-opacity="1" x="41" y="132" width="130" height="56" />
	<text font-family="Helvetica" font-size="9" fill="#000000" xml:space="preserve" text-anchor="middle" x="106" y="143">&lt;&lt;singleton&gt;&gt;</text>
	<text font-family="Helvetica" font-size="9" fill="#000000" xml:space="preserve" font-weight="bold" text-anchor="middle" x="106" y="163">AudioDeviceProvider</text>
	<line stroke="black" stroke-opacity="1" x1="41" y1="172" x2="171" y2="172" />
</g>
<g>
	<rect fill="#808080" stroke="none" stroke-opacity="1" x="183" y="11" width="3" height="55" />
	<rect fill="#808080" stroke="none" stroke-opacity="1" x="101" y="63" width="85" height="3" />
	<rect fill="#ffffc0" stroke="black" stroke-width="1" stroke-opacity="1" x="97" y="7" width="86" height="56" />
	<text font-family="Helvetica" font-size="9" fill="#000000" xml:space="preserve" text-anchor="middle" x="140" y="18">&lt;&lt;singleton&gt;&gt;</text>
	<text font-family="Helvetica" font-size="9" fill="#000000" xml:space="preserve" font-weight="bold" text-anchor="middle" x="140" y="38">Clock</text>
	<line stroke="black" stroke-opacity="1" x1="97" y1="47" x2="183" y2="47" />
</g>
<g>
	<rect fill="#808080" stroke="none" stroke-opacity="1" x="319" y="144" width="3" height="35" />
	<rect fill="#808080" stroke="none" stroke-opacity="1" x="275" y="176" width="47" height="3" />
	<rect fill="#ffffc0" stroke="black" stroke-width="1" stroke-opacity="1" x="271" y="140" width="48" height="36" />
	<text font-family="Helvetica" font-size="9" fill="#000000" xml:space="preserve" font-weight="bold" font-style="italic" text-anchor="middle" x="295" y="151">Module</text>
	<line stroke="black" stroke-opacity="1" x1="271" y1="160" x2="319" y2="160" />
</g>
<g>
	<rect fill="#808080" stroke="none" stroke-opacity="1" x="273" y="326" width="3" height="35" />
	<rect fill="#808080" stroke="none" stroke-opacity="1" x="221" y="358" width="55" height="3" />
	<rect fill="#ffffc0" stroke="black" stroke-width="1" stroke-opacity="1" x="217" y="322" width="56" height="36" />
	<text font-family="Helvetica" font-size="9" fill="#000000" xml:space="preserve" font-weight="bold" text-anchor="middle" x="245" y="333">Speaker</text>
	<line stroke="black" stroke-opacity="1" x1="217" y1="342" x2="273" y2="342" />
</g>
<g>
	<polygon fill="#c0ffff" stroke="black" stroke-opacity="1" points="2,236 188,236 188,246 198,246 198,354 2,354 2,236" />
	<line stroke="black" stroke-opacity="1" x1="188" y1="236" x2="198" y2="246" />
	<text font-family="Helvetica" font-size="9" fill="#000000" xml:space="preserve" x="12" y="262">En réalité, le speaker possède</text>
	<text font-family="Helvetica" font-size="9" fill="#000000" xml:space="preserve" x="12" y="279">une référence au QAudioOutput</text>
	<text font-family="Helvetica" font-size="9" fill="#000000" xml:space="preserve" x="12" y="296">et QIODevice, fournis par</text>
	<text font-family="Helvetica" font-size="9" fill="#000000" xml:space="preserve" x="12" y="313">AudioDeviceProvider au</text>
	<text font-family="Helvetica" font-size="9" fill="#000000" xml:space="preserve" x="12" y="330">moment de l'instanciation de</text>
	<text font-family="Helvetica" font-size="9" fill="#000000" xml:space="preserve" x="12" y="347">Speaker.</text>
</g>
<g>
	<line stroke="black" stroke-opacity="1" x1="216" y1="342" x2="108" y2="342" />
</g>
<g>
	<line stroke="black" stroke-opacity="1" x1="108" y1="192" x2="102" y2="198" />
	<line stroke="black" stroke-opacity="1" x1="108" y1="192" x2="114" y2="198" />
	<line stroke="black" stroke-opacity="1" x1="108" y1="342" x2="108" y2="192" />
</g>
<g>
	<rect fill="#808080" stroke="none" stroke-opacity="1" x="542" y="136" width="3" height="55" />
	<rect fill="#808080" stroke="none" stroke-opacity="1" x="460" y="188" width="85" height="3" />
	<rect fill="#ffffc0" stroke="black" stroke-width="1" stroke-opacity="1" x="456" y="132" width="86" height="56" />
	<text font-family="Helvetica" font-size="9" fill="#000000" xml:space="preserve" text-anchor="middle" x="499" y="143">&lt;&lt;singleton&gt;&gt;</text>
	<text font-family="Helvetica" font-size="9" fill="#000000" xml:space="preserve" font-weight="bold" text-anchor="middle" x="499" y="163">Sequencer</text>
	<line stroke="black" stroke-opacity="1" x1="456" y1="172" x2="542" y2="172" />
</g>
<g>
	<line stroke="black" stroke-opacity="1" x1="323" y1="160" x2="329" y2="166" />
	<line stroke="black" stroke-opacity="1" x1="323" y1="160" x2="329" y2="154" />
	<line stroke="black" stroke-opacity="1" x1="455" y1="160" x2="323" y2="160" />
</g>
<g>
	<line stroke="black" stroke-opacity="1" x1="277" y1="341" x2="500" y2="341" />
</g>
<g>
	<line stroke="black" stroke-opacity="1" x1="500" y1="192" x2="494" y2="198" />
	<line stroke="black" stroke-opacity="1" x1="500" y1="192" x2="506" y2="198" />
	<line stroke="black" stroke-opacity="1" x1="500" y1="341" x2="500" y2="192" />
</g>
<g>
	<line stroke="black" stroke-opacity="1" x1="187" y1="36" x2="501" y2="36" />
</g>
<g>
	<line stroke="black" stroke-opacity="1" x1="501" y1="131" x2="507" y2="125" />
	<line stroke="black" stroke-opacity="1" x1="501" y1="131" x2="495" y2="125" />
	<line stroke="black" stroke-opacity="1" x1="501" y1="36" x2="501" y2="131" />
</g>
<g>
	<rect fill="#808080" stroke="none" stroke-opacity="1" x="319" y="232" width="3" height="35" />
	<rect fill="#808080" stroke="none" stroke-opacity="1" x="205" y="264" width="117" height="3" />
	<rect fill="#ffffc0" stroke="black" stroke-width="1" stroke-opacity="1" x="201" y="228" width="118" height="36" />
	<text font-family="Helvetica" font-size="9" fill="#000000" xml:space="preserve" font-weight="bold" font-style="italic" text-anchor="middle" x="260" y="239">TimeCriticalModule</text>
	<line stroke="black" stroke-opacity="1" x1="201" y1="248" x2="319" y2="248" />
</g>
<g>
	<line stroke="black" stroke-opacity="1" x1="248" y1="321" x2="248" y2="273" />
	<line stroke="black" stroke-opacity="1" x1="249" y1="268" x2="242" y2="273" />
	<line stroke="black" stroke-opacity="1" x1="249" y1="268" x2="254" y2="274" />
	<line stroke="black" stroke-opacity="1" x1="242" y1="273" x2="254" y2="274" />
</g>
<g>
	<line stroke="black" stroke-opacity="1" x1="187" y1="61" x2="232" y2="61" />
</g>
<g>
	<line stroke="black" stroke-opacity="1" x1="232" y1="227" x2="238" y2="221" />
	<line stroke="black" stroke-opacity="1" x1="232" y1="227" x2="226" y2="221" />
	<line stroke="black" stroke-opacity="1" x1="232" y1="61" x2="232" y2="227" />
</g>
<g>
	<line stroke="black" stroke-opacity="1" x1="307" y1="227" x2="307" y2="186" />
	<line stroke="black" stroke-opacity="1" x1="307" y1="180" x2="301" y2="186" />
	<line stroke="black" stroke-opacity="1" x1="307" y1="180" x2="313" y2="186" />
	<line stroke="black" stroke-opacity="1" x1="301" y1="186" x2="313" y2="186" />
</g>
<g>
	<text font-family="Helvetica" font-size="9" fill="#000000" xml:space="preserve" x="333" y="148">sortedModules</text>
</g>
<g>
	<text font-family="Helvetica" font-size="9" fill="#000000" xml:space="preserve" x="333" y="177">*</text>
</g>
<g>
	<text font-family="Helvetica" font-size="9" fill="#000000" xml:space="preserve" x="510" y="209">sequencer</text>
</g>
<g>
	<text font-family="Helvetica" font-size="9" fill="#000000" xml:space="preserve" x="511" y="119">sequencer</text>
</g>
<g>
	<text font-family="Helvetica" font-size="9" fill="#000000" xml:space="preserve" x="118" y="209">audioDeviceProvider</text>
</g>
<g>
	<text font-family="Helvetica" font-size="9" fill="#000000" xml:space="preserve" x="209" y="188">&lt;&lt;map&gt;&gt;</text>
</g>
<g>
	<text font-family="Helvetica" font-size="9" fill="#000000" xml:space="preserve" x="242" y="215">fastTimers</text>
</g>
<g>
	<text font-family="Helvetica" font-size="9" fill="#000000" xml:space="preserve" x="217" y="215">*</text>
</g>
</svg>
