<?xml version="1.0" encoding="UTF-8" standalone="no"?>
<!-- Created with Bouml (http://bouml.free.fr/) -->
<!DOCTYPE svg PUBLIC "-//W3C//DTD SVG 1.1//EN" "http://www.w3.org/Graphics/SVG/1.1/DTD/svg11.dtd">
<svg width="582" height="374" version="1.1" xmlns="http://www.w3.org/2000/svg">
<g>
	<rect fill="#808080" stroke="none" stroke-opacity="1" x="171" y="136" width="3" height="55" />
	<rect fill="#808080" stroke="none" stroke-opacity="1" x="45" y="188" width="129" height="3" />
	<rect fill="#ffffc0" stroke="black" stroke-width="1" stroke-opacity="1" x="41" y="132" width="130" height="56" />
	<text font-family="Helvetica" font-size="9" fill="#000000" xml:space="preserve" text-anchor="middle" x="106" y="143">&lt;&lt;singleton&gt;&gt;</text>
	<text font-family="Helvetica" font-size="9" fill="#000000" xml:space="preserve" font-weight="bold" text-anchor="middle" x="106" y="163">AudioDeviceProvider</text>
	<line stroke="black" stroke-opacity="1" x1="41" y1="172" x2="171" y2="172" />
</g>
<g>
	<rect fill="#808080" stroke="none" stroke-opacity="1" x="183" y="11" width="3" height="55" />
	<rect fill="#808080" stroke="none" stroke-opacity="1" x="101" y="63" width="85" height="3" />
	<rect fill="#ffffc0" stroke="black" stroke-width="1" stroke-opacity="1" x="97" y="7" width="86" height="56" />
	<text font-family="Helvetica" font-size="9" fill="#000000" xml:space="preserve" text-anchor="middle" x="140" y="18">&lt;&lt;singleton&gt;&gt;</text>
	<text font-family="Helvetica" font-size="9" fill="#000000" xml:space="preserve" font-weight="bold" text-anchor="middle" x="140" y="38">Clock</text>
	<line stroke="black" stroke-opacity="1" x1="97" y1="47" x2="183" y2="47" />
</g>
<g>
	<rect fill="#808080" stroke="none" stroke-opacity="1" x="319" y="144" width="3" height="35" />
	<rect fill="#808080" stroke="none" stroke-opacity="1" x="275" y="176" width="47" height="3" />
	<rect fill="#ffffc0" stroke="black" stroke-width="1" stroke-opacity="1" x="271" y="140" width="48" height="36" />
	<text font-family="Helvetica" font-size="9" fill="#000000" xml:space="preserve" font-weight="bold" font-style="italic" text-anchor="middle" x="295" y="151">Module</text>
	<line stroke="black" stroke-opacity="1" x1="271" y1="160" x2="319" y2="160" />
</g>
<g>
	<rect fill="#808080" stroke="none" stroke-opacity="1" x="273" y="326" width="3" height="35" />
	<rect fill="#808080" stroke="none" stroke-opacity="1" x="221" y="358" width="55" height="3" />
	<rect fill="#ffffc0" stroke="black" stroke-width="1" stroke-opacity="1" x="217" y="322" width="56" height="36" />
	<text font-family="Helvetica" font-size="9" fill="#000000" xml:space="preserve" font-weight="bold" text-anchor="middle" x="245" y="333">Speaker</text>
	<line stroke="black" stroke-opacity="1" x1="217" y1="342" x2="273" y2="342" />
</g>
<g>
	<line stroke="black" stroke-opacity="1" x1="133" y1="131" x2="139" y2="125" />
	<line stroke="black" stroke-opacity="1" x1="133" y1="131" x2="127" y2="125" />
	<line stroke="black" stroke-opacity="1" x1="133" y1="67" x2="133" y2="131" />
</g>
<g>
	<line stroke="black" stroke-opacity="1" x1="216" y1="342" x2="108" y2="342" />
</g>
<g>
	<line stroke="black" stroke-opacity="1" x1="108" y1="192" x2="102" y2="198" />
	<line stroke="black" stroke-opacity="1" x1="108" y1="192" x2="114" y2="198" />
	<line stroke="black" stroke-opacity="1" x1="108" y1="342" x2="108" y2="192" />
</g>
<g>
	<rect fill="#808080" stroke="none" stroke-opacity="1" x="542" y="136" width="3" height="55" />
	<rect fill="#808080" stroke="none" stroke-opacity="1" x="460" y="188" width="85" height="3" />
	<rect fill="#ffffc0" stroke="black" stroke-width="1" stroke-opacity="1" x="456" y="132" width="86" height="56" />
	<text font-family="Helvetica" font-size="9" fill="#000000" xml:space="preserve" text-anchor="middle" x="499" y="143">&lt;&lt;singleton&gt;&gt;</text>
	<text font-family="Helvetica" font-size="9" fill="#000000" xml:space="preserve" font-weight="bold" text-anchor="middle" x="499" y="163">Sequencer</text>
	<line stroke="black" stroke-opacity="1" x1="456" y1="172" x2="542" y2="172" />
</g>
<g>
	<line stroke="black" stroke-opacity="1" x1="323" y1="160" x2="329" y2="166" />
	<line stroke="black" stroke-opacity="1" x1="323" y1="160" x2="329" y2="154" />
	<line stroke="black" stroke-opacity="1" x1="455" y1="160" x2="323" y2="160" />
</g>
<g>
	<line stroke="black" stroke-opacity="1" x1="277" y1="341" x2="500" y2="341" />
</g>
<g>
	<line stroke="black" stroke-opacity="1" x1="187" y1="36" x2="501" y2="36" />
</g>
<g>
	<line stroke="black" stroke-opacity="1" x1="501" y1="131" x2="507" y2="125" />
	<line stroke="black" stroke-opacity="1" x1="501" y1="131" x2="495" y2="125" />
	<line stroke="black" stroke-opacity="1" x1="501" y1="36" x2="501" y2="131" />
</g>
<g>
	<line stroke="black" stroke-opacity="1" x1="500" y1="192" x2="494" y2="198" />
	<line stroke="black" stroke-opacity="1" x1="500" y1="192" x2="506" y2="198" />
	<line stroke="black" stroke-opacity="1" x1="500" y1="341" x2="500" y2="192" />
</g>
<g>
	<rect fill="#808080" stroke="none" stroke-opacity="1" x="307" y="228" width="3" height="35" />
	<rect fill="#808080" stroke="none" stroke-opacity="1" x="193" y="260" width="117" height="3" />
	<rect fill="#ffffc0" stroke="black" stroke-width="1" stroke-opacity="1" x="189" y="224" width="118" height="36" />
	<text font-family="Helvetica" font-size="9" fill="#000000" xml:space="preserve" font-weight="bold" text-anchor="middle" x="248" y="235">TimeCriticalModule</text>
	<line stroke="black" stroke-opacity="1" x1="189" y1="244" x2="307" y2="244" />
</g>
<g>
	<line stroke="black" stroke-opacity="1" x1="248" y1="321" x2="248" y2="269" />
	<line stroke="black" stroke-opacity="1" x1="249" y1="264" x2="242" y2="269" />
	<line stroke="black" stroke-opacity="1" x1="249" y1="264" x2="254" y2="270" />
	<line stroke="black" stroke-opacity="1" x1="242" y1="269" x2="254" y2="270" />
</g>
<g>
	<line stroke="black" stroke-opacity="1" x1="187" y1="61" x2="220" y2="61" />
</g>
<g>
	<line stroke="black" stroke-opacity="1" x1="295" y1="223" x2="295" y2="185" />
	<line stroke="black" stroke-opacity="1" x1="296" y1="180" x2="289" y2="185" />
	<line stroke="black" stroke-opacity="1" x1="296" y1="180" x2="301" y2="186" />
	<line stroke="black" stroke-opacity="1" x1="289" y1="185" x2="301" y2="186" />
</g>
<g>
	<line stroke="black" stroke-opacity="1" x1="220" y1="223" x2="226" y2="217" />
	<line stroke="black" stroke-opacity="1" x1="220" y1="223" x2="214" y2="217" />
	<line stroke="black" stroke-opacity="1" x1="220" y1="61" x2="220" y2="223" />
</g>
<g>
	<text font-family="Helvetica" font-size="9" fill="#000000" xml:space="preserve" x="333" y="148">sortedModules</text>
</g>
<g>
	<text font-family="Helvetica" font-size="9" fill="#000000" xml:space="preserve" x="333" y="177">*</text>
</g>
<g>
	<text font-family="Helvetica" font-size="9" fill="#000000" xml:space="preserve" x="511" y="119">sequencer</text>
</g>
<g>
	<text font-family="Helvetica" font-size="9" fill="#000000" xml:space="preserve" x="143" y="119">adp</text>
</g>
<g>
	<text font-family="Helvetica" font-size="9" fill="#000000" xml:space="preserve" x="510" y="209">sequencer</text>
</g>
<g>
	<text font-family="Helvetica" font-size="9" fill="#000000" xml:space="preserve" x="197" y="186">&lt;&lt;map&gt;&gt;</text>
</g>
<g>
	<text font-family="Helvetica" font-size="9" fill="#000000" xml:space="preserve" x="53" y="216">audioDeviceProvider</text>
</g>
<g>
	<text font-family="Helvetica" font-size="9" fill="#000000" xml:space="preserve" x="205" y="211">*</text>
</g>
<g>
	<text font-family="Helvetica" font-size="9" fill="#000000" xml:space="preserve" x="230" y="211">fastTimers</text>
</g>
</svg>
