<?xml version="1.0" encoding="UTF-8" standalone="no"?>
<!-- Created with Bouml (http://bouml.free.fr/) -->
<!DOCTYPE svg PUBLIC "-//W3C//DTD SVG 1.1//EN" "http://www.w3.org/Graphics/SVG/1.1/DTD/svg11.dtd">
<svg width="582" height="285" version="1.1" xmlns="http://www.w3.org/2000/svg">
<g>
	<rect fill="#808080" stroke="none" stroke-opacity="1" x="171" y="136" width="3" height="55" />
	<rect fill="#808080" stroke="none" stroke-opacity="1" x="45" y="188" width="129" height="3" />
	<rect fill="#ffffc0" stroke="black" stroke-width="1" stroke-opacity="1" x="41" y="132" width="130" height="56" />
	<text font-family="Helvetica" font-size="9" fill="#000000" xml:space="preserve" text-anchor="middle" x="106" y="143">&lt;&lt;singleton&gt;&gt;</text>
	<text font-family="Helvetica" font-size="9" fill="#000000" xml:space="preserve" font-weight="bold" text-anchor="middle" x="106" y="163">AudioDeviceProvider</text>
	<line stroke="black" stroke-opacity="1" x1="41" y1="172" x2="171" y2="172" />
</g>
<g>
	<rect fill="#808080" stroke="none" stroke-opacity="1" x="299" y="10" width="3" height="55" />
	<rect fill="#808080" stroke="none" stroke-opacity="1" x="217" y="62" width="85" height="3" />
	<rect fill="#ffffc0" stroke="black" stroke-width="1" stroke-opacity="1" x="213" y="6" width="86" height="56" />
	<text font-family="Helvetica" font-size="9" fill="#000000" xml:space="preserve" text-anchor="middle" x="256" y="17">&lt;&lt;singleton&gt;&gt;</text>
	<text font-family="Helvetica" font-size="9" fill="#000000" xml:space="preserve" font-weight="bold" text-anchor="middle" x="256" y="37">Clock</text>
	<line stroke="black" stroke-opacity="1" x1="213" y1="46" x2="299" y2="46" />
</g>
<g>
	<rect fill="#808080" stroke="none" stroke-opacity="1" x="283" y="147" width="3" height="35" />
	<rect fill="#808080" stroke="none" stroke-opacity="1" x="239" y="179" width="47" height="3" />
	<rect fill="#ffffc0" stroke="black" stroke-width="1" stroke-opacity="1" x="235" y="143" width="48" height="36" />
	<text font-family="Helvetica" font-size="9" fill="#000000" xml:space="preserve" font-weight="bold" font-style="italic" text-anchor="middle" x="259" y="154">Module</text>
	<line stroke="black" stroke-opacity="1" x1="235" y1="163" x2="283" y2="163" />
</g>
<g>
	<rect fill="#808080" stroke="none" stroke-opacity="1" x="298" y="237" width="3" height="35" />
	<rect fill="#808080" stroke="none" stroke-opacity="1" x="224" y="269" width="77" height="3" />
	<rect fill="#ffffc0" stroke="black" stroke-width="1" stroke-opacity="1" x="220" y="233" width="78" height="36" />
	<text font-family="Helvetica" font-size="9" fill="#000000" xml:space="preserve" font-weight="bold" text-anchor="middle" x="259" y="244">AudioOutput</text>
	<line stroke="black" stroke-opacity="1" x1="220" y1="253" x2="298" y2="253" />
</g>
<g>
	<line stroke="black" stroke-opacity="1" x1="257" y1="66" x2="257" y2="142" />
</g>
<g>
	<line stroke="black" stroke-opacity="1" x1="257" y1="66" x2="257" y2="136" />
	<line stroke="black" stroke-opacity="1" x1="258" y1="142" x2="263" y2="135" />
	<line stroke="black" stroke-opacity="1" x1="258" y1="142" x2="251" y2="136" />
	<line stroke="black" stroke-opacity="1" x1="263" y1="135" x2="251" y2="136" />
</g>
<g>
	<line stroke="black" stroke-opacity="1" x1="261" y1="232" x2="261" y2="189" />
	<line stroke="black" stroke-opacity="1" x1="261" y1="183" x2="255" y2="189" />
	<line stroke="black" stroke-opacity="1" x1="261" y1="183" x2="267" y2="189" />
	<line stroke="black" stroke-opacity="1" x1="255" y1="189" x2="267" y2="189" />
</g>
<g>
	<line stroke="black" stroke-opacity="1" x1="160" y1="192" x2="162" y2="200" />
	<line stroke="black" stroke-opacity="1" x1="160" y1="192" x2="168" y2="189" />
	<line stroke="black" stroke-opacity="1" x1="227" y1="232" x2="160" y2="192" />
</g>
<g>
	<line stroke="black" stroke-opacity="1" x1="119" y1="131" x2="127" y2="132" />
	<line stroke="black" stroke-opacity="1" x1="119" y1="131" x2="120" y2="122" />
	<line stroke="black" stroke-opacity="1" x1="220" y1="66" x2="119" y2="131" />
</g>
<g>
	<rect fill="#808080" stroke="none" stroke-opacity="1" x="543" y="138" width="3" height="55" />
	<rect fill="#808080" stroke="none" stroke-opacity="1" x="461" y="190" width="85" height="3" />
	<rect fill="#ffffc0" stroke="black" stroke-width="1" stroke-opacity="1" x="457" y="134" width="86" height="56" />
	<text font-family="Helvetica" font-size="9" fill="#000000" xml:space="preserve" text-anchor="middle" x="500" y="145">&lt;&lt;singleton&gt;&gt;</text>
	<text font-family="Helvetica" font-size="9" fill="#000000" xml:space="preserve" font-weight="bold" text-anchor="middle" x="500" y="165">Sequencer</text>
	<line stroke="black" stroke-opacity="1" x1="457" y1="174" x2="543" y2="174" />
</g>
<g>
	<line stroke="black" stroke-opacity="1" x1="287" y1="163" x2="293" y2="169" />
	<line stroke="black" stroke-opacity="1" x1="287" y1="163" x2="293" y2="157" />
	<line stroke="black" stroke-opacity="1" x1="456" y1="163" x2="287" y2="163" />
</g>
<g>
	<line stroke="black" stroke-opacity="1" x1="456" y1="178" x2="448" y2="174" />
	<line stroke="black" stroke-opacity="1" x1="456" y1="178" x2="452" y2="185" />
	<line stroke="black" stroke-opacity="1" x1="302" y1="235" x2="456" y2="178" />
</g>
<g>
	<line stroke="black" stroke-opacity="1" x1="303" y1="36" x2="501" y2="36" />
</g>
<g>
	<line stroke="black" stroke-opacity="1" x1="501" y1="133" x2="507" y2="127" />
	<line stroke="black" stroke-opacity="1" x1="501" y1="133" x2="495" y2="127" />
	<line stroke="black" stroke-opacity="1" x1="501" y1="36" x2="501" y2="133" />
</g>
<g>
	<text font-family="Helvetica" font-size="9" fill="#000000" xml:space="preserve" x="297" y="151">sortedModules</text>
</g>
<g>
	<text font-family="Helvetica" font-size="9" fill="#000000" xml:space="preserve" x="297" y="180">*</text>
</g>
<g>
	<text font-family="Helvetica" font-size="9" fill="#000000" xml:space="preserve" x="232" y="110">&lt;&lt;map&gt;&gt;</text>
</g>
<g>
	<text font-family="Helvetica" font-size="9" fill="#000000" xml:space="preserve" x="267" y="130">fastTimers</text>
</g>
<g>
	<text font-family="Helvetica" font-size="9" fill="#000000" xml:space="preserve" x="242" y="130">*</text>
</g>
<g>
	<text font-family="Helvetica" font-size="9" fill="#000000" xml:space="preserve" x="389" y="179">sequencer</text>
</g>
<g>
	<text font-family="Helvetica" font-size="9" fill="#000000" xml:space="preserve" x="439" y="192">1</text>
</g>
<g>
	<text font-family="Helvetica" font-size="9" fill="#000000" xml:space="preserve" x="159" y="211">adp</text>
</g>
<g>
	<text font-family="Helvetica" font-size="9" fill="#000000" xml:space="preserve" x="484" y="121">1</text>
</g>
<g>
	<text font-family="Helvetica" font-size="9" fill="#000000" xml:space="preserve" x="129" y="142">1</text>
</g>
<g>
	<text font-family="Helvetica" font-size="9" fill="#000000" xml:space="preserve" x="138" y="124">adp</text>
</g>
<g>
	<text font-family="Helvetica" font-size="9" fill="#000000" xml:space="preserve" x="511" y="121">sequencer</text>
</g>
</svg>
