<?xml version="1.0" encoding="UTF-8" standalone="no"?>
<!-- Created with Bouml (http://bouml.free.fr/) -->
<!DOCTYPE svg PUBLIC "-//W3C//DTD SVG 1.1//EN" "http://www.w3.org/Graphics/SVG/1.1/DTD/svg11.dtd">
<svg width="946" height="503" version="1.1" xmlns="http://www.w3.org/2000/svg">
<g>
	<rect fill="#808080" stroke="none" stroke-opacity="1" x="125" y="168" width="3" height="35" />
	<rect fill="#808080" stroke="none" stroke-opacity="1" x="81" y="200" width="47" height="3" />
	<rect fill="#ffffc0" stroke="black" stroke-width="1" stroke-opacity="1" x="77" y="164" width="48" height="36" />
	<text font-family="Helvetica" font-size="9" fill="#000000" xml:space="preserve" font-weight="bold" font-style="italic" text-anchor="middle" x="101" y="175">Module</text>
	<line stroke="black" stroke-opacity="1" x1="77" y1="184" x2="125" y2="184" />
</g>
<g>
	<rect fill="#808080" stroke="none" stroke-opacity="1" x="141" y="19" width="3" height="55" />
	<rect fill="#808080" stroke="none" stroke-opacity="1" x="59" y="71" width="85" height="3" />
	<rect fill="#ffffc0" stroke="black" stroke-width="1" stroke-opacity="1" x="55" y="15" width="86" height="56" />
	<text font-family="Helvetica" font-size="9" fill="#000000" xml:space="preserve" text-anchor="middle" x="98" y="26">&lt;&lt;singleton&gt;&gt;</text>
	<text font-family="Helvetica" font-size="9" fill="#000000" xml:space="preserve" font-weight="bold" text-anchor="middle" x="98" y="46">Clock</text>
	<line stroke="black" stroke-opacity="1" x1="55" y1="55" x2="141" y2="55" />
</g>
<g>
	<rect fill="#808080" stroke="none" stroke-opacity="1" x="425" y="20" width="3" height="55" />
	<rect fill="#808080" stroke="none" stroke-opacity="1" x="299" y="72" width="129" height="3" />
	<rect fill="#ffffc0" stroke="black" stroke-width="1" stroke-opacity="1" x="295" y="16" width="130" height="56" />
	<text font-family="Helvetica" font-size="9" fill="#000000" xml:space="preserve" text-anchor="middle" x="360" y="27">&lt;&lt;singleton&gt;&gt;</text>
	<text font-family="Helvetica" font-size="9" fill="#000000" xml:space="preserve" font-weight="bold" text-anchor="middle" x="360" y="47">AudioDeviceProvider</text>
	<line stroke="black" stroke-opacity="1" x1="295" y1="56" x2="425" y2="56" />
</g>
<g>
	<rect fill="#808080" stroke="none" stroke-opacity="1" x="141" y="272" width="3" height="35" />
	<rect fill="#808080" stroke="none" stroke-opacity="1" x="67" y="304" width="77" height="3" />
	<rect fill="#ffffc0" stroke="black" stroke-width="1" stroke-opacity="1" x="63" y="268" width="78" height="36" />
	<text font-family="Helvetica" font-size="9" fill="#000000" xml:space="preserve" font-weight="bold" text-anchor="middle" x="102" y="279">AudioOutput</text>
	<line stroke="black" stroke-opacity="1" x1="63" y1="288" x2="141" y2="288" />
</g>
<g>
	<line stroke="black" stroke-opacity="1" x1="103" y1="267" x2="103" y2="210" />
	<line stroke="black" stroke-opacity="1" x1="103" y1="204" x2="97" y2="210" />
	<line stroke="black" stroke-opacity="1" x1="103" y1="204" x2="109" y2="210" />
	<line stroke="black" stroke-opacity="1" x1="97" y1="210" x2="109" y2="210" />
</g>
<g>
	<line stroke="black" stroke-opacity="1" x1="99" y1="75" x2="99" y2="157" />
	<line stroke="black" stroke-opacity="1" x1="100" y1="163" x2="105" y2="156" />
	<line stroke="black" stroke-opacity="1" x1="100" y1="163" x2="93" y2="157" />
	<line stroke="black" stroke-opacity="1" x1="105" y1="156" x2="93" y2="157" />
</g>
<g>
	<line stroke="black" stroke-opacity="1" x1="99" y1="75" x2="99" y2="163" />
</g>
<g>
	<line stroke="black" stroke-opacity="1" x1="294" y1="45" x2="288" y2="39" />
	<line stroke="black" stroke-opacity="1" x1="294" y1="45" x2="288" y2="51" />
	<line stroke="black" stroke-opacity="1" x1="145" y1="45" x2="294" y2="45" />
</g>
<g>
	<line stroke="black" stroke-opacity="1" x1="145" y1="287" x2="398" y2="287" />
</g>
<g>
	<line stroke="black" stroke-opacity="1" x1="398" y1="76" x2="392" y2="82" />
	<line stroke="black" stroke-opacity="1" x1="398" y1="76" x2="404" y2="82" />
	<line stroke="black" stroke-opacity="1" x1="398" y1="287" x2="398" y2="76" />
</g>
<g>
	<rect fill="#808080" stroke="none" stroke-opacity="1" x="353" y="159" width="3" height="55" />
	<rect fill="#808080" stroke="none" stroke-opacity="1" x="271" y="211" width="85" height="3" />
	<rect fill="#ffffc0" stroke="black" stroke-width="1" stroke-opacity="1" x="267" y="155" width="86" height="56" />
	<text font-family="Helvetica" font-size="9" fill="#000000" xml:space="preserve" text-anchor="middle" x="310" y="166">&lt;&lt;singleton&gt;&gt;</text>
	<text font-family="Helvetica" font-size="9" fill="#000000" xml:space="preserve" font-weight="bold" text-anchor="middle" x="310" y="186">Sequencer</text>
	<line stroke="black" stroke-opacity="1" x1="267" y1="195" x2="353" y2="195" />
</g>
<g>
	<line stroke="black" stroke-opacity="1" x1="266" y1="154" x2="264" y2="145" />
	<line stroke="black" stroke-opacity="1" x1="266" y1="154" x2="257" y2="155" />
	<line stroke="black" stroke-opacity="1" x1="145" y1="74" x2="266" y2="154" />
</g>
<g>
	<line stroke="black" stroke-opacity="1" x1="129" y1="184" x2="135" y2="190" />
	<line stroke="black" stroke-opacity="1" x1="129" y1="184" x2="135" y2="178" />
	<line stroke="black" stroke-opacity="1" x1="266" y1="184" x2="129" y2="184" />
</g>
<g>
	<text font-family="Helvetica" font-size="9" fill="#000000" xml:space="preserve" x="139" y="201">*</text>
</g>
<g>
	<text font-family="Helvetica" font-size="9" fill="#000000" xml:space="preserve" x="139" y="172">sortedModules</text>
</g>
<g>
	<text font-family="Helvetica" font-size="9" fill="#000000" xml:space="preserve" x="198" y="148">sequencer</text>
</g>
<g>
	<text font-family="Helvetica" font-size="9" fill="#000000" xml:space="preserve" x="249" y="177">1</text>
</g>
<g>
	<text font-family="Helvetica" font-size="9" fill="#000000" xml:space="preserve" x="71" y="137">&lt;&lt;map&gt;&gt;</text>
</g>
<g>
	<text font-family="Helvetica" font-size="9" fill="#000000" xml:space="preserve" x="109" y="151">fastTimers</text>
</g>
<g>
	<text font-family="Helvetica" font-size="9" fill="#000000" xml:space="preserve" x="84" y="151">*</text>
</g>
<g>
	<text font-family="Helvetica" font-size="9" fill="#000000" xml:space="preserve" x="263" y="33">adp</text>
</g>
<g>
	<text font-family="Helvetica" font-size="9" fill="#000000" xml:space="preserve" x="408" y="93">audioDeviceProvider</text>
</g>
<g>
	<text font-family="Helvetica" font-size="9" fill="#000000" xml:space="preserve" x="277" y="62">1</text>
</g>
<g>
	<text font-family="Helvetica" font-size="9" fill="#000000" xml:space="preserve" x="381" y="93">1</text>
</g>
</svg>
