<?xml version="1.0" encoding="UTF-8" standalone="no"?>
<!-- Created with Bouml (http://bouml.free.fr/) -->
<!DOCTYPE svg PUBLIC "-//W3C//DTD SVG 1.1//EN" "http://www.w3.org/Graphics/SVG/1.1/DTD/svg11.dtd">
<svg width="599" height="623" version="1.1" xmlns="http://www.w3.org/2000/svg">
<g>
	<line stroke="black" stroke-dasharray="18,6"  stroke-opacity="1" x1="25" y1="45" x2="25" y2="623" />
</g>
<g>
	<rect fill="#808080" stroke="none" stroke-opacity="1" x="46" y="8" width="3" height="22" />
	<rect fill="#808080" stroke="none" stroke-opacity="1" x="5" y="27" width="44" height="3" />
	<rect fill="#ffffc0" stroke="black" stroke-width="1" stroke-opacity="1" x="1" y="4" width="45" height="23" />
	<text font-family="Helvetica" font-size="9" fill="#000000" xml:space="preserve" text-decoration="underline" text-anchor="middle" x="24" y="20">:Clock</text>
</g>
<g>
	<line stroke="black" stroke-dasharray="18,6"  stroke-opacity="1" x1="181" y1="45" x2="181" y2="623" />
</g>
<g>
	<rect fill="#808080" stroke="none" stroke-opacity="1" x="214" y="8" width="3" height="22" />
	<rect fill="#808080" stroke="none" stroke-opacity="1" x="148" y="27" width="69" height="3" />
	<rect fill="#ffffc0" stroke="black" stroke-width="1" stroke-opacity="1" x="144" y="4" width="70" height="23" />
	<text font-family="Helvetica" font-size="9" fill="#000000" xml:space="preserve" text-decoration="underline" text-anchor="middle" x="179" y="20">:Sequencer</text>
</g>
<g>
	<rect fill="#808080" stroke="none" stroke-opacity="1" x="330" y="157" width="3" height="22" />
	<rect fill="#808080" stroke="none" stroke-opacity="1" x="278" y="176" width="55" height="3" />
	<rect fill="#ffffc0" stroke="black" stroke-width="1" stroke-opacity="1" x="274" y="153" width="56" height="23" />
	<text font-family="Helvetica" font-size="9" fill="#000000" xml:space="preserve" text-decoration="underline" text-anchor="middle" x="302" y="169">:Speaker</text>
</g>
<g>
	<line stroke="black" stroke-dasharray="18,6"  stroke-opacity="1" x1="304" y1="194" x2="304" y2="623" />
</g>
<g>
	<polygon fill="#c0ffff" stroke="black" stroke-opacity="1" points="220,4 406,4 406,14 416,14 416,56 220,56 220,4" />
	<line stroke="black" stroke-opacity="1" x1="406" y1="4" x2="416" y2="14" />
	<text font-family="Helvetica" font-size="9" fill="#000000" xml:space="preserve" x="230" y="30">Il n'y aucun TimeCriticalModule</text>
	<text font-family="Helvetica" font-size="9" fill="#000000" xml:space="preserve" x="230" y="47">d'instancié pour le moment.</text>
</g>
<g>
	<line stroke="black" stroke-dasharray="18,6"  stroke-opacity="1" x1="550" y1="45" x2="550" y2="623" />
</g>
<g>
	<line stroke="black" stroke-dasharray="18,6"  stroke-opacity="1" x1="464" y1="45" x2="464" y2="623" />
</g>
<g>
	<polygon fill="#c0ffff" stroke="black" stroke-opacity="1" points="353,130 541,130 541,140 551,140 551,214 353,214 353,130" />
	<line stroke="black" stroke-opacity="1" x1="541" y1="130" x2="551" y2="140" />
	<text font-family="Helvetica" font-size="9" fill="#000000" xml:space="preserve" x="363" y="156">Des références à QAudioOutput</text>
	<text font-family="Helvetica" font-size="9" fill="#000000" xml:space="preserve" x="363" y="173">et QIODevice sont données à</text>
	<text font-family="Helvetica" font-size="9" fill="#000000" xml:space="preserve" x="363" y="190">Speaker par la QtFactory lors de</text>
	<text font-family="Helvetica" font-size="9" fill="#000000" xml:space="preserve" x="363" y="207">l'instanciation de Speaker.</text>
</g>
<g>
	<rect fill="#808080" stroke="none" stroke-opacity="1" x="506" y="8" width="3" height="22" />
	<rect fill="#808080" stroke="none" stroke-opacity="1" x="423" y="27" width="86" height="3" />
	<rect fill="#ffffc0" stroke="black" stroke-width="1" stroke-opacity="1" x="419" y="4" width="87" height="23" />
	<text font-family="Helvetica" font-size="9" fill="#000000" xml:space="preserve" text-decoration="underline" text-anchor="middle" x="463" y="20">:QAudioOutput</text>
</g>
<g>
	<rect fill="none" stroke="black" stroke-width="1" stroke-opacity="1" x="20" y="62" width="10" height="542" />
</g>
<g>
	<rect fill="none" stroke="black" stroke-width="1" stroke-opacity="1" x="176" y="56" width="10" height="550" />
</g>
<g>
	<rect fill="none" stroke="black" stroke-width="1" stroke-opacity="1" x="299" y="235" width="10" height="376" />
</g>
<g>
	<rect fill="#808080" stroke="none" stroke-opacity="1" x="583" y="8" width="3" height="22" />
	<rect fill="#808080" stroke="none" stroke-opacity="1" x="518" y="27" width="68" height="3" />
	<rect fill="#ffffc0" stroke="black" stroke-width="1" stroke-opacity="1" x="514" y="4" width="69" height="23" />
	<text font-family="Helvetica" font-size="9" fill="#000000" xml:space="preserve" text-decoration="underline" text-anchor="middle" x="549" y="20">:QIODevice</text>
</g>
<g>
	<rect fill="none" stroke="black" stroke-width="1" stroke-opacity="1" x="545" y="511" width="10" height="24" />
</g>
<g>
	<rect fill="none" stroke="black" stroke-width="1" stroke-opacity="1" x="459" y="301" width="10" height="304" />
</g>
<g>
	<rect fill="none" stroke="black" stroke-width="1" stroke-opacity="1" x="305" y="291" width="10" height="63" />
</g>
<g>
	<rect fill="none" stroke="black" stroke-width="1" stroke-opacity="1" x="182" y="215" width="10" height="24" />
</g>
<g>
	<rect fill="none" stroke="black" stroke-width="1" stroke-opacity="1" x="26" y="265" width="10" height="199" />
</g>
<g>
	<rect fill="none" stroke="black" stroke-width="1" stroke-opacity="1" x="26" y="76" width="10" height="39" />
</g>
<g>
	<rect fill="none" stroke="black" stroke-width="1" stroke-opacity="1" x="182" y="92" width="10" height="31" />
</g>
<g>
	<rect fill="none" stroke="black" stroke-width="1" stroke-opacity="1" x="182" y="156" width="10" height="24" />
</g>
<g>
	<rect fill="none" stroke="black" stroke-width="1" stroke-opacity="1" x="465" y="403" width="10" height="41" />
</g>
<g>
	<rect fill="none" stroke="black" stroke-width="1" stroke-opacity="1" x="26" y="197" width="10" height="28" />
</g>
<g>
	<rect fill="none" stroke="black" stroke-width="1" stroke-opacity="1" x="26" y="141" width="10" height="35" />
</g>
<g>
	<rect fill="none" stroke="black" stroke-width="1" stroke-opacity="1" x="182" y="491" width="10" height="24" />
</g>
<g>
	<rect fill="none" stroke="black" stroke-width="1" stroke-opacity="1" x="305" y="382" width="10" height="216" />
</g>
<g>
	<rect fill="none" stroke="black" stroke-width="1" stroke-opacity="1" x="465" y="551" width="10" height="43" />
</g>
<g>
	<path fill="none" stroke="black" stroke-opacity="1" d="M 38 142 L 55 142 L 55 149 L 38 149" />
	<polygon fill="#000000" stroke="none" points="38,149 42,153 42,145" />
</g>
<g>
	<line stroke="black" stroke-opacity="1" x1="37" y1="101" x2="182" y2="101" />
	<polygon fill="#000000" stroke="none" points="182,101 178,97 178,105" />
</g>
<g>
	<line stroke="black" stroke-opacity="1" x1="37" y1="270" x2="299" y2="270" />
	<polygon fill="#000000" stroke="none" points="37,270 41,266 41,274" />
</g>
<g>
	<path fill="none" stroke="black" stroke-opacity="1" d="M 38 198 L 55 198 L 55 205 L 38 205" />
	<polygon fill="#000000" stroke="none" points="38,205 42,209 42,201" />
</g>
<g>
	<line stroke="black" stroke-opacity="1" x1="37" y1="387" x2="305" y2="387" />
	<polygon fill="#000000" stroke="none" points="305,387 301,383 301,391" />
</g>
<g>
	<line stroke="black" stroke-opacity="1" x1="316" y1="307" x2="459" y2="307" />
	<polygon fill="#000000" stroke="none" points="459,307 455,303 455,311" />
</g>
<g>
	<path fill="none" stroke="black" stroke-opacity="1" d="M 38 77 L 55 77 L 55 84 L 38 84" />
	<polygon fill="#000000" stroke="none" points="38,84 42,88 42,80" />
</g>
<g>
	<line stroke="black" stroke-opacity="1" x1="37" y1="297" x2="305" y2="297" />
	<polygon fill="#000000" stroke="none" points="305,297 301,293 301,301" />
</g>
<g>
	<line stroke="black" stroke-opacity="1" x1="316" y1="556" x2="465" y2="556" />
	<polygon fill="#000000" stroke="none" points="465,556 461,552 461,560" />
</g>
<g>
	<line stroke="black" stroke-opacity="1" x1="316" y1="409" x2="465" y2="409" />
	<polygon fill="#000000" stroke="none" points="465,409 461,405 461,413" />
</g>
<g>
	<line stroke="black" stroke-opacity="1" x1="37" y1="168" x2="182" y2="168" />
	<polygon fill="#000000" stroke="none" points="182,168 178,164 178,172" />
</g>
<g>
	<line stroke="black" stroke-opacity="1" stroke-dasharray="4,4" x1="316" y1="579" x2="465" y2="579" />
	<path fill="none" stroke="black" stroke-opacity="1" d="M 320 575 L 316 579 L 320 583" />
</g>
<g>
	<line stroke="black" stroke-opacity="1" x1="37" y1="220" x2="182" y2="220" />
	<polygon fill="#000000" stroke="none" points="182,220 178,216 178,224" />
</g>
<g>
	<line stroke="black" stroke-opacity="1" stroke-dasharray="4,4" x1="316" y1="336" x2="459" y2="336" />
	<path fill="none" stroke="black" stroke-opacity="1" d="M 320 332 L 316 336 L 320 340" />
</g>
<g>
	<line stroke="black" stroke-opacity="1" stroke-dasharray="4,4" x1="316" y1="433" x2="465" y2="433" />
	<path fill="none" stroke="black" stroke-opacity="1" d="M 320 429 L 316 433 L 320 437" />
</g>
<g>
	<rect fill="none" stroke="black" stroke-width="1" stroke-opacity="1" x="311" y="462" width="10" height="75" />
</g>
<g>
	<path fill="none" stroke="black" stroke-opacity="1" d="M 323 463 L 340 463 L 340 470 L 323 470" />
	<polygon fill="#000000" stroke="none" points="323,470 327,474 327,466" />
</g>
<g>
	<line stroke="black" stroke-opacity="1" x1="193" y1="497" x2="311" y2="497" />
	<polygon fill="#000000" stroke="none" points="193,497 197,493 197,501" />
</g>
<g>
	<line stroke="black" stroke-opacity="1" x1="322" y1="516" x2="545" y2="516" />
	<polygon fill="#000000" stroke="none" points="545,516 541,512 541,520" />
</g>
<g>
	<text font-family="Helvetica" font-size="9" fill="#000000" xml:space="preserve" x="79" y="94">process()</text>
</g>
<g>
	<text font-family="Helvetica" font-size="9" fill="#000000" xml:space="preserve" x="107" y="263">registerFastClock(this)</text>
</g>
<g>
	<text font-family="Helvetica" font-size="9" fill="#000000" xml:space="preserve" x="41" y="190">internalTimerExpired()</text>
</g>
<g>
	<text font-family="Helvetica" font-size="9" fill="#000000" xml:space="preserve" x="82" y="213">process()</text>
</g>
<g>
	<text font-family="Helvetica" font-size="9" fill="#000000" xml:space="preserve" x="117" y="291">fastTimerExpired()</text>
</g>
<g>
	<text font-family="Helvetica" font-size="9" fill="#000000" xml:space="preserve" x="355" y="295">bytesFree()</text>
</g>
<g>
	<text font-family="Helvetica" font-size="9" fill="#000000" xml:space="preserve" x="416" y="508">write()</text>
</g>
<g>
	<text font-family="Helvetica" font-size="9" fill="#000000" xml:space="preserve" x="120" y="375">fastTimerExpired()</text>
</g>
<g>
	<text font-family="Helvetica" font-size="9" fill="#000000" xml:space="preserve" x="376" y="426">700</text>
</g>
<g>
	<text font-family="Helvetica" font-size="9" fill="#000000" xml:space="preserve" x="80" y="162">process()</text>
</g>
<g>
	<text font-family="Helvetica" font-size="9" fill="#000000" xml:space="preserve" x="225" y="485">process()</text>
</g>
<g>
	<text font-family="Helvetica" font-size="9" fill="#000000" xml:space="preserve" x="319" y="457">(nbGeneratedBytesRemaining &gt;= 700) == false</text>
</g>
<g>
	<text font-family="Helvetica" font-size="9" fill="#000000" xml:space="preserve" x="384" y="572">0</text>
</g>
<g>
	<text font-family="Helvetica" font-size="9" fill="#000000" xml:space="preserve" x="382" y="328">0</text>
</g>
<g>
	<text font-family="Helvetica" font-size="9" fill="#000000" xml:space="preserve" x="37" y="68">internalTimerExpired()</text>
</g>
<g>
	<text font-family="Helvetica" font-size="9" fill="#000000" xml:space="preserve" x="358" y="549">bytesFree()</text>
</g>
<g>
	<text font-family="Helvetica" font-size="9" fill="#000000" xml:space="preserve" x="358" y="397">bytesFree()</text>
</g>
<g>
	<text font-family="Helvetica" font-size="9" fill="#000000" xml:space="preserve" x="38" y="135">internalTimerExpired()</text>
</g>
</svg>
