<?xml version="1.0" encoding="UTF-8" standalone="no"?>
<!-- Created with Bouml (http://bouml.free.fr/) -->
<!DOCTYPE svg PUBLIC "-//W3C//DTD SVG 1.1//EN" "http://www.w3.org/Graphics/SVG/1.1/DTD/svg11.dtd">
<svg width="536" height="377" version="1.1" xmlns="http://www.w3.org/2000/svg">
<g>
	<rect fill="#808080" stroke="none" stroke-opacity="1" x="425" y="20" width="3" height="55" />
	<rect fill="#808080" stroke="none" stroke-opacity="1" x="299" y="72" width="129" height="3" />
	<rect fill="#ffffc0" stroke="black" stroke-width="1" stroke-opacity="1" x="295" y="16" width="130" height="56" />
	<text font-family="Helvetica" font-size="9" fill="#000000" xml:space="preserve" text-anchor="middle" x="360" y="27">&lt;&lt;singleton&gt;&gt;</text>
	<text font-family="Helvetica" font-size="9" fill="#000000" xml:space="preserve" font-weight="bold" text-anchor="middle" x="360" y="47">AudioDeviceProvider</text>
	<line stroke="black" stroke-opacity="1" x1="295" y1="56" x2="425" y2="56" />
</g>
<g>
	<rect fill="#808080" stroke="none" stroke-opacity="1" x="190" y="168" width="3" height="35" />
	<rect fill="#808080" stroke="none" stroke-opacity="1" x="146" y="200" width="47" height="3" />
	<rect fill="#ffffc0" stroke="black" stroke-width="1" stroke-opacity="1" x="142" y="164" width="48" height="36" />
	<text font-family="Helvetica" font-size="9" fill="#000000" xml:space="preserve" font-weight="bold" font-style="italic" text-anchor="middle" x="166" y="175">Module</text>
	<line stroke="black" stroke-opacity="1" x1="142" y1="184" x2="190" y2="184" />
</g>
<g>
	<rect fill="#808080" stroke="none" stroke-opacity="1" x="141" y="35" width="3" height="55" />
	<rect fill="#808080" stroke="none" stroke-opacity="1" x="59" y="87" width="85" height="3" />
	<rect fill="#ffffc0" stroke="black" stroke-width="1" stroke-opacity="1" x="55" y="31" width="86" height="56" />
	<text font-family="Helvetica" font-size="9" fill="#000000" xml:space="preserve" text-anchor="middle" x="98" y="42">&lt;&lt;singleton&gt;&gt;</text>
	<text font-family="Helvetica" font-size="9" fill="#000000" xml:space="preserve" font-weight="bold" text-anchor="middle" x="98" y="62">Clock</text>
	<line stroke="black" stroke-opacity="1" x1="55" y1="71" x2="141" y2="71" />
</g>
<g>
	<rect fill="#808080" stroke="none" stroke-opacity="1" x="166" y="329" width="3" height="35" />
	<rect fill="#808080" stroke="none" stroke-opacity="1" x="114" y="361" width="55" height="3" />
	<rect fill="#ffffc0" stroke="black" stroke-width="1" stroke-opacity="1" x="110" y="325" width="56" height="36" />
	<text font-family="Helvetica" font-size="9" fill="#000000" xml:space="preserve" font-weight="bold" text-anchor="middle" x="138" y="336">Speaker</text>
	<line stroke="black" stroke-opacity="1" x1="110" y1="345" x2="166" y2="345" />
</g>
<g>
	<rect fill="#808080" stroke="none" stroke-opacity="1" x="205" y="249" width="3" height="35" />
	<rect fill="#808080" stroke="none" stroke-opacity="1" x="91" y="281" width="117" height="3" />
	<rect fill="#ffffc0" stroke="black" stroke-width="1" stroke-opacity="1" x="87" y="245" width="118" height="36" />
	<text font-family="Helvetica" font-size="9" fill="#000000" xml:space="preserve" font-weight="bold" font-style="italic" text-anchor="middle" x="146" y="256">TimeCriticalModule</text>
	<line stroke="black" stroke-opacity="1" x1="87" y1="265" x2="205" y2="265" />
</g>
<g>
	<line stroke="black" stroke-opacity="1" x1="170" y1="345" x2="398" y2="345" />
</g>
<g>
	<line stroke="black" stroke-opacity="1" x1="398" y1="76" x2="392" y2="82" />
	<line stroke="black" stroke-opacity="1" x1="398" y1="76" x2="404" y2="82" />
	<line stroke="black" stroke-opacity="1" x1="398" y1="345" x2="398" y2="76" />
</g>
<g>
	<line stroke="black" stroke-opacity="1" x1="167" y1="244" x2="167" y2="210" />
	<line stroke="black" stroke-opacity="1" x1="167" y1="204" x2="161" y2="210" />
	<line stroke="black" stroke-opacity="1" x1="167" y1="204" x2="173" y2="210" />
	<line stroke="black" stroke-opacity="1" x1="161" y1="210" x2="173" y2="210" />
</g>
<g>
	<line stroke="black" stroke-opacity="1" x1="138" y1="324" x2="138" y2="291" />
	<line stroke="black" stroke-opacity="1" x1="138" y1="285" x2="132" y2="291" />
	<line stroke="black" stroke-opacity="1" x1="138" y1="285" x2="144" y2="291" />
	<line stroke="black" stroke-opacity="1" x1="132" y1="291" x2="144" y2="291" />
</g>
<g>
	<line stroke="black" stroke-opacity="1" x1="98" y1="244" x2="104" y2="238" />
	<line stroke="black" stroke-opacity="1" x1="98" y1="244" x2="92" y2="238" />
	<line stroke="black" stroke-opacity="1" x1="98" y1="91" x2="98" y2="244" />
</g>
<g>
	<rect fill="#808080" stroke="none" stroke-opacity="1" x="383" y="159" width="3" height="55" />
	<rect fill="#808080" stroke="none" stroke-opacity="1" x="301" y="211" width="85" height="3" />
	<rect fill="#ffffc0" stroke="black" stroke-width="1" stroke-opacity="1" x="297" y="155" width="86" height="56" />
	<text font-family="Helvetica" font-size="9" fill="#000000" xml:space="preserve" text-anchor="middle" x="340" y="166">&lt;&lt;singleton&gt;&gt;</text>
	<text font-family="Helvetica" font-size="9" fill="#000000" xml:space="preserve" font-weight="bold" text-anchor="middle" x="340" y="186">Sequencer</text>
	<line stroke="black" stroke-opacity="1" x1="297" y1="195" x2="383" y2="195" />
</g>
<g>
	<line stroke="black" stroke-opacity="1" x1="145" y1="81" x2="305" y2="81" />
</g>
<g>
	<line stroke="black" stroke-opacity="1" x1="305" y1="154" x2="311" y2="148" />
	<line stroke="black" stroke-opacity="1" x1="305" y1="154" x2="299" y2="148" />
	<line stroke="black" stroke-opacity="1" x1="305" y1="81" x2="305" y2="154" />
</g>
<g>
	<line stroke="black" stroke-opacity="1" x1="194" y1="184" x2="200" y2="190" />
	<line stroke="black" stroke-opacity="1" x1="194" y1="184" x2="200" y2="178" />
	<line stroke="black" stroke-opacity="1" x1="296" y1="184" x2="194" y2="184" />
</g>
<g>
	<text font-family="Helvetica" font-size="9" fill="#000000" xml:space="preserve" x="315" y="142">sequencer</text>
</g>
<g>
	<text font-family="Helvetica" font-size="9" fill="#000000" xml:space="preserve" x="204" y="172">sortedModules</text>
</g>
<g>
	<text font-family="Helvetica" font-size="9" fill="#000000" xml:space="preserve" x="204" y="201">*</text>
</g>
<g>
	<text font-family="Helvetica" font-size="9" fill="#000000" xml:space="preserve" x="408" y="93">audioDeviceProvider</text>
</g>
<g>
	<text font-family="Helvetica" font-size="9" fill="#000000" xml:space="preserve" x="69" y="220">&lt;&lt;map&gt;&gt;</text>
</g>
<g>
	<text font-family="Helvetica" font-size="9" fill="#000000" xml:space="preserve" x="108" y="232">fastTimers</text>
</g>
<g>
	<text font-family="Helvetica" font-size="9" fill="#000000" xml:space="preserve" x="83" y="232">*</text>
</g>
</svg>
